<svg width="438" height="277" viewBox="0 0 438 277" fill="none" xmlns="http://www.w3.org/2000/svg">
<path opacity="0.3" d="M348.905 6.67578H108.623V142.09H348.905V6.67578Z" stroke="black" stroke-linejoin="round"/>
<path opacity="0.3" d="M348.905 129.498H108.623V142.097H348.905V129.498Z" stroke="black" stroke-linejoin="round"/>
<g opacity="0.3">
<path d="M170.243 29.4355H132.009V54.6711H170.243V29.4355Z" stroke="black" stroke-linejoin="round"/>
<path d="M140.414 76.4766H126.222V91.7441H140.414V76.4766Z" stroke="black" stroke-linejoin="round"/>
<path d="M163.581 76.4766H149.389V91.7441H163.581V76.4766Z" stroke="black" stroke-linejoin="round"/>
<path d="M186.754 76.4766H172.562V91.7441H186.754V76.4766Z" stroke="black" stroke-linejoin="round"/>
<path d="M298.552 56.8535H284.359V72.1211H298.552V56.8535Z" stroke="black" stroke-linejoin="round"/>
<path d="M170.53 40.9668H211.083V26.0117H291.021V57.1656" stroke="black" stroke-linejoin="round"/>
<path d="M332.144 53.7402H304.921V59.971H332.144V53.7402Z" stroke="black" stroke-linejoin="round"/>
<path d="M332.144 64.9512H304.921V71.1819H332.144V64.9512Z" stroke="black" stroke-linejoin="round"/>
<path d="M332.144 76.1699H304.921V82.4007H332.144V76.1699Z" stroke="black" stroke-linejoin="round"/>
<path d="M332.144 87.3809H304.921V93.6116H332.144V87.3809Z" stroke="black" stroke-linejoin="round"/>
<path d="M332.144 98.5996H304.921V104.83H332.144V98.5996Z" stroke="black" stroke-linejoin="round"/>
<path d="M149.389 54.9844V68.3771" stroke="black" stroke-linejoin="round"/>
<path d="M133.171 76.1697V68.0703H179.817V76.1697" stroke="black" stroke-linejoin="round"/>
<path d="M156.632 76.4763V68.377" stroke="black" stroke-linejoin="round"/>
<path d="M143.739 36.916H158.513" stroke="black" stroke-linejoin="round"/>
<path d="M143.739 47.1973H158.513" stroke="black" stroke-linejoin="round"/>
<path d="M139.108 41.8984H163.144" stroke="black" stroke-linejoin="round"/>
</g>
<path d="M377.515 227.416H52.9961V273.594H377.515V227.416Z" fill="#C3C3C3" stroke="#263238" stroke-linejoin="round"/>
<path d="M197.667 213.418C197.667 213.418 196.829 218.599 196.686 219.043C196.542 219.486 194.304 224.223 194.023 225.486C193.742 226.748 195.567 227.448 196.686 227.448C197.804 227.448 203.972 227.867 204.672 227.311C205.372 226.754 206.079 224.923 205.922 223.523C205.766 222.124 204.804 213.574 204.804 213.574L197.667 213.418Z" fill="white" stroke="#263238" stroke-linejoin="round"/>
<path d="M234.526 214.262C234.526 214.262 236.207 216.924 237.026 217.624C237.845 218.324 242.913 223.511 244.594 224.067C246.275 224.623 245.994 225.892 245.013 226.873C244.032 227.854 238.707 227.573 235.907 227.292C233.108 227.011 229.883 227.292 229.464 227.136C229.045 226.98 226.383 226.998 225.121 226.292C223.858 225.586 224.421 220.411 224.421 220.411L234.526 214.262Z" fill="white" stroke="#263238" stroke-linejoin="round"/>
<path d="M204.672 122.276C204.672 122.276 201.454 135.168 201.754 143.974C202.054 152.779 200.073 175.509 200.073 176.209C200.073 176.909 198.535 180.971 198.535 184.758C198.535 188.546 198.11 209.894 198.11 209.894C198.11 209.894 196.429 210.175 196.71 211.719C196.992 213.262 197.273 215.5 197.273 215.5C197.273 215.5 199.773 215.637 201.754 215.918C202.967 216.084 204.2 216.038 205.397 215.781C205.397 215.781 206.647 212.275 206.803 210.456C206.96 208.638 206.522 208.019 206.522 205.919C206.522 203.819 218.571 143.424 218.571 143.424L223.058 179.015C223.058 179.015 223.34 197.076 224.183 202.138C224.679 205.03 224.959 207.954 225.021 210.888C225.021 210.888 224.602 214.669 224.465 215.093C224.327 215.518 223.765 215.793 224.04 216.912C224.257 218.07 224.399 219.241 224.465 220.418C226.101 219.408 227.837 218.571 229.645 217.918C232.445 216.937 235.67 215.418 235.67 215.418C235.416 214.451 235.228 213.468 235.108 212.475C235.108 211.775 234.408 211.494 234.408 210.938C234.408 210.381 235.532 185.233 235.951 176.403C236.37 167.572 236.37 136.887 236.37 136.887L233.001 122.276L232.301 119.47L205.254 119.332L204.672 122.276Z" fill="#263238" stroke="#263238" stroke-linejoin="round"/>
<path d="M208.172 122.149C208.172 122.149 215.715 124.436 220.977 123.98C226.239 123.523 228.52 122.492 228.52 122.492L229.876 104.087L230.908 79.0518L231.02 74.9396C231.02 74.9396 224.052 72.8773 221.989 72.6523C219.927 72.4273 213.765 72.0898 213.765 72.0898L206.891 75.8396L208.172 122.149Z" fill="white" stroke="#263238" stroke-linejoin="round"/>
<path d="M213.185 65.8535L213.778 72.103C214.049 73.0405 214.471 73.9272 215.028 74.7278C215.878 75.8278 218.84 77.9464 218.84 77.9464L220.278 82.6835L221.715 77.7776C222.801 77.2976 223.716 76.5002 224.34 75.4903C224.992 74.183 225.449 72.7869 225.696 71.3468L226.034 68.2971C226.034 68.2971 222.565 69.547 219.94 68.922C217.316 68.2971 213.185 65.8535 213.185 65.8535Z" fill="white" stroke="#263238" stroke-linejoin="round"/>
<path d="M218.858 77.9336L216.171 83.9706L214.571 80.1959" stroke="#263238" stroke-linejoin="round"/>
<path d="M221.733 77.7656L223.833 83.1715L225.321 80.8841" stroke="#263238" stroke-linejoin="round"/>
<path d="M210.672 58.6673C210.672 58.6673 209.066 57.1424 208.585 59.4735C208.104 61.8046 210.035 63.7294 210.597 64.0481C211.08 64.2812 211.593 64.4433 212.122 64.5294C212.707 66.2184 213.701 67.7363 215.016 68.9478C217.022 70.6351 220.234 72.4038 224.253 70.7164C228.271 69.029 227.946 64.0481 227.709 60.1922C227.471 56.3362 226.584 49.4305 225.296 46.8619C224.009 44.2934 218.947 43.5684 214.935 44.4496C210.922 45.3308 208.91 49.668 208.748 52.0803C208.585 54.4926 210.672 58.6673 210.672 58.6673Z" fill="white" stroke="#263238" stroke-linejoin="round"/>
<path d="M210.672 58.6671C210.395 58.4072 210.047 58.2373 209.672 58.1797L210.672 58.6671Z" fill="white" stroke="#263238" stroke-linejoin="round"/>
<path d="M215.016 68.9788C217.022 70.6662 220.234 72.4348 224.252 70.7474C228.271 69.0601 227.946 64.0792 227.708 60.2232C227.658 59.4858 227.59 58.6359 227.496 57.7234L227.465 57.6547L226.583 63.9042C226.583 63.9042 226.34 63.2793 223.852 61.7356C221.365 60.192 219.028 61.7356 217.747 62.5356C216.785 63.191 215.895 63.945 215.091 64.7854C214.094 64.2139 213.308 63.3376 212.847 62.2856C212.296 61.0901 211.941 59.8133 211.797 58.5046C211.797 58.5046 213.403 56.5798 212.922 55.2111C212.441 53.8425 212.041 54.3299 211.722 52.7113C211.403 51.0927 210.997 49.3366 212.122 48.3741C213.247 47.4117 216.14 47.3305 217.34 48.1304C218.54 48.9304 219.671 49.4178 221.04 48.6116C222.409 47.8054 222.965 46.9243 223.927 47.168C224.638 47.4508 225.295 47.8524 225.871 48.3554C225.719 47.839 225.527 47.3354 225.296 46.8493C224.009 44.2745 218.947 43.5558 214.934 44.4369C210.922 45.3181 208.91 49.6553 208.747 52.0676C208.585 54.4799 210.672 58.6546 210.672 58.6546L212.122 64.5167C212.701 66.2214 213.695 67.7551 215.016 68.9788Z" fill="#263238" stroke="#263238" stroke-linejoin="round"/>
<path d="M221.358 54.0859C221.358 54.0859 221.677 59.873 222.483 61.0792C223.289 62.2853 223.208 62.7665 221.921 62.5228C220.633 62.2791 219.421 60.9167 219.421 60.1167" fill="white"/>
<path d="M221.358 54.0859C221.358 54.0859 221.677 59.873 222.483 61.0792C223.289 62.2853 223.208 62.7665 221.921 62.5228C220.633 62.2791 219.421 60.9167 219.421 60.1167" stroke="#263238" stroke-linejoin="round"/>
<path d="M218.309 63.7285C218.309 63.7285 219.915 65.7346 223.527 64.6097" stroke="white" stroke-linecap="round" stroke-linejoin="round"/>
<path d="M217.577 56.9798C217.671 57.6047 217.496 58.136 217.177 58.186C216.858 58.2359 216.552 57.7735 216.433 57.161C216.315 56.5486 216.521 56.0049 216.833 55.9549C217.146 55.9049 217.483 56.3673 217.577 56.9798Z" fill="#263238"/>
<path d="M224.583 56.4802C224.683 57.1052 224.502 57.6301 224.183 57.6801C223.864 57.7301 223.558 57.2677 223.439 56.6552C223.321 56.0428 223.527 55.4991 223.839 55.4491C224.152 55.3991 224.489 55.8553 224.583 56.4802Z" fill="#263238"/>
<path d="M215.097 54.4913C215.097 54.4913 215.965 53.6227 218.046 53.5664" stroke="#263238" stroke-linecap="round" stroke-linejoin="round"/>
<path d="M222.452 53.2726C222.452 53.2726 223.552 52.0602 225.577 53.6226" stroke="#263238" stroke-linecap="round" stroke-linejoin="round"/>
<path d="M227.377 56.0541C227.377 56.0541 228.539 55.4791 228.708 57.3852C228.788 58.5976 228.508 59.8067 227.902 60.8599L227.377 56.0541Z" fill="white" stroke="#263238" stroke-linejoin="round"/>
<path d="M189.992 88.352C189.992 88.352 188.636 84.371 188.742 84.0335C188.723 82.8642 188.463 81.7113 187.98 80.6463C187.474 79.8026 187.555 80.0588 186.792 78.7714C186.03 77.484 184.918 75.8967 184.68 75.2217C184.443 74.5468 183.58 76.2341 184.086 77.2528C184.593 78.2715 185.78 80.0464 185.78 80.0464C185.486 80.0865 185.187 80.0271 184.93 79.8776C184.66 79.7149 184.378 79.5728 184.086 79.4526L182.649 78.6902C182.649 78.6902 180.449 76.7403 180.105 76.5716C179.762 76.4029 178.331 72.0844 177.568 72.5969C176.806 73.1094 177.656 74.203 177.737 75.0467C178.018 76.6466 178.385 78.23 178.837 79.7901C179.006 80.2151 180.868 82.6649 181.887 84.021C182.833 85.1136 183.915 86.0817 185.105 86.9021L186.624 92.0642L189.992 88.352Z" fill="white" stroke="#263238" stroke-linejoin="round"/>
<path d="M181.955 83.0582C181.955 83.0582 182.011 81.8083 182.124 81.0959C182.236 80.3834 183.999 75.9775 184.299 76.5774C184.597 77.2673 184.637 78.0416 184.411 78.7585C184.192 79.1897 183.536 80.7709 183.536 80.7709L184.161 83.1707C184.161 83.1707 185.742 83.3332 186.448 83.9831C186.974 84.6036 187.364 85.3275 187.592 86.108" fill="white"/>
<path d="M181.955 83.0582C181.955 83.0582 182.011 81.8083 182.124 81.0959C182.236 80.3834 183.999 75.9775 184.299 76.5774C184.597 77.2673 184.637 78.0416 184.411 78.7585C184.192 79.1897 183.536 80.7709 183.536 80.7709L184.161 83.1707C184.161 83.1707 185.742 83.3332 186.448 83.9831C186.974 84.6036 187.364 85.3275 187.592 86.108" stroke="#263238" stroke-linejoin="round"/>
<path d="M181.13 82.19C181.13 82.19 180.505 80.7151 180.58 80.0089C180.655 79.3027 181.78 74.9468 181.78 74.9468C181.78 74.9468 182.543 74.5656 182.599 75.378C182.536 76.5558 182.354 77.7242 182.055 78.8652C182.013 79.6092 182.032 80.3554 182.112 81.0963" fill="white"/>
<path d="M181.13 82.19C181.13 82.19 180.505 80.7151 180.58 80.0089C180.655 79.3027 181.78 74.9468 181.78 74.9468C181.78 74.9468 182.543 74.5656 182.599 75.378C182.536 76.5558 182.354 77.7242 182.055 78.8652C182.013 79.6092 182.032 80.3554 182.112 81.0963" stroke="#263238" stroke-linejoin="round"/>
<path d="M180.543 80.4477C180.543 80.4477 179.399 78.979 179.399 78.2104C179.451 76.4624 179.595 74.7185 179.831 72.9858C179.999 72.492 180.456 72.6045 180.593 73.8544C180.66 75.038 180.606 76.2254 180.431 77.3979L180.868 78.7041" fill="white"/>
<path d="M180.543 80.4477C180.543 80.4477 179.399 78.979 179.399 78.2104C179.451 76.4624 179.595 74.7185 179.831 72.9858C179.999 72.492 180.456 72.6045 180.593 73.8544C180.66 75.038 180.606 76.2254 180.431 77.3979L180.868 78.7041" stroke="#263238" stroke-linejoin="round"/>
<path d="M213.44 71.3359L213.865 87.2472C213.865 87.2472 215.303 107.246 215.64 110.014C215.977 112.783 211.834 142.099 211.834 142.099C211.834 142.099 207.091 141.418 202.185 140.318C197.279 139.218 195.31 138.118 195.31 138.118L202.691 108.914C202.691 108.914 195.242 117.039 194.735 117.214C194.229 117.389 193.804 117.214 193.123 116.195C192.442 115.176 184.255 92.4093 184.255 92.4093L190.011 88.3471L195.685 97.5714C195.685 97.5714 199.066 78.8666 199.435 78.1979C199.804 77.5292 213.44 71.3359 213.44 71.3359Z" fill="#DB4C77" stroke="#263238" stroke-linejoin="round"/>
<path d="M210.391 73.1914C210.391 73.1914 208.516 84.7093 209.803 90.6901C211.09 96.6709 214.628 107.958 214.628 107.958" stroke="#263238" stroke-linejoin="round"/>
<path d="M202.691 108.912L203.285 105.95L201.166 84.7891" stroke="#263238" stroke-linejoin="round"/>
<path d="M195.667 97.5703L197.273 102.564" stroke="#263238" stroke-linejoin="round"/>
<path d="M256.75 90.0465C256.75 90.0465 259.2 86.6342 259.219 86.2968C259.577 85.1842 260.16 84.1569 260.931 83.2782C261.662 82.6158 261.506 82.8345 262.606 81.8408C263.671 80.964 264.691 80.0337 265.662 79.0536C266.106 78.4786 266.424 80.341 265.662 81.1659C264.899 81.9908 263.231 83.347 263.231 83.347C263.497 83.4766 263.8 83.5076 264.087 83.4345C264.393 83.3569 264.704 83.3026 265.018 83.272L266.618 82.9595C266.618 82.9595 269.287 81.7408 269.662 81.6721C270.036 81.6034 272.668 77.9224 273.249 78.6036C273.83 79.2848 272.699 80.1222 272.374 80.9034C271.644 82.3542 270.832 83.7626 269.943 85.1218C269.662 85.4781 267.162 87.2842 265.799 88.2841C264.577 89.0548 263.263 89.6679 261.887 90.109L258.919 94.6024L256.75 90.0465Z" fill="white" stroke="#263238" stroke-linejoin="round"/>
<path d="M265.98 87.3213C265.98 87.3213 266.292 86.1026 266.392 85.3964C266.492 84.6902 266.105 79.9593 265.624 80.4405C265.132 81.0088 264.869 81.7393 264.886 82.4904C264.967 82.9716 265.136 84.6715 265.136 84.6715L263.886 86.7901C263.081 86.6264 262.247 86.6672 261.461 86.9088C260.777 87.3476 260.193 87.9271 259.749 88.6087" fill="white"/>
<path d="M265.98 87.3213C265.98 87.3213 266.292 86.1026 266.392 85.3964C266.492 84.6902 266.105 79.9593 265.624 80.4405C265.132 81.0088 264.869 81.7393 264.886 82.4904C264.967 82.9716 265.136 84.6715 265.136 84.6715L263.886 86.7901C263.081 86.6264 262.247 86.6672 261.461 86.9088C260.777 87.3476 260.193 87.9271 259.749 88.6087" stroke="#263238" stroke-linejoin="round"/>
<path d="M267.018 86.7216C267.018 86.7216 268.067 85.5091 268.167 84.7967C268.267 84.0843 268.492 79.6033 268.492 79.6033C268.492 79.6033 267.867 79.0159 267.586 79.7846C267.303 80.9291 267.137 82.0997 267.093 83.2781C266.917 84.0021 266.683 84.7106 266.393 85.3967" fill="white"/>
<path d="M267.018 86.7216C267.018 86.7216 268.067 85.5091 268.167 84.7967C268.267 84.0843 268.492 79.6033 268.492 79.6033C268.492 79.6033 267.867 79.0159 267.586 79.7846C267.303 80.9291 267.137 82.0997 267.093 83.2781C266.917 84.0021 266.683 84.7106 266.393 85.3967" stroke="#263238" stroke-linejoin="round"/>
<path d="M268.093 85.2266C268.093 85.2266 269.618 84.1517 269.836 83.4205C270.298 81.734 270.665 80.0231 270.936 78.2959C270.936 77.7772 270.474 77.7522 269.955 78.9208C269.551 80.0325 269.26 81.182 269.086 82.3518L268.287 83.4767" fill="white"/>
<path d="M268.093 85.2266C268.093 85.2266 269.618 84.1517 269.836 83.4205C270.298 81.734 270.665 80.0231 270.936 78.2959C270.936 77.7772 270.474 77.7522 269.955 78.9208C269.551 80.0325 269.26 81.182 269.086 82.3518L268.287 83.4767" stroke="#263238" stroke-linejoin="round"/>
<path d="M225.714 71.3359C225.939 76.3098 225.882 81.2923 225.545 86.2598C224.977 92.7718 222.689 109.352 222.921 109.808C223.152 110.264 226.345 141.681 226.345 141.681C226.345 141.681 232.864 141.912 236.52 141.112C238.749 140.622 240.931 139.934 243.038 139.056C243.038 139.056 234.695 108.352 234.576 107.864C234.457 107.377 235.826 103.402 235.826 103.402C235.826 103.402 243.95 112.664 245.313 112.439C246.675 112.214 260.987 93.353 260.987 93.353L256.531 88.5471L246.581 97.1027C246.581 97.1027 240.182 81.3289 239.494 79.954C238.77 78.7366 237.885 77.6225 236.863 76.6418C236.52 76.3106 225.714 71.3359 225.714 71.3359Z" fill="#DB4C77" stroke="#263238" stroke-linejoin="round"/>
<path d="M228.52 73.6797C229.305 78.0095 229.458 82.4299 228.977 86.8037C228.177 94.1219 223.721 108.408 223.721 108.408" stroke="#263238" stroke-linejoin="round"/>
<path d="M235.839 103.401L238.464 87.0586" stroke="#263238" stroke-linejoin="round"/>
<path d="M246.581 97.1152L246.469 101.69" stroke="#263238" stroke-linejoin="round"/>
<path d="M338.174 133.347C338.174 133.347 332.687 134.597 331.187 136.966C329.687 139.334 327.944 144.947 328.444 147.071C328.944 149.196 331.312 155.052 333.181 156.552C335.05 158.052 338.806 160.17 341.543 160.17C344.28 160.17 349.405 156.552 349.898 154.802C350.392 153.052 351.773 148.065 351.898 145.821C352.023 143.578 353.023 139.959 348.655 136.591C344.286 133.222 342.793 132.335 338.174 133.347Z" fill="white" stroke="#263238" stroke-linejoin="round"/>
<path d="M349.898 154.789C350.398 153.046 351.773 148.052 351.898 145.809C351.992 144.115 352.579 141.64 350.986 139.078C350.842 140.166 350.242 143.003 349.28 144.19C348.155 145.559 343.161 148.177 336.674 146.809C332.006 145.821 330.056 142.834 329.331 141.234C328.612 143.478 328.156 145.84 328.444 147.059C328.944 149.177 331.312 155.039 333.181 156.539C335.049 158.039 338.805 160.158 341.543 160.158C344.28 160.158 349.405 156.539 349.898 154.789Z" fill="white" stroke="#263238" stroke-linejoin="round"/>
<path d="M328.444 147.058C328.444 147.058 326.819 146.433 326.569 148.052C326.319 149.67 327.319 153.051 328.694 153.795C329.096 154.011 329.546 154.124 330.003 154.124C330.46 154.124 330.91 154.011 331.312 153.795L328.444 147.058Z" fill="white" stroke="#263238" stroke-linejoin="round"/>
<path d="M351.898 146.809C351.898 146.809 354.398 144.809 354.142 147.928C353.886 151.046 350.523 153.421 350.523 153.421L351.898 146.809Z" fill="white" stroke="#263238" stroke-linejoin="round"/>
<path d="M353.617 164.151C353.617 164.151 350.124 158.658 349.749 158.283C349.374 157.908 343.761 157.033 340.268 157.033C336.775 157.033 331.037 158.527 331.037 158.527L328.044 164.776C328.044 164.776 342.043 161.158 353.617 164.151Z" fill="#263238" stroke="#263238" stroke-linejoin="round"/>
<path d="M310.852 201.83C310.852 201.83 309.87 206.942 310.495 208.342C311.12 209.742 313.489 211.086 314.739 211.086C316.043 210.981 317.337 210.772 318.607 210.461L319.107 203.224L310.852 201.83Z" stroke="#263238" stroke-linejoin="round"/>
<path d="M369.491 197.961C369.491 197.961 369.991 203.948 369.616 204.948C369.241 205.948 367.116 207.816 365.622 208.191C364.32 208.54 362.977 208.708 361.629 208.691C361.254 208.566 360.004 199.705 360.004 199.705L369.491 197.961Z" stroke="#263238" stroke-linejoin="round"/>
<path d="M337.799 262.338C337.799 262.338 337.549 271.318 338.174 272.193C338.799 273.068 341.793 274.187 345.049 273.812C348.305 273.437 349.667 272.443 349.667 271.818C349.667 271.193 349.542 263.207 349.542 263.207C349.542 263.207 339.424 262.588 337.799 262.338Z" fill="#263238" stroke="#263238" stroke-linejoin="round"/>
<path d="M349.655 271.818C349.655 271.68 349.655 271.193 349.655 270.48C345.361 272.355 340.468 271.312 337.887 270.48C337.884 271.061 337.988 271.637 338.193 272.18C338.818 273.055 341.811 274.174 345.067 273.799C348.323 273.424 349.655 272.443 349.655 271.818Z" fill="white" stroke="#263238" stroke-linejoin="round"/>
<path d="M334.931 229.521C334.931 229.521 337.799 249.607 337.674 252.357C337.577 253.728 337.619 255.106 337.799 256.469C337.799 256.469 336.674 257.094 336.674 258.094C336.674 259.094 337.799 262.337 337.799 262.337C337.799 262.337 337.674 262.837 340.924 263.456C344.174 264.075 348.661 263.831 349.536 263.206C350.411 262.581 350.404 259.712 350.279 257.844C350.155 255.975 348.661 252.107 348.661 250.607C348.661 249.107 350.654 228.277 350.654 228.277C350.654 228.277 339.424 230.396 334.931 229.521Z" fill="#DB4C77" stroke="#263238" stroke-linejoin="round"/>
<path d="M356.392 256.101C356.392 256.101 358.266 262.35 358.76 263.456C359.254 264.563 361.26 265.831 362.254 265.831C363.247 265.831 368.616 264.081 369.366 263.706C370.116 263.331 371.484 261.088 370.859 259.094C370.234 257.101 367.11 250.732 367.11 250.732L356.392 256.101Z" fill="#263238" stroke="#263238" stroke-linejoin="round"/>
<path d="M369.366 263.706C370.054 263.362 371.241 261.444 370.972 259.594C369.249 260.735 367.463 261.778 365.623 262.719C363.689 263.621 361.62 264.197 359.498 264.425C360.247 265.171 361.211 265.665 362.254 265.837C363.254 265.837 368.616 264.081 369.366 263.706Z" fill="white" stroke="#263238" stroke-linejoin="round"/>
<path d="M347.53 235.39C347.53 235.39 352.398 245.12 353.267 246.639C354.136 248.157 354.767 249.263 354.767 249.263C354.338 249.912 354.152 250.691 354.242 251.463C354.492 252.588 356.367 256.082 356.367 256.082C356.367 256.082 359.235 256.707 361.479 255.957C363.722 255.207 366.347 253.082 366.597 252.588C366.816 251.979 366.981 251.352 367.091 250.713C366.669 249.056 366.128 247.431 365.472 245.851C364.347 243.101 363.104 240.983 362.604 238.614C362.104 236.246 359.36 226.115 359.36 226.115L344.986 229.24L347.53 235.39Z" fill="#DB4C77" stroke="#263238" stroke-linejoin="round"/>
<path d="M316.463 215.304C316.463 215.304 315.838 219.679 316.088 221.666C316.338 223.654 316.713 226.153 322.963 228.541C329.212 230.928 335.462 232.528 340.461 232.159C345.461 231.79 354.685 229.534 356.71 228.541C358.735 227.547 360.366 225.647 361.71 224.347C363.053 223.047 363.435 218.31 363.191 216.435C363.059 215.369 362.807 214.321 362.441 213.311C362.441 213.311 341.418 218.798 316.463 215.304Z" fill="#DB4C77" stroke="#263238" stroke-linejoin="round"/>
<path d="M328.069 164.77C328.069 164.77 322.082 170.263 319.32 172.382C316.557 174.501 313.833 177.125 313.833 177.875C313.833 178.625 306.471 201.205 306.471 201.205C306.471 201.205 309.339 204.823 315.583 205.442H317.37C317.37 205.442 316.495 214.429 316.495 215.304C316.495 216.179 328.225 220.303 341.949 219.166C355.673 218.028 362.16 214.554 362.41 213.304C362.66 212.054 362.16 209.554 362.16 207.679C362.16 205.804 361.785 202.186 361.785 202.186C361.785 202.186 365.279 202.561 367.897 201.561C370.516 200.561 374.353 197.093 374.353 197.093C374.353 197.093 366.854 181 365.747 177.382C364.641 173.763 353.617 164.151 353.617 164.151C353.617 164.151 343.412 160.908 328.069 164.77Z" fill="#263238" stroke="#263238" stroke-linejoin="round"/>
<path d="M316.883 185.256L317.864 213.841C317.864 213.841 340.287 218.891 361.167 213.841L362.848 185.675C362.848 185.675 325.151 187.093 316.883 185.256Z" fill="#B2B2B2" stroke="#263238" stroke-linejoin="round"/>
<path d="M317.863 213.842L313.938 274.075" stroke="#263238" stroke-width="3" stroke-linecap="round" stroke-linejoin="round"/>
<path d="M361.048 213.842L364.973 274.075" stroke="#263238" stroke-width="3" stroke-linecap="round" stroke-linejoin="round"/>
<path d="M317.058 224.44C317.058 224.44 329.132 230.821 340.537 230.652C352.411 230.477 361.648 224.334 361.648 224.334L362.273 230.908C362.273 230.908 341.649 239.527 316.87 230.502L317.058 224.44Z" fill="#B2B2B2" stroke="#263238" stroke-linejoin="round"/>
<path d="M274.392 229.135C274.392 229.135 279.56 250.471 280.379 252.74C281.197 255.008 282.141 253.752 283.197 256.527C284.253 259.302 284.491 261.702 285.666 263.22C286.841 264.739 289.897 265.364 290.834 267.639C291.772 269.914 292.365 271.801 288.722 272.563C285.078 273.326 281.791 271.17 280.266 267.889C278.741 264.608 276.623 255.39 276.623 255.39C276.623 255.39 262.293 235.322 260.643 231.535L258.999 227.748L274.392 229.135Z" fill="white" stroke="#263238" stroke-linejoin="round"/>
<path d="M281.673 254.633L282.023 254.683C282.585 255.183 282.993 255.834 283.198 256.558C284.26 259.339 284.491 261.732 285.666 263.251C286.841 264.77 289.897 265.394 290.834 267.669C291.772 269.944 292.366 271.832 288.722 272.594C285.079 273.356 281.791 271.2 280.267 267.919C278.742 264.638 276.623 255.42 276.623 255.42C278.854 251.858 281.673 254.633 281.673 254.633Z" fill="#263238" stroke="#263238" stroke-linejoin="round"/>
<path d="M277.923 229.135C277.923 229.135 272.755 250.471 271.93 252.74C271.105 255.008 270.167 253.752 269.111 256.527C268.055 259.302 267.817 261.702 266.642 263.22C265.468 264.739 262.412 265.364 261.474 267.639C260.537 269.914 259.949 271.801 263.586 272.563C267.224 273.326 270.517 271.17 272.048 267.889C273.579 264.608 275.686 255.39 275.686 255.39C275.686 255.39 290.022 235.322 291.666 231.535L293.309 227.748L277.923 229.135Z" fill="white" stroke="#263238" stroke-linejoin="round"/>
<path d="M270.636 254.633L270.286 254.683C269.724 255.183 269.316 255.834 269.111 256.558C268.055 259.339 267.817 261.732 266.642 263.251C265.468 264.77 262.412 265.394 261.474 267.669C260.537 269.944 259.949 271.832 263.586 272.594C267.224 273.356 270.517 271.2 272.048 267.919C273.579 264.638 275.686 255.42 275.686 255.42C273.454 251.858 270.636 254.633 270.636 254.633Z" fill="#263238" stroke="#263238" stroke-linejoin="round"/>
<path d="M261.83 163.053C261.83 163.053 254.331 166.228 254.193 167.634C254.056 169.04 249.25 187.489 248.913 189.595C248.575 191.701 246.563 196.763 248.088 198.875C249.612 200.988 252.319 202.4 254.081 202.519C254.537 202.587 255.004 202.537 255.435 202.372C255.866 202.208 256.248 201.936 256.543 201.581L255.018 211.918C255.018 211.918 252.668 219.199 253.256 222.136C253.843 225.073 255.843 228.011 267.005 230.479C278.167 232.948 284.629 231.654 288.741 229.773C292.853 227.892 297.784 225.542 298.253 222.605C298.721 219.667 296.846 210.387 296.846 210.387L295.903 200.388C295.903 200.388 301.527 200.269 303.658 197.563C305.789 194.857 305.065 192.163 304.246 189.813C303.427 187.464 300.959 178.889 300.134 175.833C299.309 172.777 298.721 167.49 297.784 166.203C296.846 164.915 287.328 162.797 287.328 162.797C287.328 162.797 275.104 158.241 261.83 163.053Z" fill="white" stroke="#263238" stroke-linejoin="round"/>
<path d="M257.487 178.326L260.068 190.425" stroke="#263238" stroke-linejoin="round"/>
<path d="M296.365 179.145L294.603 189.837" stroke="#263238" stroke-linejoin="round"/>
<path d="M298.246 222.61C298.634 220.185 297.421 213.417 296.996 211.148C283.01 215.073 263.211 212.498 255.124 211.148L255.012 211.905C255.012 211.905 252.662 219.185 253.25 222.123C253.837 225.06 255.837 227.997 266.999 230.466C278.16 232.934 284.622 231.641 288.734 229.76C292.847 227.878 297.777 225.547 298.246 222.61Z" fill="#DB4C77" stroke="#263238" stroke-linejoin="round"/>
<path d="M270.055 130.28C270.055 130.28 265.824 128.637 265.237 134.03C264.649 139.423 267.236 145.904 267.355 147.304C267.474 148.704 259.362 160.815 261.243 164.803C263.124 168.79 267.236 174.083 273.117 174.908C278.998 175.733 283.573 174.671 287.916 170.796C292.259 166.921 293.203 166.096 293.084 163.984C292.966 161.872 288.504 149.416 288.035 146.36C287.566 143.304 290.385 137.43 286.979 131.793C283.573 126.156 276.404 124.862 273.586 126.505C270.767 128.149 270.055 130.28 270.055 130.28Z" fill="#263238" stroke="#263238" stroke-linejoin="round"/>
<path d="M253.131 185.258L254.112 213.843C254.112 213.843 276.535 218.893 297.415 213.843L299.096 185.677C299.096 185.677 261.399 187.095 253.131 185.258Z" fill="#B2B2B2" stroke="#263238" stroke-linejoin="round"/>
<path d="M254.112 213.842L250.193 274.075" stroke="#263238" stroke-width="3" stroke-linecap="round" stroke-linejoin="round"/>
<path d="M297.296 213.842L301.221 274.075" stroke="#263238" stroke-width="3" stroke-linecap="round" stroke-linejoin="round"/>
<path d="M253.306 224.442C253.306 224.442 265.38 230.823 276.786 230.654C288.66 230.479 297.897 224.336 297.897 224.336L298.522 230.91C298.522 230.91 277.898 239.529 253.125 230.504L253.306 224.442Z" fill="#B2B2B2" stroke="#263238" stroke-linejoin="round"/>
<path d="M151.938 145.473L151.001 157.366L169.337 156.741L167.931 146.179L151.938 145.473Z" fill="white" stroke="#263238" stroke-linejoin="round"/>
<path d="M173.006 128.493C172.149 125.918 168.725 125.781 167.581 125.062C166.437 124.343 166.725 122.494 163.581 121.35C160.438 120.206 158.582 120.35 157.007 121.781C155.721 123.055 154.53 124.421 153.445 125.868C151.77 126.706 150.095 127.743 149.439 128.781C147.939 131.149 147.451 136.755 147.951 138.874C148.451 140.992 150.82 146.86 152.695 148.354C154.569 149.848 158.319 151.973 161.05 151.973C163.781 151.973 168.912 148.354 169.412 146.61C169.912 144.867 171.287 139.873 171.406 137.624C171.603 136.648 171.9 135.695 172.293 134.78C172.549 134.061 173.83 131.062 173.006 128.493Z" fill="#263238" stroke="#263238" stroke-linejoin="round"/>
<path d="M147.92 138.874C147.92 138.874 146.301 138.249 146.045 139.874C145.789 141.499 146.789 144.874 148.164 145.611C148.566 145.828 149.016 145.941 149.473 145.941C149.93 145.941 150.38 145.828 150.782 145.611L147.92 138.874Z" fill="white" stroke="#263238" stroke-linejoin="round"/>
<path d="M171.375 138.624C171.375 138.624 173.874 136.63 173.624 139.749C173.374 142.867 170.006 145.223 170.006 145.223L171.375 138.624Z" fill="white" stroke="#263238" stroke-linejoin="round"/>
<path d="M175.455 161.327C175.455 161.327 171.324 154.934 170.881 154.503C170.437 154.072 163.8 153.047 159.669 153.047C155.538 153.047 148.757 154.79 148.757 154.79L145.214 162.052C145.214 162.052 161.756 157.84 175.455 161.327Z" fill="#DB4C77" stroke="#263238" stroke-linejoin="round"/>
<path d="M130.327 201.832C130.327 201.832 129.333 206.944 129.952 208.319C130.571 209.694 132.952 211.063 134.195 211.063C135.5 210.959 136.793 210.75 138.064 210.438L138.564 203.201L130.327 201.832Z" fill="white" stroke="#263238" stroke-linejoin="round"/>
<path d="M188.967 197.963C188.967 197.963 189.467 203.95 189.092 204.95C188.717 205.95 186.592 207.818 185.098 208.193C183.796 208.542 182.453 208.71 181.105 208.693C180.73 208.568 179.486 199.706 179.486 199.706L188.967 197.963Z" fill="white" stroke="#263238" stroke-linejoin="round"/>
<path d="M136.952 264.371L132.889 267.808C132.889 267.808 129.765 268.433 130.54 270.777C130.902 271.858 136.327 275.47 138.664 275.939C141.001 276.408 145.232 275.939 146.326 274.377C147.42 272.814 146.638 265.465 146.638 265.465L136.952 264.371Z" fill="white" stroke="#263238" stroke-linejoin="round"/>
<path d="M146.332 274.376C146.522 274.06 146.647 273.709 146.701 273.345C144.67 273.938 141.289 274.501 138.982 274.063C136.676 273.626 132.733 270.789 130.652 269.201C130.52 269.44 130.441 269.704 130.422 269.976C130.402 270.248 130.442 270.521 130.539 270.776C130.902 271.857 136.326 275.469 138.664 275.938C141.001 276.407 145.238 275.938 146.332 274.376Z" fill="white" stroke="#263238" stroke-linejoin="round"/>
<path d="M140.232 214.35C140.232 214.35 135.076 214.818 133.514 219.349C131.952 223.88 136.17 259.971 136.17 259.971C136.17 259.971 135.389 262.315 135.545 262.783C135.701 263.252 136.014 265.752 136.014 265.752C136.014 265.752 136.795 267.158 140.232 267.158C142.474 267.092 144.67 266.504 146.644 265.439C146.644 265.439 146.332 260.909 146.332 258.715C146.332 256.521 146.176 251.684 146.176 251.684L148.832 224.018C148.832 224.018 151.175 215.756 140.232 214.35Z" fill="#263238" stroke="#263238" stroke-linejoin="round"/>
<path d="M180.804 264.371L184.873 267.808C184.873 267.808 187.998 268.433 187.216 270.777C186.854 271.858 181.429 275.47 179.092 275.939C176.755 276.408 172.53 275.939 171.43 274.377C170.33 272.814 171.118 265.465 171.118 265.465L180.804 264.371Z" fill="white" stroke="#263238" stroke-linejoin="round"/>
<path d="M171.424 274.376C171.24 274.057 171.115 273.708 171.056 273.345C173.087 273.938 176.468 274.501 178.774 274.063C181.08 273.626 185.023 270.789 187.104 269.201C187.239 269.439 187.32 269.703 187.339 269.976C187.359 270.248 187.317 270.522 187.217 270.776C186.854 271.857 181.43 275.469 179.093 275.938C176.755 276.407 172.524 275.938 171.424 274.376Z" fill="white" stroke="#263238" stroke-linejoin="round"/>
<path d="M177.524 214.35C177.524 214.35 182.68 214.818 184.248 219.349C185.817 223.88 181.586 259.971 181.586 259.971C181.586 259.971 182.367 262.315 182.211 262.783C182.055 263.252 181.742 265.752 181.742 265.752C181.742 265.752 180.961 267.158 177.524 267.158C175.29 267.097 173.102 266.517 171.131 265.464C171.131 265.464 171.443 260.934 171.443 258.74C171.443 256.546 171.606 251.709 171.606 251.709L168.943 224.043C168.943 224.043 166.581 215.756 177.524 214.35Z" fill="#263238" stroke="#263238" stroke-linejoin="round"/>
<path d="M135.946 215.306C135.946 215.306 135.321 219.681 135.571 221.668C135.821 223.655 136.196 226.155 142.445 228.543C148.695 230.93 154.944 232.53 159.913 232.161C164.881 231.792 174.13 229.536 176.161 228.543C178.192 227.549 179.817 225.649 181.161 224.349C182.505 223.049 182.892 218.312 182.642 216.437C182.51 215.371 182.258 214.323 181.892 213.312C181.892 213.312 160.894 218.8 135.946 215.306Z" fill="#263238" stroke="#263238" stroke-linejoin="round"/>
<path d="M147.545 160.784C147.545 160.784 141.558 163.216 138.795 165.334C136.033 167.453 133.302 170.078 133.302 170.827C133.302 171.577 125.946 201.206 125.946 201.206C125.946 201.206 128.815 204.825 135.052 205.444H136.795C136.795 205.444 135.927 214.43 135.927 215.305C135.927 216.18 147.651 220.305 161.375 219.168C175.099 218.03 181.586 214.555 181.836 213.305C182.086 212.056 181.586 209.556 181.586 207.681C181.586 205.806 181.211 202.188 181.211 202.188C181.211 202.188 184.704 202.563 187.329 201.563C189.954 200.563 193.835 197.094 193.835 197.094C193.835 197.094 186.335 173.971 185.223 170.334C184.111 166.697 173.124 160.166 173.124 160.166C173.124 160.166 162.893 156.916 147.545 160.784Z" fill="#DB4C77" stroke="#263238" stroke-linejoin="round"/>
<path d="M136.445 176.283L139.458 188.857" stroke="#263238" stroke-linejoin="round"/>
<path d="M181.336 181.238L179.437 188.856" stroke="#263238" stroke-linejoin="round"/>
<path d="M182.448 176.789L181.898 178.995" stroke="#263238" stroke-linejoin="round"/>
<path d="M136.702 185.258L137.683 213.843C137.683 213.843 160.1 218.893 180.986 213.843L182.667 185.677C182.667 185.677 144.97 187.095 136.702 185.258Z" fill="#B2B2B2" stroke="#263238" stroke-linejoin="round"/>
<path d="M137.683 213.844L133.758 274.077" stroke="#263238" stroke-width="3" stroke-linecap="round" stroke-linejoin="round"/>
<path d="M180.86 213.844L184.785 274.077" stroke="#263238" stroke-width="3" stroke-linecap="round" stroke-linejoin="round"/>
<path d="M136.871 224.442C136.871 224.442 148.945 230.842 160.35 230.654C172.224 230.479 181.461 224.336 181.461 224.336L182.086 230.91C182.086 230.91 161.463 239.529 136.689 230.504L136.871 224.442Z" fill="#B2B2B2" stroke="#263238" stroke-linejoin="round"/>
<path d="M87.637 269.032C86.3871 269.613 83.4874 272.157 81.1563 272.663C78.8252 273.169 74.1631 272.663 73.3881 271.369C72.6944 270.213 75.8879 268.026 77.5378 266.094C77.723 265.876 77.8942 265.647 78.0503 265.407C79.3439 263.332 80.1189 259.189 80.1189 259.189L75.2005 224.473L87.637 226.285L87.1183 256.858C87.1183 256.858 89.3369 260.807 89.9681 263.851C90.5493 266.669 90.2118 267.869 87.637 269.032Z" fill="white" stroke="#263238" stroke-linejoin="round"/>
<path d="M87.6371 269.032C86.3872 269.613 83.4874 272.157 81.1563 272.663C78.8253 273.169 74.1631 272.663 73.3882 271.369C73.3439 271.299 73.3142 271.22 73.3007 271.138C73.0819 269.944 76.0067 267.907 77.5379 266.095L78.1628 266.72C78.1628 266.72 80.0814 263.77 80.7251 262.489C81.3688 261.207 82.0063 259.414 83.4124 258.114C84.8185 256.814 87.1121 256.82 87.1121 256.82C87.1121 256.82 89.3307 260.77 89.9619 263.814C90.0543 264.239 90.1231 264.668 90.1681 265.101C90.3681 267.088 89.7807 268.069 87.6371 269.032Z" fill="white" stroke="#263238" stroke-linejoin="round"/>
<path d="M87.6372 269.031C86.3873 269.612 83.4875 272.156 81.1564 272.662C78.8254 273.168 74.1632 272.662 73.3883 271.368C73.344 271.298 73.3143 271.219 73.3008 271.137C74.9114 271.993 76.7467 272.331 78.5566 272.106C82.1376 271.587 82.5251 268.137 87.2622 265.856C88.1449 265.347 89.157 265.106 90.1745 265.162C90.3682 267.087 89.7808 268.068 87.6372 269.031Z" fill="white" stroke="#263238" stroke-linejoin="round"/>
<path d="M95.0682 269.032C96.3181 269.613 99.2179 272.157 101.549 272.663C103.88 273.169 108.548 272.663 109.323 271.369C110.011 270.213 106.824 268.026 105.174 266.094C104.987 265.878 104.815 265.648 104.661 265.407C103.368 263.332 102.586 259.189 102.586 259.189L107.511 224.473L95.0682 226.285L95.5869 256.858C95.5869 256.858 93.3746 260.807 92.7371 263.851C92.1559 266.669 92.4997 267.869 95.0682 269.032Z" fill="white" stroke="#263238" stroke-linejoin="round"/>
<path d="M95.0678 269.032C96.3177 269.613 99.2175 272.157 101.549 272.663C103.88 273.169 108.548 272.663 109.323 271.369C109.367 271.299 109.397 271.22 109.41 271.138C109.623 269.944 106.704 267.907 105.173 266.095L104.548 266.72C104.548 266.72 102.63 263.77 101.992 262.489C101.355 261.207 100.705 259.414 99.2987 258.114C97.8926 256.814 95.599 256.82 95.599 256.82C95.599 256.82 93.3867 260.77 92.7492 263.814C92.6587 264.239 92.5919 264.668 92.5492 265.101C92.3368 267.088 92.9305 268.069 95.0678 269.032Z" fill="white" stroke="#263238" stroke-linejoin="round"/>
<path d="M95.0684 269.033C96.3183 269.614 99.2181 272.157 101.549 272.664C103.88 273.17 108.549 272.664 109.324 271.37C109.368 271.3 109.398 271.221 109.411 271.139C107.8 271.993 105.965 272.331 104.155 272.107C100.574 271.589 100.181 268.139 95.4434 265.858C94.5628 265.349 93.5529 265.108 92.5374 265.164C92.3374 267.089 92.9311 268.07 95.0684 269.033Z" fill="white" stroke="#263238" stroke-linejoin="round"/>
<path d="M78.5569 163.051C78.5569 163.051 71.0575 166.226 70.92 167.632C70.7825 169.038 65.9891 187.487 65.6391 189.599C65.2892 191.712 63.2893 196.767 64.8142 198.88C66.3391 200.992 69.0451 202.404 70.8075 202.523C71.2639 202.592 71.7302 202.541 72.1614 202.377C72.5927 202.213 72.9744 201.94 73.2698 201.586L71.7637 211.923C71.7637 211.923 69.4138 219.203 70.0013 222.14C70.5888 225.078 72.5886 228.015 83.7503 230.484C94.9119 232.952 101.374 231.658 105.486 229.777C109.598 227.896 114.529 225.546 114.998 222.609C115.467 219.672 113.592 210.391 113.592 210.391L112.648 200.392C112.648 200.392 118.273 200.273 120.404 197.567C122.535 194.861 121.81 192.168 120.991 189.818C120.172 187.468 117.704 178.894 116.879 175.838C116.054 172.782 115.467 167.495 114.529 166.207C113.592 164.92 104.074 162.801 104.074 162.801C104.074 162.801 91.8309 158.239 78.5569 163.051Z" fill="#DB4C77" stroke="#263238" stroke-linejoin="round"/>
<path d="M75.3193 183.506L76.7942 190.424" stroke="#263238" stroke-linejoin="round"/>
<path d="M74.2139 178.326L74.7513 180.851" stroke="#263238" stroke-linejoin="round"/>
<path d="M113.098 179.145L111.336 189.837" stroke="#263238" stroke-linejoin="round"/>
<path d="M114.973 222.61C115.36 220.185 114.148 213.417 113.723 211.148C99.7364 215.073 79.9379 212.498 71.851 211.148L71.7385 211.905C71.7385 211.905 69.3887 219.185 69.9761 222.123C70.5636 225.06 72.5634 227.997 83.7251 230.466C94.8867 232.934 101.349 231.641 105.461 229.76C109.573 227.878 114.504 225.547 114.973 222.61Z" fill="#263238" stroke="#263238" stroke-linejoin="round"/>
<path d="M81.0757 139.89C81.0757 139.89 80.4507 137.796 79.3008 139.571C78.1509 141.346 79.3008 144.408 80.107 145.377C80.9229 146.165 81.8597 146.817 82.8818 147.308L83.9754 146.021L81.0757 139.89Z" fill="white" stroke="#263238" stroke-linejoin="round"/>
<path d="M103.505 139.89C103.505 139.89 104.13 137.796 105.28 139.571C106.429 141.346 105.28 144.408 104.473 145.377C103.657 146.165 102.721 146.817 101.699 147.308L100.599 146.021L103.505 139.89Z" fill="white" stroke="#263238" stroke-linejoin="round"/>
<path d="M85.5127 151.159L81.2818 171.12C83.2734 173.128 85.8471 174.458 88.6375 174.92C94.4058 175.726 98.9242 174.714 103.199 171.008C102.499 164.708 100.43 149.922 100.43 149.922L102.568 145.347C103.734 142.913 104.292 140.232 104.193 137.535C104.12 135.513 103.537 133.541 102.499 131.804C99.0929 126.18 91.9247 124.874 89.1062 126.517C86.2876 128.161 85.5814 130.267 85.5814 130.267C85.5814 130.267 81.3568 128.623 80.7693 134.017C80.1818 139.41 81.0755 144.553 82.8816 147.291L85.5127 151.159Z" fill="#263238" stroke="#263238" stroke-linejoin="round"/>
<path d="M92.5245 130.373C92.0029 130.384 91.4896 130.505 91.0179 130.728C90.5463 130.951 90.1269 131.271 89.7872 131.667C89.2137 132.517 88.9898 133.555 89.1622 134.566C89.9632 133.71 91.0606 133.192 92.2307 133.117C92.7292 133.108 93.2201 133.239 93.6477 133.495C94.0753 133.751 94.4223 134.123 94.6493 134.566C94.6493 134.566 96.0742 131.667 92.5245 130.373Z" fill="white" stroke="#263238" stroke-linejoin="round"/>
<path d="M69.8203 185.256L70.8015 213.841C70.8015 213.841 93.2248 218.891 114.104 213.841L115.786 185.675C115.786 185.675 78.0884 187.093 69.8203 185.256Z" fill="#B2B2B2" stroke="#263238" stroke-linejoin="round"/>
<path d="M70.8017 213.842L66.877 274.075" stroke="#263238" stroke-width="3" stroke-linecap="round" stroke-linejoin="round"/>
<path d="M113.985 213.842L117.91 274.075" stroke="#263238" stroke-width="3" stroke-linecap="round" stroke-linejoin="round"/>
<path d="M69.9889 224.44C69.9889 224.44 82.0629 230.821 93.4683 230.652C105.342 230.477 114.585 224.334 114.585 224.334L115.21 230.908C115.21 230.908 94.587 239.527 69.8076 230.502L69.9889 224.44Z" fill="#B2B2B2" stroke="#263238" stroke-linejoin="round"/>
<path d="M254.875 36.9258H238.239C237.138 36.9258 236.083 37.363 235.304 38.1412C234.526 38.9194 234.089 39.9749 234.089 41.0755V52.1746C234.089 53.2752 234.526 54.3307 235.304 55.1089C236.083 55.8871 237.138 56.3243 238.239 56.3243H240.376L237.62 61.8301L245.119 56.3243H254.875C255.975 56.3243 257.031 55.8871 257.809 55.1089C258.587 54.3307 259.024 53.2752 259.024 52.1746V41.0755C259.024 39.9749 258.587 38.9194 257.809 38.1412C257.031 37.363 255.975 36.9258 254.875 36.9258Z" fill="white" stroke="#263238" stroke-linejoin="round"/>
<path d="M241.257 47.8369C241.927 47.8369 242.47 47.2941 242.47 46.6245C242.47 45.9549 241.927 45.4121 241.257 45.4121C240.588 45.4121 240.045 45.9549 240.045 46.6245C240.045 47.2941 240.588 47.8369 241.257 47.8369Z" fill="#263238" stroke="#263238" stroke-linejoin="round"/>
<path d="M246.544 47.8369C247.214 47.8369 247.757 47.2941 247.757 46.6245C247.757 45.9549 247.214 45.4121 246.544 45.4121C245.875 45.4121 245.332 45.9549 245.332 46.6245C245.332 47.2941 245.875 47.8369 246.544 47.8369Z" fill="#263238" stroke="#263238" stroke-linejoin="round"/>
<path d="M251.837 47.8369C252.507 47.8369 253.05 47.2941 253.05 46.6245C253.05 45.9549 252.507 45.4121 251.837 45.4121C251.168 45.4121 250.625 45.9549 250.625 46.6245C250.625 47.2941 251.168 47.8369 251.837 47.8369Z" fill="#263238" stroke="#263238" stroke-linejoin="round"/>
</svg>
