<svg width="17" height="23" viewBox="0 0 17 23" fill="none" xmlns="http://www.w3.org/2000/svg">
<path d="M3.12605 9.50391V21.1967C3.12444 21.3367 3.15084 21.4757 3.2037 21.6053C3.25655 21.735 3.33479 21.8529 3.43381 21.9519C3.53284 22.0509 3.65066 22.1292 3.78035 22.182C3.91004 22.2349 4.04899 22.2613 4.18902 22.2597C4.32906 22.2613 4.46801 22.2349 4.5977 22.182C4.72739 22.1292 4.84521 22.0509 4.94423 21.9519C5.04326 21.8529 5.1215 21.735 5.17435 21.6053C5.22721 21.4757 5.25361 21.3367 5.252 21.1967" stroke="#757070" stroke-width="1.25" stroke-miterlimit="10" stroke-linecap="round"/>
<path d="M5.25202 15.1731V21.1967C5.25042 21.3367 5.27682 21.4757 5.32967 21.6053C5.38252 21.735 5.46076 21.8529 5.55979 21.9519C5.65882 22.0509 5.77664 22.1292 5.90633 22.182C6.03602 22.2349 6.17496 22.2613 6.315 22.2597C6.45504 22.2613 6.59398 22.2349 6.72367 22.182C6.85336 22.1292 6.97118 22.0509 7.07021 21.9519C7.16924 21.8529 7.24748 21.735 7.30033 21.6053C7.35318 21.4757 7.37958 21.3367 7.37798 21.1967V9.50391" stroke="#757070" stroke-width="1.25" stroke-miterlimit="10" stroke-linecap="round"/>
<path d="M3.12603 8.79588V12.6935C3.12769 12.8335 3.10134 12.9725 3.04851 13.1022C2.99567 13.2319 2.91744 13.3498 2.8184 13.4488C2.71936 13.5479 2.60151 13.6261 2.4718 13.6789C2.34208 13.7318 2.20311 13.7581 2.06305 13.7564C1.923 13.7581 1.78403 13.7318 1.65431 13.6789C1.52459 13.6261 1.40675 13.5479 1.30771 13.4488C1.20867 13.3498 1.13043 13.2319 1.0776 13.1022C1.02477 12.9725 0.998411 12.8335 1.00007 12.6935V8.79588C1.00007 8.23204 1.22406 7.69129 1.62275 7.2926C2.02145 6.89391 2.56219 6.66992 3.12603 6.66992H7.37795C7.94179 6.66992 8.48253 6.89391 8.88123 7.2926C9.27992 7.69129 9.50391 8.23204 9.50391 8.79588V12.6935C9.50557 12.8335 9.47921 12.9725 9.42638 13.1022C9.37355 13.2319 9.29531 13.3498 9.19627 13.4488C9.09723 13.5479 8.97939 13.6261 8.84967 13.6789C8.71995 13.7318 8.58098 13.7581 8.44093 13.7564C8.30087 13.7581 8.1619 13.7318 8.03218 13.6789C7.90246 13.6261 7.78462 13.5479 7.68558 13.4488C7.58654 13.3498 7.5083 13.2319 7.45547 13.1022C7.40264 12.9725 7.37628 12.8335 7.37795 12.6935V8.79588" stroke="#757070" stroke-width="1.25" stroke-miterlimit="10" stroke-linecap="round"/>
<path d="M5.2521 4.54326C6.23055 4.54326 7.02373 3.75008 7.02373 2.77163C7.02373 1.79319 6.23055 1 5.2521 1C4.27366 1 3.48047 1.79319 3.48047 2.77163C3.48047 3.75008 4.27366 4.54326 5.2521 4.54326Z" stroke="#757070" stroke-width="1.25" stroke-miterlimit="10" stroke-linecap="round"/>
<path d="M9.62214 9.50391V21.1967C9.62054 21.3367 9.64694 21.4757 9.69979 21.6053C9.75264 21.735 9.83088 21.8529 9.92991 21.9519C10.0289 22.0509 10.1468 22.1292 10.2764 22.182C10.4061 22.2349 10.5451 22.2613 10.6851 22.2597C10.8252 22.2613 10.9641 22.2349 11.0938 22.182C11.2235 22.1292 11.3413 22.0509 11.4403 21.9519C11.5394 21.8529 11.6176 21.735 11.6704 21.6053C11.7233 21.4757 11.7497 21.3367 11.7481 21.1967" stroke="#757070" stroke-width="1.25" stroke-miterlimit="10" stroke-linecap="round"/>
<path d="M11.7481 15.1731V21.1967C11.7465 21.3367 11.7729 21.4757 11.8258 21.6053C11.8786 21.735 11.9569 21.8529 12.0559 21.9519C12.1549 22.0509 12.2727 22.1292 12.4024 22.182C12.5321 22.2349 12.6711 22.2613 12.8111 22.2597C12.9511 22.2613 13.0901 22.2349 13.2198 22.182C13.3495 22.1292 13.4673 22.0509 13.5663 21.9519C13.6653 21.8529 13.7436 21.735 13.7964 21.6053C13.8493 21.4757 13.8757 21.3367 13.8741 21.1967V9.50391" stroke="#757070" stroke-width="1.25" stroke-miterlimit="10" stroke-linecap="round"/>
<path d="M9.62213 8.79588V12.6935C9.62379 12.8335 9.59743 12.9725 9.5446 13.1022C9.49177 13.2319 9.41353 13.3498 9.31449 13.4488C9.21545 13.5479 9.09761 13.6261 8.96789 13.6789C8.83817 13.7318 8.6992 13.7581 8.55915 13.7564C8.41909 13.7581 8.28012 13.7318 8.1504 13.6789C8.02068 13.6261 7.90284 13.5479 7.8038 13.4488C7.70476 13.3498 7.62653 13.2319 7.57369 13.1022C7.52086 12.9725 7.4945 12.8335 7.49617 12.6935V8.79588C7.49617 8.23204 7.72015 7.69129 8.11885 7.2926C8.51754 6.89391 9.05829 6.66992 9.62213 6.66992H13.874C14.4379 6.66992 14.9786 6.89391 15.3773 7.2926C15.776 7.69129 16 8.23204 16 8.79588V12.6935C16.0017 12.8335 15.9753 12.9725 15.9225 13.1022C15.8696 13.2319 15.7914 13.3498 15.6924 13.4488C15.5933 13.5479 15.4755 13.6261 15.3458 13.6789C15.216 13.7318 15.0771 13.7581 14.937 13.7564C14.797 13.7581 14.658 13.7318 14.5283 13.6789C14.3986 13.6261 14.2807 13.5479 14.1817 13.4488C14.0826 13.3498 14.0044 13.2319 13.9516 13.1022C13.8987 12.9725 13.8724 12.8335 13.874 12.6935V8.79588" stroke="#757070" stroke-width="1.25" stroke-miterlimit="10" stroke-linecap="round"/>
<path d="M11.7482 4.54326C12.7266 4.54326 13.5198 3.75008 13.5198 2.77163C13.5198 1.79319 12.7266 1 11.7482 1C10.7697 1 9.97656 1.79319 9.97656 2.77163C9.97656 3.75008 10.7697 4.54326 11.7482 4.54326Z" stroke="#757070" stroke-width="1.25" stroke-miterlimit="10" stroke-linecap="round"/>
</svg>
