<svg width="21" height="21" viewBox="0 0 21 21" fill="none" xmlns="http://www.w3.org/2000/svg">
<path d="M7.7 17.5V18.2C7.51435 18.2 7.3363 18.1263 7.20502 17.995C7.07375 17.8637 7 17.6857 7 17.5H7.7ZM13.3 17.5H14C14 17.6857 13.9262 17.8637 13.795 17.995C13.6637 18.1263 13.4857 18.2 13.3 18.2V17.5ZM12.6 21H8.4V19.6H12.6V21ZM15.988 8.96L16.002 9.058L14.616 9.254L14.6006 9.156L15.988 8.96ZM10.5 4.2C11.8346 4.19978 13.1244 4.68109 14.1326 5.55553C15.1407 6.42997 15.7996 7.63881 15.988 8.96L14.6006 9.156C14.4594 8.1688 13.9682 7.26566 13.2147 6.61243C12.4611 5.95921 11.4973 5.59972 10.5 5.6V4.2ZM5.012 8.96C5.20044 7.63881 5.85925 6.42997 6.86743 5.55553C7.8756 4.68109 9.16544 4.19978 10.5 4.2V5.6C9.50283 5.60002 8.5391 5.9596 7.78563 6.61278C7.03217 7.26595 6.53949 8.16892 6.398 9.156L5.012 8.96ZM4.998 9.058L5.012 8.96L6.398 9.156L6.3854 9.254L4.998 9.058ZM6.104 13.2426C5.222 12.103 4.7768 10.619 4.998 9.058L6.384 9.2554C6.30382 9.80592 6.33565 10.367 6.47759 10.9049C6.61953 11.4428 6.86864 11.9465 7.21 12.3858L6.104 13.2426ZM8.4 15.26V17.5H7V15.2614H8.4V15.26ZM7.7 16.8H13.3V18.2H7.7V16.8ZM12.6 17.5V15.2614H14V17.5H12.6ZM16.002 9.058C16.1084 9.79403 16.0653 10.544 15.8753 11.263C15.6853 11.982 15.3522 12.6553 14.896 13.2426L13.7886 12.3858C14.13 11.9465 14.3805 11.4428 14.5224 10.9049C14.6643 10.367 14.6962 9.80452 14.616 9.254L16.002 9.058ZM12.6 15.26C12.6 14.1078 13.2132 13.1278 13.79 12.3844L14.896 13.2426C14.3598 13.9356 14 14.5964 14 15.26H12.6ZM7.21 12.3844C7.7882 13.1292 8.4 14.1078 8.4 15.26H7C7 14.5964 6.6402 13.9356 6.104 13.2426L7.21 12.3844ZM11.2 0V2.8H9.8V0H11.2ZM21 11.2H18.2V9.8H21V11.2ZM2.8 11.2H0V9.8H2.8V11.2ZM16.3044 5.1044L18.4044 3.0044L19.3956 3.9956L17.2956 6.0956L16.3044 5.1044ZM3.7044 6.0956L1.6044 3.9956L2.5956 3.0044L4.6956 5.1044L3.7044 6.0956Z" fill="#757070"/>
</svg>
