<svg width="32" height="32" viewBox="0 0 32 32" fill="none" xmlns="http://www.w3.org/2000/svg">
<path d="M21.8549 9.78146H10.7887C8.90824 9.78146 7.38379 11.3059 7.38379 13.1864V21.6988C7.38379 23.5793 8.90824 25.1038 10.7887 25.1038H21.8549C23.7354 25.1038 25.2598 23.5793 25.2598 21.6988V13.1864C25.2598 11.3059 23.7354 9.78146 21.8549 9.78146ZM10.7887 11.4839H21.8549C22.7951 11.4839 23.5573 12.2462 23.5573 13.1864V21.6988C23.5573 22.6391 22.7951 23.4013 21.8549 23.4013H10.7887C9.84849 23.4013 9.08627 22.6391 9.08627 21.6988V13.1864C9.08627 12.2462 9.84849 11.4839 10.7887 11.4839Z" fill="#B5C0CA"/>
<path d="M13.3424 18.861C12.8742 18.861 12.4911 19.2441 12.4911 19.7123C12.4911 20.1804 12.8742 20.5635 13.3424 20.5635C13.8105 20.5635 14.1936 20.1804 14.1936 19.7123C14.1936 19.2441 13.8105 18.861 13.3424 18.861Z" fill="#E7D1D2"/>
<path d="M15.5768 19.3719C15.2842 19.3719 15.0448 19.5634 15.0448 19.7975C15.0448 20.0316 15.2842 20.2231 15.5768 20.2231H19.6202C19.9128 20.2231 20.1522 20.0316 20.1522 19.7975C20.1522 19.5634 19.9128 19.3719 19.6202 19.3719H15.5768Z" fill="#E7D1D2"/>
<path d="M21.8549 9.55468H10.7887C8.90824 9.55468 7.38379 11.0791 7.38379 12.9596V16.5916H25.2598V12.9596C25.2598 11.0791 23.7354 9.55468 21.8549 9.55468ZM21.8549 11.2572L21.9819 11.2618C22.8628 11.3268 23.5573 12.0621 23.5573 12.9596V14.8891H9.08627V12.9596C9.08627 12.0194 9.84849 11.2572 10.7887 11.2572H21.8549Z" fill="#B5C0CA"/>
<path d="M13.0022 7.63928C13.3916 7.63928 13.7118 7.93517 13.7503 8.31433L13.7542 8.39121V12.0459C13.7542 12.4611 13.4175 12.7978 13.0022 12.7978C12.6129 12.7978 12.2927 12.5019 12.2542 12.1227L12.2503 12.0459V8.39121C12.2503 7.97593 12.587 7.63928 13.0022 7.63928Z" fill="#B5C0CA"/>
<path d="M19.6415 7.63928C20.0309 7.63928 20.3511 7.93517 20.3896 8.31433L20.3935 8.39121V12.0459C20.3935 12.4611 20.0568 12.7978 19.6415 12.7978C19.2522 12.7978 18.932 12.5019 18.8935 12.1227L18.8896 12.0459V8.39121C18.8896 7.97593 19.2263 7.63928 19.6415 7.63928Z" fill="#B5C0CA"/>
</svg>
