<svg width="32" height="32" viewBox="0 0 32 32" fill="none" xmlns="http://www.w3.org/2000/svg">
<path d="M21.8549 9.78085H10.7887C8.90824 9.78085 7.38379 11.3053 7.38379 13.1858V21.6982C7.38379 23.5787 8.90824 25.1032 10.7887 25.1032H21.8549C23.7354 25.1032 25.2598 23.5787 25.2598 21.6982V13.1858C25.2598 11.3053 23.7354 9.78085 21.8549 9.78085ZM10.7887 11.4833H21.8549C22.7951 11.4833 23.5573 12.2456 23.5573 13.1858V21.6982C23.5573 22.6385 22.7951 23.4007 21.8549 23.4007H10.7887C9.84849 23.4007 9.08627 22.6385 9.08627 21.6982V13.1858C9.08627 12.2456 9.84849 11.4833 10.7887 11.4833Z" fill="#0057A8"/>
<path d="M13.3424 18.8604C12.8742 18.8604 12.4911 19.2435 12.4911 19.7116C12.4911 20.1798 12.8742 20.5629 13.3424 20.5629C13.8105 20.5629 14.1936 20.1798 14.1936 19.7116C14.1936 19.2435 13.8105 18.8604 13.3424 18.8604Z" fill="#E01F27"/>
<path d="M15.5768 19.3713C15.2842 19.3713 15.0448 19.5628 15.0448 19.7969C15.0448 20.031 15.2842 20.2225 15.5768 20.2225H19.6202C19.9128 20.2225 20.1522 20.031 20.1522 19.7969C20.1522 19.5628 19.9128 19.3713 19.6202 19.3713H15.5768Z" fill="#E01F27"/>
<path d="M21.8549 9.55407H10.7887C8.90824 9.55407 7.38379 11.0785 7.38379 12.959V16.591H25.2598V12.959C25.2598 11.0785 23.7354 9.55407 21.8549 9.55407ZM21.8549 11.2566L21.9819 11.2612C22.8628 11.3262 23.5573 12.0615 23.5573 12.959V14.8885H9.08627V12.959C9.08627 12.0188 9.84849 11.2566 10.7887 11.2566H21.8549Z" fill="#0057A8"/>
<path d="M13.0022 7.63867C13.3916 7.63867 13.7118 7.93456 13.7503 8.31372L13.7542 8.3906V12.0453C13.7542 12.4605 13.4175 12.7972 13.0022 12.7972C12.6129 12.7972 12.2927 12.5013 12.2542 12.1221L12.2503 12.0453V8.3906C12.2503 7.97532 12.587 7.63867 13.0022 7.63867Z" fill="#0057A8"/>
<path d="M19.6415 7.63867C20.0309 7.63867 20.3511 7.93456 20.3896 8.31372L20.3935 8.3906V12.0453C20.3935 12.4605 20.0568 12.7972 19.6415 12.7972C19.2522 12.7972 18.932 12.5013 18.8935 12.1221L18.8896 12.0453V8.3906C18.8896 7.97532 19.2263 7.63867 19.6415 7.63867Z" fill="#0057A8"/>
</svg>
