<svg width="32" height="32" viewBox="0 0 32 32" fill="none" xmlns="http://www.w3.org/2000/svg">
<path d="M11.1857 9H20.887C21.6513 9 22.2729 9.62158 22.2729 10.3859V19.3943C22.2729 20.1586 21.6513 20.7802 20.887 20.7802H18.1152L16.0364 22.859L13.9575 20.7802H11.1857C10.4214 20.7802 9.7998 20.1586 9.7998 19.3943V10.3859C9.7998 9.62158 10.4214 9 11.1857 9Z" fill="white"/>
<path d="M17.2951 18.8719V18.8334L14.8526 15.6696C14.8782 15.6696 14.891 15.6632 14.891 15.6504C15.1122 15.6504 15.4857 15.4997 16.0114 15.1984C16.6044 14.74 16.9009 14.2688 16.9009 13.7848H17.9827C18.0084 13.7848 18.0212 13.772 18.0212 13.7463V13.3136C18.0212 13.2912 18.0084 13.2783 17.9827 13.2751H16.8576L16.8384 13.1357C16.7037 12.7286 16.5146 12.4593 16.271 12.3279V12.2895H17.9827C18.0084 12.2895 18.0212 12.2766 18.0212 12.251V11.8182C18.0212 11.7958 18.0084 11.783 17.9827 11.7798H13.4342C13.4117 11.7798 13.3989 11.7926 13.3957 11.8182V12.251C13.3957 12.2766 13.4085 12.2895 13.4342 12.2895H14.2612C14.5465 12.2895 14.8622 12.3808 15.2084 12.5635C15.4584 12.7462 15.6219 12.9834 15.6988 13.2751H13.4342C13.4117 13.2751 13.3989 13.288 13.3957 13.3136V13.7463C13.3957 13.772 13.4085 13.7848 13.4342 13.7848H15.7181V13.8425C15.7181 13.897 15.7116 13.9691 15.6988 14.0589C15.4905 14.8057 14.867 15.1792 13.8284 15.1792H13.5351V15.1984C15.4135 17.6474 16.3576 18.8719 16.3672 18.8719H17.2951Z" fill="#E01F27"/>
<path d="M15.4876 23.4077L16.0364 23.9565L16.5851 23.4077L18.4367 21.5562H20.887C22.0799 21.5562 23.0489 20.5872 23.0489 19.3943V10.3859C23.0489 9.19299 22.0799 8.22398 20.887 8.22398H11.1857C9.9928 8.22398 9.02378 9.19299 9.02378 10.3859V19.3943C9.02378 20.5872 9.9928 21.5562 11.1857 21.5562H13.6361L15.4876 23.4077Z" stroke="#0057A8" stroke-width="1.55205"/>
</svg>
