<svg width="32" height="32" viewBox="0 0 32 32" fill="none" xmlns="http://www.w3.org/2000/svg">
<path d="M17.2954 18.8719V18.8334L14.8528 15.6696C14.8785 15.6696 14.8913 15.6632 14.8913 15.6504C15.1125 15.6504 15.4859 15.4997 16.0116 15.1984C16.6046 14.74 16.9011 14.2688 16.9011 13.7848H17.983C18.0086 13.7848 18.0214 13.772 18.0214 13.7463V13.3136C18.0214 13.2912 18.0086 13.2783 17.983 13.2751H16.8578L16.8386 13.1357C16.704 12.7286 16.5149 12.4593 16.2712 12.3279V12.2895H17.983C18.0086 12.2895 18.0214 12.2766 18.0214 12.251V11.8182C18.0214 11.7958 18.0086 11.783 17.983 11.7798H13.4344C13.412 11.7798 13.3991 11.7926 13.3959 11.8182V12.251C13.3959 12.2766 13.4088 12.2895 13.4344 12.2895H14.2614C14.5467 12.2895 14.8624 12.3808 15.2086 12.5635C15.4587 12.7462 15.6221 12.9834 15.6991 13.2751H13.4344C13.412 13.2751 13.3991 13.288 13.3959 13.3136V13.7463C13.3959 13.772 13.4088 13.7848 13.4344 13.7848H15.7183V13.8425C15.7183 13.897 15.7119 13.9691 15.6991 14.0589C15.4907 14.8057 14.8673 15.1792 13.8287 15.1792H13.5354V15.1984C15.4138 17.6474 16.3578 18.8719 16.3674 18.8719H17.2954Z" fill="#E7D1D2"/>
<path d="M15.4879 23.4077L16.0366 23.9565L16.5853 23.4077L18.4369 21.5562H20.8873C22.0802 21.5562 23.0492 20.5872 23.0492 19.3943V10.3859C23.0492 9.19299 22.0802 8.22398 20.8873 8.22398H11.186C9.99304 8.22398 9.02403 9.19299 9.02403 10.3859V19.3943C9.02403 20.5872 9.99304 21.5562 11.186 21.5562H13.6363L15.4879 23.4077Z" stroke="#B5C0CA" stroke-width="1.55205"/>
</svg>
