<svg width="32" height="32" viewBox="0 0 32 32" fill="none" xmlns="http://www.w3.org/2000/svg">
<path d="M24.5435 14.8291L24.5422 14.8278L17.6068 7.48546C17.3112 7.17235 16.9182 7 16.5001 7C16.082 7 15.689 7.17235 15.3933 7.48546L8.46154 14.8241C8.4592 14.8265 8.45674 14.8291 8.45453 14.8316C7.84748 15.478 7.84851 16.5268 8.45751 17.1716C8.73575 17.4663 9.1031 17.6368 9.496 17.6548C9.51208 17.6565 9.52816 17.6573 9.54438 17.6573H9.82067V23.0606C9.82067 24.13 10.6425 25 11.6526 25H14.3659C14.6411 25 14.864 24.7638 14.864 24.4727V20.2363C14.864 19.7484 15.239 19.3515 15.6999 19.3515H17.3003C17.7612 19.3515 18.136 19.7484 18.136 20.2363V24.4727C18.136 24.7638 18.359 25 18.6341 25H21.3475C22.3577 25 23.1794 24.13 23.1794 23.0606V17.6573H23.4357C23.8536 17.6573 24.2467 17.4849 24.5426 17.1717C25.1522 16.526 25.1525 15.4753 24.5435 14.8291ZM23.8381 16.426C23.7305 16.5398 23.5876 16.6026 23.4357 16.6026H22.6813C22.4062 16.6026 22.1832 16.8387 22.1832 17.1299V23.0606C22.1832 23.5484 21.8083 23.9453 21.3475 23.9453H19.1322V20.2363C19.1322 19.1669 18.3105 18.2968 17.3003 18.2968H15.6999C14.6897 18.2968 13.8678 19.1669 13.8678 20.2363V23.9453H11.6526C11.1919 23.9453 10.8169 23.5484 10.8169 23.0606V17.1299C10.8169 16.8387 10.5939 16.6026 10.3188 16.6026H9.57733C9.56954 16.6021 9.56189 16.6016 9.55398 16.6015C9.40559 16.5988 9.2664 16.5364 9.16211 16.4259C8.94031 16.191 8.94031 15.8088 9.16211 15.5739L16.0979 8.23116C16.2053 8.11731 16.3481 8.05469 16.5001 8.05469C16.652 8.05469 16.7948 8.11731 16.9023 8.23116L23.8359 15.5717L23.8391 15.575C24.0598 15.8102 24.0594 16.1916 23.8381 16.426Z" fill="#B5C0CA" stroke="#B5C0CA" stroke-width="0.5"/>
<path d="M16.5001 10L20 14H13L16.5001 10Z" fill="#E7D1D2"/>
</svg>
