<svg width="32" height="32" viewBox="0 0 32 32" fill="none" xmlns="http://www.w3.org/2000/svg">
<path d="M19.3532 8.00049H14.2936C13.2049 8.00049 12.3224 8.88305 12.3224 9.97174V11.4121L13.6359 11.4108V12.7263L12.3224 12.7249H21.3244V11.4121V9.97174C21.3244 8.88305 20.4419 8.00049 19.3532 8.00049ZM19.3532 9.31466L19.4298 9.31908C19.7566 9.35703 20.0103 9.63477 20.0103 9.97174L20.0096 11.4108L21.3244 11.4121V12.7249H20.0096L13.6359 12.7263L13.6365 9.97174C13.6365 9.60884 13.9307 9.31466 14.2936 9.31466H19.3532Z" fill="#B5C0CA"/>
<path d="M23.4274 11.4121C22.4385 11.4121 22.1831 11.4121 21.3244 11.4121C17.5038 11.4121 14.0285 11.4121 9.62858 11.4121C8.17699 11.4121 7.00024 12.5889 7.00024 14.0404V21.8345C7.00024 23.2861 8.17699 24.4628 9.62858 24.4628H23.4274C24.879 24.4628 26.0557 23.2861 26.0557 21.8345V14.0404C26.0557 12.5889 24.879 11.4121 23.4274 11.4121ZM9.62858 12.7263H23.4274C24.1532 12.7263 24.7415 13.3147 24.7415 14.0404V21.8345C24.7415 22.5603 24.1532 23.1487 23.4274 23.1487H9.62858C8.90279 23.1487 8.31441 22.5603 8.31441 21.8345V14.0404C8.31441 13.3147 8.90279 12.7263 9.62858 12.7263Z" fill="#B5C0CA"/>
<path d="M24.7415 17.4042V18.1191H8.31441V17.4042H24.7415Z" fill="#B5C0CA"/>
<path d="M16.3798 20.0989C17.6046 20.0989 18.5975 19.1061 18.5975 17.8813C18.5975 16.6565 17.6046 15.6636 16.3798 15.6636C15.155 15.6636 14.1622 16.6565 14.1622 17.8813C14.1622 19.1061 15.155 20.0989 16.3798 20.0989Z" fill="#E7D1D2"/>
</svg>
