<svg width="32" height="32" viewBox="0 0 32 32" fill="none" xmlns="http://www.w3.org/2000/svg">
<path d="M19.3529 8H14.2934C13.2047 8 12.3221 8.88256 12.3221 9.97125V11.4116L13.6356 11.4103V12.7258L12.3221 12.7244H21.3242V11.4116V9.97125C21.3242 8.88256 20.4416 8 19.3529 8ZM19.3529 9.31417L19.4296 9.31859C19.7564 9.35655 20.01 9.63428 20.01 9.97125L20.0094 11.4103L21.3242 11.4116V12.7244H20.0094L13.6356 12.7258L13.6363 9.97125C13.6363 9.60836 13.9305 9.31417 14.2934 9.31417H19.3529Z" fill="#0057A8"/>
<path d="M23.4271 11.4116C22.4382 11.4116 22.1829 11.4116 21.3242 11.4116C17.5036 11.4116 14.0282 11.4116 9.62834 11.4116C8.17675 11.4116 7 12.5884 7 14.04V21.834C7 23.2856 8.17675 24.4623 9.62834 24.4623H23.4271C24.8787 24.4623 26.0555 23.2856 26.0555 21.834V14.04C26.0555 12.5884 24.8787 11.4116 23.4271 11.4116ZM9.62834 12.7258H23.4271C24.1529 12.7258 24.7413 13.3142 24.7413 14.04V21.834C24.7413 22.5598 24.1529 23.1482 23.4271 23.1482H9.62834C8.90254 23.1482 8.31417 22.5598 8.31417 21.834V14.04C8.31417 13.3142 8.90254 12.7258 9.62834 12.7258Z" fill="#0057A8"/>
<path d="M24.7413 17.4037V18.1186H8.31417V17.4037H24.7413Z" fill="#0057A8"/>
<path d="M16.3796 20.0984C17.6044 20.0984 18.5972 19.1056 18.5972 17.8808C18.5972 16.656 17.6044 15.6631 16.3796 15.6631C15.1548 15.6631 14.1619 16.656 14.1619 17.8808C14.1619 19.1056 15.1548 20.0984 16.3796 20.0984Z" fill="#E01F27"/>
</svg>
