<svg width="17" height="15" viewBox="0 0 17 15" fill="none" xmlns="http://www.w3.org/2000/svg">
<path d="M15.0312 2.75H12.0625V2.15625C12.0605 1.68443 11.8723 1.2325 11.5386 0.898875C11.205 0.565248 10.7531 0.376954 10.2812 0.375H6.71875C6.24693 0.376954 5.795 0.565248 5.46137 0.898875C5.12775 1.2325 4.93945 1.68443 4.9375 2.15625V2.75H1.96875C1.65381 2.75 1.35176 2.87511 1.12906 3.09781C0.906361 3.32051 0.78125 3.62256 0.78125 3.9375C0.78125 7.64748 0.78125 9.72752 0.78125 13.4375C0.78125 13.7524 0.906361 14.0545 1.12906 14.2772C1.35176 14.4999 1.65381 14.625 1.96875 14.625H15.0312C15.3462 14.625 15.6482 14.4999 15.8709 14.2772C16.0936 14.0545 16.2188 13.7524 16.2188 13.4375V3.9375C16.2188 3.62256 16.0936 3.32051 15.8709 3.09781C15.6482 2.87511 15.3462 2.75 15.0312 2.75ZM6.125 2.15625C6.125 1.99878 6.18756 1.84776 6.29891 1.73641C6.41025 1.62506 6.56128 1.5625 6.71875 1.5625H10.2812C10.4387 1.5625 10.5897 1.62506 10.7011 1.73641C10.8124 1.84776 10.875 1.99878 10.875 2.15625V2.75H6.125V2.15625ZM15.0312 3.9375V7.025C13.0277 8.1173 10.7819 8.68895 8.5 8.6875C6.21806 8.68895 3.97229 8.1173 1.96875 7.025V3.9375H15.0312ZM15.0312 13.4375H1.96875V8.36094C4.00161 9.35786 6.23585 9.8758 8.5 9.875C10.7642 9.87659 12.9987 9.35861 15.0312 8.36094V13.4375ZM7.01562 6.90625C7.01562 6.74878 7.07818 6.59775 7.18953 6.48641C7.30088 6.37506 7.4519 6.3125 7.60938 6.3125H9.39062C9.5481 6.3125 9.69912 6.37506 9.81047 6.48641C9.92182 6.59775 9.98438 6.74878 9.98438 6.90625C9.98438 7.06372 9.92182 7.21475 9.81047 7.32609C9.69912 7.43744 9.5481 7.5 9.39062 7.5H7.60938C7.4519 7.5 7.30088 7.43744 7.18953 7.32609C7.07818 7.21475 7.01562 7.06372 7.01562 6.90625Z" fill="#757070"/>
</svg>
