<svg width="26" height="20" viewBox="0 0 26 20" fill="none" xmlns="http://www.w3.org/2000/svg">
<path fill-rule="evenodd" clip-rule="evenodd" d="M7.42941 18.0939C7.42941 17.8413 7.52724 17.5991 7.70137 17.4205C7.8755 17.242 8.11168 17.1416 8.35794 17.1416H25.0715C25.3177 17.1416 25.5539 17.242 25.728 17.4205C25.9022 17.5991 26 17.8413 26 18.0939C26 18.3464 25.9022 18.5886 25.728 18.7672C25.5539 18.9458 25.3177 19.0461 25.0715 19.0461H8.35794C8.11168 19.0461 7.8755 18.9458 7.70137 18.7672C7.52724 18.5886 7.42941 18.3464 7.42941 18.0939ZM7.42941 10.4761C7.42941 10.2236 7.52724 9.98137 7.70137 9.80279C7.8755 9.62421 8.11168 9.52389 8.35794 9.52389H25.0715C25.3177 9.52389 25.5539 9.62421 25.728 9.80279C25.9022 9.98137 26 10.2236 26 10.4761C26 10.7287 25.9022 10.9709 25.728 11.1494C25.5539 11.328 25.3177 11.4283 25.0715 11.4283H8.35794C8.11168 11.4283 7.8755 11.328 7.70137 11.1494C7.52724 10.9709 7.42941 10.7287 7.42941 10.4761ZM7.42941 2.85836C7.42941 2.60581 7.52724 2.36361 7.70137 2.18504C7.8755 2.00646 8.11168 1.90614 8.35794 1.90614H25.0715C25.3177 1.90614 25.5539 2.00646 25.728 2.18504C25.9022 2.36361 26 2.60581 26 2.85836C26 3.1109 25.9022 3.3531 25.728 3.53168C25.5539 3.71025 25.3177 3.81058 25.0715 3.81058H8.35794C8.11168 3.81058 7.8755 3.71025 7.70137 3.53168C7.52724 3.3531 7.42941 3.1109 7.42941 2.85836ZM5.30122 0.27975C5.38769 0.368203 5.4563 0.473281 5.50311 0.588967C5.54991 0.704652 5.57401 0.828671 5.57401 0.953921C5.57401 1.07917 5.54991 1.20319 5.50311 1.31888C5.4563 1.43456 5.38769 1.53964 5.30122 1.62809L2.51563 4.48475C2.42938 4.57343 2.32691 4.64378 2.21411 4.69179C2.1013 4.73979 1.98037 4.7645 1.85823 4.7645C1.7361 4.7645 1.61516 4.73979 1.50236 4.69179C1.38955 4.64378 1.28709 4.57343 1.20083 4.48475L0.272304 3.53253C0.185973 3.444 0.117491 3.33889 0.0707693 3.22322C0.0240474 3.10754 1.28643e-09 2.98356 0 2.85836C-1.28643e-09 2.73315 0.0240474 2.60917 0.0707693 2.4935C0.117491 2.37783 0.185973 2.27272 0.272304 2.18419C0.358635 2.09565 0.461124 2.02543 0.573921 1.97751C0.686718 1.9296 0.807612 1.90494 0.929703 1.90494C1.05179 1.90494 1.17269 1.9296 1.28548 1.97751C1.39828 2.02543 1.50077 2.09565 1.5871 2.18419L1.85823 2.46414L3.98642 0.27975C4.07267 0.191073 4.17514 0.120718 4.28795 0.0727139C4.40075 0.0247098 4.52169 0 4.64382 0C4.76595 0 4.88689 0.0247098 4.9997 0.0727139C5.1125 0.120718 5.21497 0.191073 5.30122 0.27975ZM5.30122 7.8975C5.38769 7.98595 5.4563 8.09103 5.50311 8.20672C5.54991 8.3224 5.57401 8.44642 5.57401 8.57167C5.57401 8.69692 5.54991 8.82094 5.50311 8.93663C5.4563 9.05231 5.38769 9.15739 5.30122 9.24584L2.51563 12.1025C2.42938 12.1912 2.32691 12.2615 2.21411 12.3095C2.1013 12.3575 1.98037 12.3822 1.85823 12.3822C1.7361 12.3822 1.61516 12.3575 1.50236 12.3095C1.38955 12.2615 1.28709 12.1912 1.20083 12.1025L0.272304 11.1503C0.0979506 10.9715 0 10.729 0 10.4761C0 10.2232 0.0979506 9.98074 0.272304 9.80194C0.446657 9.62314 0.68313 9.52269 0.929703 9.52269C1.17628 9.52269 1.41275 9.62314 1.5871 9.80194L1.85823 10.0819L3.98642 7.8975C4.07267 7.80882 4.17514 7.73847 4.28795 7.69046C4.40075 7.64246 4.52169 7.61775 4.64382 7.61775C4.76595 7.61775 4.88689 7.64246 4.9997 7.69046C5.1125 7.73847 5.21497 7.80882 5.30122 7.8975ZM5.30122 15.5153C5.38769 15.6037 5.4563 15.7088 5.50311 15.8245C5.54991 15.9402 5.57401 16.0642 5.57401 16.1894C5.57401 16.3147 5.54991 16.4387 5.50311 16.5544C5.4563 16.6701 5.38769 16.7751 5.30122 16.8636L2.51563 19.7203C2.42938 19.8089 2.32691 19.8793 2.21411 19.9273C2.1013 19.9753 1.98037 20 1.85823 20C1.7361 20 1.61516 19.9753 1.50236 19.9273C1.38955 19.8793 1.28709 19.8089 1.20083 19.7203L0.272304 18.768C0.0979506 18.5892 0 18.3467 0 18.0939C0 17.841 0.0979506 17.5985 0.272304 17.4197C0.446657 17.2409 0.68313 17.1404 0.929703 17.1404C1.17628 17.1404 1.41275 17.2409 1.5871 17.4197L1.85823 17.6996L3.98642 15.5153C4.07267 15.4266 4.17514 15.3562 4.28795 15.3082C4.40075 15.2602 4.52169 15.2355 4.64382 15.2355C4.76595 15.2355 4.88689 15.2602 4.9997 15.3082C5.1125 15.3562 5.21497 15.4266 5.30122 15.5153Z" fill="#757070"/>
</svg>
