<svg width="23" height="22" viewBox="0 0 23 22" fill="none" xmlns="http://www.w3.org/2000/svg">
<path fill-rule="evenodd" clip-rule="evenodd" d="M11.8208 4.2581C13.1065 4.2581 14.1749 3.30676 14.1749 2.12905C14.1749 0.966248 13.1065 0 11.8208 0C10.5187 0 9.4668 0.966248 9.4668 2.12905C9.46621 3.30729 10.5187 4.2581 11.8208 4.2581Z" fill="#DB4C77"/>
<path d="M3.70676 9.07422H4.19088C9.29946 9.07422 14.3244 9.07422 19.4495 9.07422H19.9171C20.3682 9.07422 20.3847 9.73898 19.9171 9.73898H19.4495H18.1974V11.2187V11.6411C18.1974 12.0491 17.4464 12.064 17.4464 11.6411V11.2187V9.73898H13.9404H13.8909H9.73351H9.68345H6.17741V11.2187V11.6411C6.17741 12.0491 5.44299 12.064 5.44299 11.6411V11.2187V9.73898H4.19088H3.70676C3.25621 9.73898 3.2727 9.07422 3.70676 9.07422Z" fill="#0E559C" stroke="white" stroke-width="0.402957" stroke-miterlimit="10"/>
<path fill-rule="evenodd" clip-rule="evenodd" d="M11.8208 16.9722C13.1065 16.9722 14.1749 16.006 14.1749 14.8426C14.1749 13.6649 13.1065 12.6992 11.8208 12.6992C10.5187 12.6992 9.4668 13.6649 9.4668 14.8426C9.46621 16.0054 10.5187 16.9722 11.8208 16.9722Z" fill="#DB4C77"/>
<path fill-rule="evenodd" clip-rule="evenodd" d="M19.4331 16.9722C20.7353 16.9722 21.8037 16.006 21.8037 14.8426C21.8037 13.6649 20.7353 12.6992 19.4331 12.6992C18.1475 12.6992 17.0791 13.6649 17.0791 14.8426C17.0791 16.0054 18.1481 16.9722 19.4331 16.9722Z" fill="#DB4C77"/>
<path fill-rule="evenodd" clip-rule="evenodd" d="M4.19096 16.9722C5.49313 16.9722 6.545 16.006 6.545 14.8426C6.545 13.6649 5.49313 12.6992 4.19096 12.6992C2.88878 12.6992 1.83691 13.6649 1.83691 14.8426C1.83691 16.0054 2.88878 16.9722 4.19096 16.9722Z" fill="#DB4C77"/>
<path fill-rule="evenodd" clip-rule="evenodd" d="M5.86048 18.043H2.50463C2.08765 18.043 1.68657 18.1937 1.41978 18.451C1.1359 18.7077 0.952148 19.0699 0.952148 19.4476V21.9996H1.68716H1.73722H6.64497H6.69503H7.42945V19.4476C7.42945 19.0699 7.2457 18.7077 6.96183 18.451C6.67854 18.1942 6.29454 18.043 5.86048 18.043Z" fill="#0E559C"/>
<path fill-rule="evenodd" clip-rule="evenodd" d="M13.4898 18.043H10.1345C9.71694 18.043 9.31646 18.1937 9.03258 18.451C8.74871 18.7083 8.58203 19.0699 8.58203 19.4476V21.9996H9.31646H9.36652H14.2584H14.3249H15.0428V19.4476C15.0428 19.0699 14.8762 18.7077 14.5917 18.451C14.3078 18.1942 13.9244 18.043 13.4898 18.043Z" fill="#0E559C"/>
<path fill-rule="evenodd" clip-rule="evenodd" d="M21.1199 18.043H17.764C17.3299 18.043 16.9454 18.1937 16.6621 18.451C16.3782 18.7077 16.2109 19.0699 16.2109 19.4476V21.9996H16.9289H16.9954H21.8873H21.9538H22.6718V19.4476C22.6718 19.0699 22.5051 18.7077 22.2212 18.451C21.9373 18.1942 21.5539 18.043 21.1199 18.043Z" fill="#0E559C"/>
<path d="M8.58154 9.01503V8.90956V6.52324C8.58154 6.14611 8.74822 5.78337 9.03209 5.54207C9.31597 5.28533 9.71646 5.11914 10.134 5.11914H13.4893C13.9239 5.11914 14.3079 5.28533 14.5912 5.54207C14.8751 5.78337 15.0424 6.14611 15.0424 6.52324V8.96922V9.01449L8.58154 9.01503Z" fill="#0E559C"/>
<path fill-rule="evenodd" clip-rule="evenodd" d="M13.1225 5.20898H10.5182C10.4681 5.20898 10.4181 5.23935 10.401 5.28464C10.3845 5.315 10.401 5.36029 10.4346 5.39012L11.1354 6.03957C11.1855 6.06994 11.252 6.06994 11.3021 6.03957L11.7361 5.64692C11.7697 5.60163 11.8528 5.60163 11.9028 5.64692L12.3369 6.03957C12.3704 6.06994 12.4535 6.06994 12.4871 6.03957L13.205 5.39012C13.2392 5.35976 13.2392 5.31447 13.2215 5.28464C13.2062 5.23935 13.1726 5.20898 13.1225 5.20898Z" fill="white"/>
</svg>
