<svg width="25" height="23" viewBox="0 0 25 23" fill="none" xmlns="http://www.w3.org/2000/svg">
<path d="M6.41696 14.6319C6.02138 13.5956 5.91214 12.3617 6.185 11.301C6.44439 10.2769 7.00358 9.30239 7.89002 8.50025L9.49976 6.95819C9.32218 6.89639 9.17252 6.79759 9.03585 6.67441C8.76298 6.42763 8.59936 6.09424 8.59936 5.73647C8.59936 5.36652 8.76298 5.03312 9.03585 4.79896C9.19947 4.65098 9.40399 4.53999 9.62247 4.466C8.73603 3.52849 8.44922 2.78815 8.49012 2.26978C8.51755 1.97382 8.65374 1.72703 8.84479 1.55424C9.03585 1.38189 9.29523 1.27047 9.56761 1.23347C9.85395 1.19648 10.1677 1.23347 10.468 1.33227C10.5633 1.04849 10.7134 0.789526 10.918 0.57974C11.2592 0.221973 11.7365 0 12.2548 0C12.7866 0 13.2645 0.221973 13.6052 0.57974C13.8102 0.789526 13.9599 1.04849 14.0556 1.34446C14.3559 1.23347 14.6836 1.19648 14.9695 1.24566C15.2424 1.28265 15.4878 1.39364 15.6928 1.56643C15.8834 1.73922 16.02 1.986 16.047 2.28197C16.0884 2.81252 15.8155 3.54068 14.9421 4.47819C15.1605 4.53999 15.3516 4.65098 15.5147 4.79896C15.7741 5.03356 15.9512 5.36652 15.9512 5.73647C15.9512 6.09424 15.7741 6.4272 15.5147 6.67441C15.392 6.7854 15.2424 6.88376 15.0787 6.946L16.6606 8.50025C17.766 9.49956 18.3795 10.7826 18.5027 12.0905C18.625 13.4228 18.2563 14.7799 17.3699 15.9154L16.3603 16.0878L15.8829 16.3472C15.9238 16.2732 15.9786 16.1988 16.0061 16.1248C16.1153 15.9154 16.1697 15.6804 16.1697 15.4463L16.1557 15.1129C16.1832 14.8665 16.0335 14.7303 15.7876 14.6685C8.31303 12.7691 10.1273 13.2257 9.96367 13.1887C9.71824 13.1269 9.48628 13.1025 9.24085 13.1269C9.0089 13.1517 8.77694 13.2257 8.55894 13.3488L7.05844 14.1632L7.08587 14.2372L6.41696 14.6319ZM10.1133 6.37801L10.1677 6.31621L10.2086 6.37801H14.4916C14.7784 6.37801 15.0099 6.08205 15.0513 5.81046V5.79827V5.78609V5.7739L15.0643 5.76171V5.74953V5.73691V5.72472V5.71166L15.0513 5.69947V5.68729V5.6751V5.66291C15.0099 5.39132 14.7784 5.09536 14.4916 5.09536H10.0585C9.77214 5.09536 9.54018 5.39132 9.49928 5.66291L9.4858 5.6751V5.68729V5.69947V5.71166V5.72385V5.73603V5.74866V5.76084V5.77303V5.78522V5.7974L9.49928 5.80959C9.54018 6.08118 9.77214 6.37714 10.0585 6.37714H10.1133V6.37801Z" fill="#0E559C"/>
<path fill-rule="evenodd" clip-rule="evenodd" d="M10.059 6.37879H14.4922C14.8059 6.37879 15.0648 6.08283 15.0648 5.73725C15.0648 5.37948 14.8059 5.0957 14.4922 5.0957H10.059C9.74523 5.0957 9.48633 5.37948 9.48633 5.73725C9.48633 6.08283 9.74523 6.37879 10.059 6.37879Z" fill="white"/>
<path fill-rule="evenodd" clip-rule="evenodd" d="M4.34334 15.8667L9.39055 13.214C9.52722 13.14 9.66341 13.1278 9.81356 13.1648L15.4474 14.571C16.2795 14.7804 16.1293 16.3229 14.9835 16.1253L11.1913 15.4467L15.3925 16.483C15.5427 16.52 15.6654 16.4952 15.8021 16.4461L22.1862 13.4107C23.5784 12.7448 24.833 14.2128 23.2916 15.0764L15.0383 19.7521C14.9156 19.8139 14.7929 19.8383 14.6428 19.8139L8.62731 18.8764C8.5046 18.8516 8.39584 18.8764 8.28659 18.9256L7.33182 19.37C7.09987 19.4814 6.827 19.4318 6.66338 19.2468L4.20763 16.6067C4.09839 16.4957 4.05749 16.3477 4.08492 16.1993C4.11139 16.0517 4.20667 15.9407 4.34334 15.8667Z" fill="white" stroke="#0E559C" stroke-miterlimit="10"/>
<path fill-rule="evenodd" clip-rule="evenodd" d="M3.34785 15.6186L7.26271 19.8627C7.53557 20.1591 7.49466 20.5908 7.16742 20.8376L5.85798 21.8369C5.53026 22.0833 5.0394 22.0463 4.76653 21.7503L0.851675 17.5185C0.578814 17.2225 0.619719 16.7785 0.94696 16.5313L2.2564 15.532C2.58365 15.2852 3.07499 15.3227 3.34785 15.6186Z" fill="#63AB45" stroke="#63AB45" stroke-miterlimit="10"/>
<path fill-rule="evenodd" clip-rule="evenodd" d="M2.8432 17.8035C3.11606 17.8035 3.33454 17.6058 3.33454 17.359C3.33454 17.1122 3.11606 16.9023 2.8432 16.9023C2.57033 16.9023 2.33838 17.1117 2.33838 17.359C2.33838 17.6058 2.57033 17.8035 2.8432 17.8035Z" fill="white"/>
<path fill-rule="evenodd" clip-rule="evenodd" d="M13.5923 13.83V13.8051L11.573 11.4239C11.5865 11.4239 11.6005 11.4239 11.6005 11.4118C11.791 11.4118 12.0913 11.3008 12.5283 11.0788C13.0192 10.7332 13.2646 10.3755 13.2646 10.0177H14.1645C14.1919 10.0177 14.2059 10.0055 14.2059 9.98069V9.65992C14.2059 9.63511 14.1919 9.63511 14.1645 9.62292H13.2372L13.2237 9.52412C13.1005 9.21597 12.9508 9.01837 12.7463 8.91957V8.88258H14.1645C14.1919 8.88258 14.2059 8.88258 14.2059 8.85777V8.537C14.2059 8.51219 14.1919 8.51219 14.1645 8.5H10.3858C10.3724 8.5 10.3584 8.51262 10.3584 8.537V8.85777C10.3584 8.88258 10.3719 8.88258 10.3858 8.88258H11.0817C11.3137 8.88258 11.573 8.95657 11.8594 9.09236C12.0779 9.22816 12.214 9.41313 12.2689 9.62292H10.3863C10.3728 9.62292 10.3589 9.63511 10.3589 9.65992V9.98069C10.3589 10.0055 10.3724 10.0177 10.3863 10.0177H12.2824V10.0547C12.2824 10.0917 12.2824 10.1535 12.2689 10.2153C12.1053 10.7828 11.587 11.0544 10.714 11.0544H10.4821V11.0792C12.037 12.9173 12.8146 13.8304 12.8281 13.8304L13.5923 13.83Z" fill="white"/>
</svg>
