<svg width="18" height="23" viewBox="0 0 18 23" fill="none" xmlns="http://www.w3.org/2000/svg">
<path fill-rule="evenodd" clip-rule="evenodd" d="M9.01588 10.5443C12.3712 10.5443 15.098 8.28315 15.098 5.5014C15.098 2.71965 12.3706 0.458984 9.01588 0.458984C5.66054 0.458984 2.93311 2.72017 2.93311 5.5014C2.93311 8.28263 5.65991 10.5443 9.01588 10.5443Z" fill="#FDB614"/>
<path d="M13.3395 13.0879H11.8501L9.51705 15.825C9.23031 16.1525 8.76382 16.1378 8.47645 15.7951L6.16234 13.0879H4.6907C3.57859 13.0879 2.57344 13.4599 1.83794 14.0697C1.12016 14.6648 0.671387 15.4976 0.671387 16.4201V22.4596H2.53736H2.69877H15.3302H15.4739H17.3582V16.4201C17.3582 15.4976 16.9101 14.6648 16.1739 14.0697C15.4561 13.4599 14.4516 13.0879 13.3395 13.0879Z" stroke="#0E559C" stroke-miterlimit="10"/>
<path fill-rule="evenodd" clip-rule="evenodd" d="M6.66504 19.3636L8.22593 14.3952H9.78681L11.3654 19.3636L9.01523 21.089L6.66504 19.3636ZM8.22593 12.4473H9.78681L10.5761 12.8786L9.78681 14.3952H8.22593L7.45434 12.8786L8.22593 12.4473Z" fill="#FDB614"/>
<path d="M8.22593 14.3952L6.66504 19.3636L9.01523 21.089L11.3654 19.3636L9.78681 14.3952M8.22593 14.3952H9.78681M8.22593 14.3952L7.45434 12.8786L8.22593 12.4473H9.78681L10.5761 12.8786L9.78681 14.3952" stroke="white" stroke-miterlimit="10" stroke-linecap="round" stroke-linejoin="round"/>
<path fill-rule="evenodd" clip-rule="evenodd" d="M7.47174 17.2527L7.14893 18.234L10.6657 17.6987L10.3606 16.6875L7.47174 17.2527Z" fill="white"/>
</svg>
