<svg width="31" height="29" viewBox="0 0 31 29" fill="none" xmlns="http://www.w3.org/2000/svg">
<path d="M11.3053 18.1802C11.3053 19.2655 10.9487 20.0717 10.2355 20.5988C9.53783 21.126 8.66961 21.3895 7.63085 21.3895C6.29751 21.3895 5.11146 20.8934 4.07269 19.9011C3.03393 18.9089 2.02617 17.2655 1.04942 14.9709L2.70059 14.3662C3.36726 16.0097 4.0882 17.312 4.86339 18.2732C5.63859 19.219 6.50681 19.6918 7.46806 19.6918C8.05721 19.6918 8.53783 19.5601 8.90992 19.2965C9.28202 19.0174 9.46806 18.5756 9.46806 17.9709C9.46806 17.3973 9.30527 16.8856 8.97969 16.436C8.66961 15.9864 8.26651 15.5678 7.77038 15.1802C7.35178 15.2577 6.90216 15.3042 6.42154 15.3197L6.30526 13.6918C7.35953 13.6608 8.10372 13.4748 8.53783 13.1337C8.98744 12.7926 9.21225 12.3352 9.21225 11.7616C9.21225 11.2034 9.0262 10.8003 8.65411 10.5523C8.29752 10.3042 7.87891 10.1802 7.39829 10.1802C6.82464 10.1802 6.30526 10.2577 5.84014 10.4127C5.37502 10.5678 4.8789 10.7771 4.35176 11.0406L3.77036 9.43598C4.17347 9.21893 4.66959 9.01738 5.25874 8.83133C5.8634 8.64528 6.54557 8.55226 7.30526 8.55226C8.51457 8.55226 9.43706 8.85459 10.0727 9.45924C10.7239 10.0639 11.0495 10.8236 11.0495 11.7383C11.0495 12.9476 10.5301 13.8779 9.49132 14.529C9.66186 14.6841 9.8169 14.8391 9.95644 14.9941C10.5456 15.0717 11.1192 15.1104 11.6774 15.1104C12.1735 15.1104 12.6154 15.0872 13.003 15.0407C13.3906 14.9941 13.7859 14.9166 14.189 14.8081V10.436H12.4913V8.78482H18.4914V10.436H16.0727V23.25H14.189V16.5058C13.8169 16.5988 13.4526 16.6686 13.096 16.7151C12.7394 16.7461 12.3596 16.7616 11.9564 16.7616C11.6929 16.7616 11.3595 16.7383 10.9564 16.6918C11.189 17.1569 11.3053 17.6531 11.3053 18.1802Z" fill="#0058A9"/>
<path d="M27.709 21.7842H21.2246L20.0301 25.0904H17.9824L23.3576 10.3086H25.5973L30.9511 25.0904H28.9034L27.709 21.7842ZM27.1544 20.2058L24.4668 12.6976L21.7792 20.2058H27.1544Z" fill="#0058A9"/>
</svg>
