<svg width="22" height="22" viewBox="0 0 22 22" fill="none" xmlns="http://www.w3.org/2000/svg">
<mask id="mask0_2494_609" style="mask-type:alpha" maskUnits="userSpaceOnUse" x="0" y="0" width="22" height="22">
<rect width="22" height="22" fill="#D9D9D9"/>
</mask>
<g mask="url(#mask0_2494_609)">
<path d="M3.66683 18.3327C3.16266 18.3327 2.73122 18.1533 2.3725 17.7946C2.01316 17.4353 1.8335 17.0035 1.8335 16.4993V5.49935C1.8335 4.99518 2.01316 4.56374 2.3725 4.20502C2.73122 3.84568 3.16266 3.66602 3.66683 3.66602H18.3335C18.8377 3.66602 19.2694 3.84568 19.6287 4.20502C19.9875 4.56374 20.1668 4.99518 20.1668 5.49935V16.4993C20.1668 17.0035 19.9875 17.4353 19.6287 17.7946C19.2694 18.1533 18.8377 18.3327 18.3335 18.3327H3.66683ZM11.0002 11.916L3.66683 7.33268V16.4993H18.3335V7.33268L11.0002 11.916ZM11.0002 10.0827L18.3335 5.49935H3.66683L11.0002 10.0827ZM3.66683 7.33268V5.49935V16.4993V7.33268Z" fill="#0E559C"/>
</g>
</svg>
