<svg width="40" height="40" viewBox="0 0 40 40" fill="none" xmlns="http://www.w3.org/2000/svg">
<path d="M17.4812 11.0707C15.6682 11.0727 13.9685 11.7844 12.6974 13.0761C12.6957 13.0777 12.6925 13.0791 12.6909 13.0816C11.4167 14.3551 10.7157 16.0569 10.7157 17.8731C10.7157 19.689 11.4167 21.3902 12.6909 22.6637C13.9653 23.9379 15.6665 24.6397 17.4826 24.6397C19.2989 24.6397 21.0001 23.9379 22.2743 22.6637C23.5724 21.3856 24.2843 19.6868 24.2843 17.8731C24.2843 16.0601 23.5724 14.3598 22.2792 13.0862C20.9953 11.7844 19.294 11.0707 17.4812 11.0707ZM17.4826 26.6055C15.1404 26.6055 12.9463 25.6997 11.3017 24.0537C9.65562 22.4094 8.75 20.2143 8.75 17.8731C8.75 15.5324 9.65561 13.3383 11.2986 11.6934C12.943 10.0254 15.1388 9.10547 17.4812 9.10547C17.4812 9.10547 17.4812 9.10547 17.4826 9.10547C19.8266 9.10547 22.0238 10.0254 23.6701 11.6954C25.3302 13.3321 26.25 15.5294 26.25 17.8739C26.25 20.2175 25.3302 22.4141 23.6589 24.0592C22.0192 25.6997 19.8234 26.6055 17.4826 26.6055Z" fill="#0058A9"/>
<path d="M29.0882 30.3555C28.8578 30.3555 28.6255 30.2673 28.4475 30.0898L22.7688 24.4224C22.4126 24.0654 22.4096 23.4856 22.7645 23.1266C23.1192 22.7671 23.6957 22.7648 24.0533 23.1215L29.7309 28.7889C30.0869 29.1459 30.0906 29.7257 29.7365 30.0847C29.5567 30.2652 29.3224 30.3555 29.0882 30.3555Z" fill="#0058A9"/>
</svg>
