<svg width="543" height="427" viewBox="0 0 543 427" fill="none" xmlns="http://www.w3.org/2000/svg">
<path d="M210.667 315.643C209.867 311.782 208.805 306.241 207.834 299.547C207.548 297.616 207.274 295.571 207.023 293.458C207.891 293.298 214.791 291.95 217.475 290.031C219.92 288.306 222.548 285.461 222.65 282.262C222.709 281.514 222.609 280.761 222.355 280.055C222.101 279.348 221.7 278.703 221.178 278.163C220.657 277.623 220.026 277.2 219.329 276.922C218.631 276.644 217.883 276.517 217.133 276.551C212.654 276.859 208.519 283.805 207.548 287.7C207.491 287.952 207.091 290.967 206.92 292.521C206.771 291.242 206.623 289.974 206.486 288.648C206.28 286.729 206.12 284.707 205.96 282.742C205.96 281.714 205.857 280.686 205.812 279.646C205.766 278.607 205.812 277.59 205.812 276.539C205.812 275.008 205.926 273.42 206.006 271.844C207.971 271.753 213.717 271.376 216.287 270.073C218.858 268.771 221.999 266.292 222.582 263.219C222.742 262.493 222.748 261.742 222.6 261.014C222.452 260.285 222.153 259.596 221.723 258.99C221.292 258.384 220.74 257.875 220.101 257.496C219.462 257.116 218.75 256.875 218.012 256.787C213.546 256.422 208.393 262.659 206.863 266.36C206.805 266.475 206.566 267.297 206.28 268.268C206.417 266.726 206.543 265.184 206.737 263.63C207.262 259.232 207.948 254.754 208.61 250.264C208.748 249.327 208.873 248.402 209.01 247.465C210.655 247.385 216.893 247.043 219.6 245.683C222.308 244.324 225.312 241.891 225.895 238.829C226.056 238.103 226.064 237.351 225.917 236.622C225.77 235.893 225.471 235.203 225.04 234.597C224.609 233.991 224.056 233.482 223.416 233.103C222.776 232.724 222.064 232.483 221.325 232.397C216.847 232.032 211.706 238.269 210.164 241.971C210.164 242.096 209.821 243.113 209.501 244.164C209.833 241.731 210.118 239.286 210.335 236.864C210.738 232.688 210.856 228.49 210.69 224.298C211.272 224.298 218.583 224.012 221.599 222.504C224.284 221.168 227.311 218.723 227.894 215.65C228.056 214.925 228.063 214.173 227.916 213.445C227.769 212.717 227.47 212.028 227.039 211.422C226.608 210.817 226.055 210.309 225.415 209.931C224.775 209.553 224.063 209.314 223.324 209.23C218.846 208.853 213.705 215.102 212.163 218.791C212.049 219.054 211.021 222.596 210.712 223.864C210.707 223.814 210.707 223.765 210.712 223.715C210.448 219.612 209.821 215.541 208.839 211.549C207.977 207.979 206.909 204.462 205.64 201.016C204.498 197.817 203.253 194.95 202.133 192.425C201.516 191.054 200.922 189.821 200.362 188.678H200.454C200.534 188.678 200.317 183.252 200.271 182.966C199.654 179.014 196.147 171.725 191.715 171.017C190.976 170.919 190.224 170.977 189.509 171.189C188.795 171.401 188.133 171.762 187.567 172.247C187.001 172.732 186.544 173.331 186.225 174.005C185.906 174.679 185.733 175.412 185.717 176.158C185.534 179.322 187.899 182.418 190.172 184.36C192.446 186.302 198.592 188.198 200.1 188.632C200.659 189.843 201.242 191.134 201.87 192.574C202.933 195.121 204.155 198 205.172 201.222C205.457 202.078 205.732 203.015 206.017 203.906C205.229 202.49 204.121 200.559 203.984 200.388C201.619 197.155 195.142 192.3 190.892 193.716C190.191 193.969 189.551 194.367 189.014 194.884C188.477 195.401 188.056 196.025 187.776 196.716C187.497 197.407 187.367 198.149 187.394 198.894C187.421 199.639 187.605 200.37 187.933 201.039C189.224 203.929 192.754 205.608 195.679 206.26C198.603 206.911 205.115 205.757 206.508 205.483C207.102 207.482 207.651 209.55 208.131 211.743C208.994 215.684 209.507 219.695 209.661 223.727C209.661 223.967 209.661 224.206 209.661 224.446C209.387 223.669 207.605 219.568 207.457 219.294C205.457 215.867 199.551 210.281 195.165 211.217C194.439 211.393 193.758 211.719 193.167 212.176C192.577 212.632 192.088 213.207 191.735 213.865C191.381 214.522 191.17 215.247 191.116 215.992C191.061 216.736 191.164 217.484 191.418 218.186C192.389 221.19 195.724 223.235 198.546 224.218C201.802 225.36 209.376 224.629 209.65 224.606C209.712 228.652 209.51 232.697 209.045 236.716C208.713 239.697 208.256 242.702 207.765 245.706C207.388 244.712 205.743 240.897 205.583 240.634C203.595 237.207 197.689 231.632 193.302 232.569C192.578 232.744 191.899 233.071 191.309 233.526C190.719 233.981 190.232 234.556 189.878 235.212C189.525 235.868 189.313 236.591 189.258 237.335C189.202 238.078 189.304 238.824 189.555 239.526C190.526 242.542 193.851 244.575 196.684 245.569C199.86 246.711 207.114 246.015 207.731 245.957C207.502 247.317 207.285 248.688 207.057 250.059C206.291 254.514 205.515 258.992 204.886 263.425C204.658 264.967 204.498 266.486 204.338 267.994C203.732 266.52 202.579 263.87 202.453 263.653C200.454 260.226 194.548 254.64 190.161 255.588C189.437 255.763 188.757 256.09 188.168 256.545C187.578 257 187.09 257.575 186.737 258.231C186.383 258.887 186.172 259.61 186.116 260.354C186.061 261.097 186.162 261.843 186.414 262.545C187.385 265.561 190.709 267.594 193.542 268.588C196.375 269.582 202.487 269.148 204.212 269.011C203.949 271.547 203.755 274.072 203.675 276.562C203.675 277.636 203.572 278.744 203.675 279.772C203.778 280.8 203.675 281.851 203.744 282.868C203.881 284.981 203.984 286.946 204.155 288.911C204.235 289.905 204.326 290.842 204.418 291.801C204.029 290.225 203.367 287.723 203.275 287.506C201.825 283.77 196.832 277.407 192.343 277.67C191.601 277.736 190.881 277.958 190.229 278.32C189.578 278.682 189.01 279.177 188.562 279.772C188.114 280.368 187.796 281.051 187.629 281.777C187.462 282.503 187.448 283.256 187.591 283.987C188.093 287.106 191.018 289.631 193.714 291.036C196.638 292.578 203.664 293.035 204.521 293.092C204.749 295.446 205 297.742 205.263 299.878C206.109 306.664 207.057 312.273 207.776 316.203C208.496 320.133 209.01 322.36 209.01 322.36C209.045 322.576 209.124 322.782 209.242 322.965C209.36 323.148 209.515 323.305 209.697 323.425C209.878 323.546 210.083 323.627 210.298 323.664C210.513 323.702 210.734 323.694 210.945 323.641C211.157 323.589 211.356 323.493 211.528 323.36C211.701 323.227 211.845 323.06 211.949 322.869C212.054 322.677 212.118 322.466 212.137 322.249C212.156 322.032 212.13 321.813 212.06 321.606C212.06 321.606 211.466 319.516 210.667 315.643Z" fill="#92E3A9"/>
<path d="M206.828 204.649C206.828 204.649 214.368 202.364 216.984 199.999C219.268 198.012 221.553 194.847 221.222 191.683C221.186 190.939 220.994 190.211 220.658 189.546C220.322 188.882 219.85 188.295 219.272 187.825C218.695 187.355 218.024 187.012 217.305 186.819C216.586 186.625 215.834 186.585 215.099 186.702C210.689 187.524 207.365 194.904 206.862 198.88C206.816 199.222 206.748 204.672 206.828 204.649Z" fill="#92E3A9"/>
<g opacity="0.1">
<path d="M210.667 315.643C209.867 311.782 208.805 306.241 207.834 299.547C207.548 297.616 207.274 295.571 207.023 293.458C207.891 293.298 214.791 291.95 217.475 290.031C219.92 288.306 222.548 285.461 222.65 282.262C222.709 281.514 222.609 280.761 222.355 280.055C222.101 279.348 221.7 278.703 221.178 278.163C220.657 277.623 220.026 277.2 219.329 276.922C218.631 276.644 217.883 276.517 217.133 276.551C212.654 276.859 208.519 283.805 207.548 287.7C207.491 287.952 207.091 290.967 206.92 292.521C206.771 291.242 206.623 289.974 206.486 288.648C206.28 286.729 206.12 284.707 205.96 282.742C205.96 281.714 205.857 280.686 205.812 279.646C205.766 278.607 205.812 277.59 205.812 276.539C205.812 275.008 205.926 273.42 206.006 271.844C207.971 271.753 213.717 271.376 216.287 270.073C218.858 268.771 221.999 266.292 222.582 263.219C222.742 262.493 222.748 261.742 222.6 261.014C222.452 260.285 222.153 259.596 221.723 258.99C221.292 258.384 220.74 257.875 220.101 257.496C219.462 257.116 218.75 256.875 218.012 256.787C213.546 256.422 208.393 262.659 206.863 266.36C206.805 266.475 206.566 267.297 206.28 268.268C206.417 266.726 206.543 265.184 206.737 263.63C207.262 259.232 207.948 254.754 208.61 250.264C208.748 249.327 208.873 248.402 209.01 247.465C210.655 247.385 216.893 247.043 219.6 245.683C222.308 244.324 225.312 241.891 225.895 238.829C226.056 238.103 226.064 237.351 225.917 236.622C225.77 235.893 225.471 235.203 225.04 234.597C224.609 233.991 224.056 233.482 223.416 233.103C222.776 232.724 222.064 232.483 221.325 232.397C216.847 232.032 211.706 238.269 210.164 241.971C210.164 242.096 209.821 243.113 209.501 244.164C209.833 241.731 210.118 239.286 210.335 236.864C210.738 232.688 210.856 228.49 210.69 224.298C211.272 224.298 218.583 224.012 221.599 222.504C224.284 221.168 227.311 218.723 227.894 215.65C228.056 214.925 228.063 214.173 227.916 213.445C227.769 212.717 227.47 212.028 227.039 211.422C226.608 210.817 226.055 210.309 225.415 209.931C224.775 209.553 224.063 209.314 223.324 209.23C218.846 208.853 213.705 215.102 212.163 218.791C212.049 219.054 211.021 222.596 210.712 223.864C210.707 223.814 210.707 223.765 210.712 223.715C210.448 219.612 209.821 215.541 208.839 211.549C207.977 207.979 206.909 204.462 205.64 201.016C204.498 197.817 203.253 194.95 202.133 192.425C201.516 191.054 200.922 189.821 200.362 188.678H200.454C200.534 188.678 200.317 183.252 200.271 182.966C199.654 179.014 196.147 171.725 191.715 171.017C190.976 170.919 190.224 170.977 189.509 171.189C188.795 171.401 188.133 171.762 187.567 172.247C187.001 172.732 186.544 173.331 186.225 174.005C185.906 174.679 185.733 175.412 185.717 176.158C185.534 179.322 187.899 182.418 190.172 184.36C192.446 186.302 198.592 188.198 200.1 188.632C200.659 189.843 201.242 191.134 201.87 192.574C202.933 195.121 204.155 198 205.172 201.222C205.457 202.078 205.732 203.015 206.017 203.906C205.229 202.49 204.121 200.559 203.984 200.388C201.619 197.155 195.142 192.3 190.892 193.716C190.191 193.969 189.551 194.367 189.014 194.884C188.477 195.401 188.056 196.025 187.776 196.716C187.497 197.407 187.367 198.149 187.394 198.894C187.421 199.639 187.605 200.37 187.933 201.039C189.224 203.929 192.754 205.608 195.679 206.26C198.603 206.911 205.115 205.757 206.508 205.483C207.102 207.482 207.651 209.55 208.131 211.743C208.994 215.684 209.507 219.695 209.661 223.727C209.661 223.967 209.661 224.206 209.661 224.446C209.387 223.669 207.605 219.568 207.457 219.294C205.457 215.867 199.551 210.281 195.165 211.217C194.439 211.393 193.758 211.719 193.167 212.176C192.577 212.632 192.088 213.207 191.735 213.865C191.381 214.522 191.17 215.247 191.116 215.992C191.061 216.736 191.164 217.484 191.418 218.186C192.389 221.19 195.724 223.235 198.546 224.218C201.802 225.36 209.376 224.629 209.65 224.606C209.712 228.652 209.51 232.697 209.045 236.716C208.713 239.697 208.256 242.702 207.765 245.706C207.388 244.712 205.743 240.897 205.583 240.634C203.595 237.207 197.689 231.632 193.302 232.569C192.578 232.744 191.899 233.071 191.309 233.526C190.719 233.981 190.232 234.556 189.878 235.212C189.525 235.868 189.313 236.591 189.258 237.335C189.202 238.078 189.304 238.824 189.555 239.526C190.526 242.542 193.851 244.575 196.684 245.569C199.86 246.711 207.114 246.015 207.731 245.957C207.502 247.317 207.285 248.688 207.057 250.059C206.291 254.514 205.515 258.992 204.886 263.425C204.658 264.967 204.498 266.486 204.338 267.994C203.732 266.52 202.579 263.87 202.453 263.653C200.454 260.226 194.548 254.64 190.161 255.588C189.437 255.763 188.757 256.09 188.168 256.545C187.578 257 187.09 257.575 186.737 258.231C186.383 258.887 186.172 259.61 186.116 260.354C186.061 261.097 186.162 261.843 186.414 262.545C187.385 265.561 190.709 267.594 193.542 268.588C196.375 269.582 202.487 269.148 204.212 269.011C203.949 271.547 203.755 274.072 203.675 276.562C203.675 277.636 203.572 278.744 203.675 279.772C203.778 280.8 203.675 281.851 203.744 282.868C203.881 284.981 203.984 286.946 204.155 288.911C204.235 289.905 204.326 290.842 204.418 291.801C204.029 290.225 203.367 287.723 203.275 287.506C201.825 283.77 196.832 277.407 192.343 277.67C191.601 277.736 190.881 277.958 190.229 278.32C189.578 278.682 189.01 279.177 188.562 279.772C188.114 280.368 187.796 281.051 187.629 281.777C187.462 282.503 187.448 283.256 187.591 283.987C188.093 287.106 191.018 289.631 193.714 291.036C196.638 292.578 203.664 293.035 204.521 293.092C204.749 295.446 205 297.742 205.263 299.878C206.109 306.664 207.057 312.273 207.776 316.203C208.496 320.133 209.01 322.36 209.01 322.36C209.045 322.576 209.124 322.782 209.242 322.965C209.36 323.148 209.515 323.305 209.697 323.425C209.878 323.546 210.083 323.627 210.298 323.664C210.513 323.702 210.734 323.694 210.945 323.641C211.157 323.589 211.356 323.493 211.528 323.36C211.701 323.227 211.845 323.06 211.949 322.869C212.054 322.677 212.118 322.466 212.137 322.249C212.156 322.032 212.13 321.813 212.06 321.606C212.06 321.606 211.466 319.516 210.667 315.643Z" fill="black"/>
<path d="M206.828 204.649C206.828 204.649 214.368 202.364 216.984 199.999C219.268 198.012 221.553 194.847 221.222 191.683C221.186 190.939 220.994 190.211 220.658 189.546C220.322 188.882 219.85 188.295 219.272 187.825C218.695 187.355 218.024 187.012 217.305 186.819C216.586 186.625 215.834 186.585 215.099 186.702C210.689 187.524 207.365 194.904 206.862 198.88C206.816 199.222 206.748 204.672 206.828 204.649Z" fill="black"/>
</g>
<path d="M480.544 325.285L464.607 311.496" stroke="white" stroke-width="0.910297" stroke-miterlimit="10"/>
<path d="M480.887 346.704L500.422 318.145" stroke="white" stroke-width="0.910297" stroke-miterlimit="10"/>
<path d="M480.693 359.055L457.16 338.24" stroke="white" stroke-width="0.910297" stroke-miterlimit="10"/>
<path d="M481.012 375.687L504.111 354.918" stroke="white" stroke-width="0.910297" stroke-miterlimit="10"/>
<path d="M481.069 390.047L462.871 375.768" stroke="white" stroke-width="0.910297" stroke-miterlimit="10"/>
<path d="M437.876 380.371L425.652 380.52" stroke="white" stroke-width="0.910297" stroke-miterlimit="10"/>
<path d="M446.261 389.533L443.748 369.633" stroke="white" stroke-width="0.910297" stroke-miterlimit="10"/>
<path d="M450.921 394.971L432.711 394.994" stroke="white" stroke-width="0.910297" stroke-miterlimit="10"/>
<path d="M457.467 402.054L459.5 384.164" stroke="white" stroke-width="0.910297" stroke-miterlimit="10"/>
<path d="M524.4 380.336L523.338 368.158" stroke="white" stroke-width="0.910297" stroke-miterlimit="10"/>
<path d="M515.889 389.385L535.549 385.398" stroke="white" stroke-width="0.910297" stroke-miterlimit="10"/>
<path d="M510.818 394.445L509.436 376.281" stroke="white" stroke-width="0.910297" stroke-miterlimit="10"/>
<path d="M504.236 401.494L522.229 402.18" stroke="white" stroke-width="0.910297" stroke-miterlimit="10"/>
<path d="M498.457 407.491L496.652 394.193" stroke="white" stroke-width="0.910297" stroke-miterlimit="10"/>
<path d="M460.382 51.8555H178.578V414.575H460.382V51.8555Z" fill="white" stroke="#263238" stroke-width="0.987488" stroke-linecap="round" stroke-linejoin="round"/>
<g style="mix-blend-mode:multiply">
<path d="M223.531 51.8555H178.578V414.575H223.531V51.8555Z" fill="#FFC540"/>
</g>
<path d="M397.767 105.445H311.346V115.613H397.767V105.445Z" fill="#FFC540" stroke="#263238" stroke-width="0.987488" stroke-linecap="round" stroke-linejoin="round"/>
<path d="M450.934 192.07H214.037V202.238H450.934V192.07Z" fill="#FFC540"/>
<path d="M450.934 331.809H214.037V341.976H450.934V331.809Z" fill="#FFC540"/>
<path d="M365.815 122.957H311.346V133.124H365.815V122.957Z" fill="#FFC540" stroke="#263238" stroke-width="0.987488" stroke-linecap="round" stroke-linejoin="round"/>
<path d="M365.815 140.104H311.346V150.271H365.815V140.104Z" fill="#FFC540" stroke="#263238" stroke-width="0.987488" stroke-linecap="round" stroke-linejoin="round"/>
<path d="M303.851 213.434H298.242V219.043H303.851V213.434Z" fill="#FFC540" stroke="#263238" stroke-width="0.987488" stroke-linecap="round" stroke-linejoin="round"/>
<path d="M303.851 285.574H298.242V291.183H303.851V285.574Z" fill="#FFC540" stroke="#263238" stroke-width="0.987488" stroke-linecap="round" stroke-linejoin="round"/>
<path d="M383.008 213.434H377.398V219.043H383.008V213.434Z" fill="#FFC540" stroke="#263238" stroke-width="0.987488" stroke-linecap="round" stroke-linejoin="round"/>
<path d="M383.008 285.574H377.398V291.183H383.008V285.574Z" fill="#FFC540" stroke="#263238" stroke-width="0.987488" stroke-linecap="round" stroke-linejoin="round"/>
<path d="M460.382 51.8555H178.578V70.305H460.382V51.8555Z" fill="#263238" stroke="#263238" stroke-width="0.987488" stroke-linecap="round" stroke-linejoin="round"/>
<path d="M362.547 217.328H312.945C312.521 217.328 312.114 217.159 311.814 216.859C311.514 216.559 311.346 216.152 311.346 215.728C311.346 215.304 311.514 214.897 311.814 214.597C312.114 214.297 312.521 214.129 312.945 214.129H362.547C362.972 214.129 363.378 214.297 363.678 214.597C363.978 214.897 364.147 215.304 364.147 215.728C364.147 216.152 363.978 216.559 363.678 216.859C363.378 217.159 362.972 217.328 362.547 217.328Z" fill="#263238"/>
<path d="M362.547 225.335H312.945C312.52 225.332 312.113 225.161 311.813 224.859C311.514 224.558 311.346 224.15 311.346 223.724C311.346 223.3 311.514 222.893 311.814 222.593C312.114 222.294 312.521 222.125 312.945 222.125H362.547C362.972 222.125 363.378 222.294 363.678 222.593C363.978 222.893 364.147 223.3 364.147 223.724C364.147 224.15 363.979 224.558 363.679 224.859C363.379 225.161 362.973 225.332 362.547 225.335Z" fill="#263238"/>
<path d="M362.547 233.335H312.945C312.521 233.335 312.114 233.167 311.814 232.867C311.514 232.567 311.346 232.16 311.346 231.736C311.346 231.312 311.514 230.905 311.814 230.605C312.114 230.305 312.521 230.137 312.945 230.137H362.547C362.972 230.137 363.378 230.305 363.678 230.605C363.978 230.905 364.147 231.312 364.147 231.736C364.147 232.16 363.978 232.567 363.678 232.867C363.378 233.167 362.972 233.335 362.547 233.335Z" fill="#263238"/>
<path d="M362.547 241.332H312.945C312.521 241.332 312.114 241.163 311.814 240.863C311.514 240.563 311.346 240.156 311.346 239.732C311.346 239.308 311.514 238.901 311.814 238.601C312.114 238.301 312.521 238.133 312.945 238.133H362.547C362.972 238.133 363.378 238.301 363.678 238.601C363.978 238.901 364.147 239.308 364.147 239.732C364.147 240.156 363.978 240.563 363.678 240.863C363.378 241.163 362.972 241.332 362.547 241.332Z" fill="#263238"/>
<path d="M362.547 249.328H312.945C312.521 249.328 312.114 249.159 311.814 248.859C311.514 248.559 311.346 248.152 311.346 247.728C311.346 247.304 311.514 246.897 311.814 246.597C312.114 246.297 312.521 246.129 312.945 246.129H362.547C362.972 246.129 363.378 246.297 363.678 246.597C363.978 246.897 364.147 247.304 364.147 247.728C364.147 248.152 363.978 248.559 363.678 248.859C363.378 249.159 362.972 249.328 362.547 249.328Z" fill="#263238"/>
<path d="M437.581 217.328H387.978C387.554 217.328 387.147 217.159 386.847 216.859C386.547 216.559 386.379 216.152 386.379 215.728C386.379 215.304 386.547 214.897 386.847 214.597C387.147 214.297 387.554 214.129 387.978 214.129H437.581C438.005 214.129 438.412 214.297 438.712 214.597C439.011 214.897 439.18 215.304 439.18 215.728C439.18 216.152 439.011 216.559 438.712 216.859C438.412 217.159 438.005 217.328 437.581 217.328Z" fill="#263238"/>
<path d="M437.581 225.335H387.978C387.553 225.332 387.146 225.161 386.847 224.859C386.547 224.558 386.379 224.15 386.379 223.724C386.379 223.3 386.547 222.893 386.847 222.593C387.147 222.294 387.554 222.125 387.978 222.125H437.581C438.005 222.125 438.412 222.294 438.712 222.593C439.011 222.893 439.18 223.3 439.18 223.724C439.18 224.15 439.012 224.558 438.712 224.859C438.413 225.161 438.006 225.332 437.581 225.335Z" fill="#263238"/>
<path d="M437.581 233.335H387.978C387.554 233.335 387.147 233.167 386.847 232.867C386.547 232.567 386.379 232.16 386.379 231.736C386.379 231.312 386.547 230.905 386.847 230.605C387.147 230.305 387.554 230.137 387.978 230.137H437.581C438.005 230.137 438.412 230.305 438.712 230.605C439.011 230.905 439.18 231.312 439.18 231.736C439.18 232.16 439.011 232.567 438.712 232.867C438.412 233.167 438.005 233.335 437.581 233.335Z" fill="#263238"/>
<path d="M437.581 241.332H387.978C387.554 241.332 387.147 241.163 386.847 240.863C386.547 240.563 386.379 240.156 386.379 239.732C386.379 239.308 386.547 238.901 386.847 238.601C387.147 238.301 387.554 238.133 387.978 238.133H437.581C438.005 238.133 438.412 238.301 438.712 238.601C439.011 238.901 439.18 239.308 439.18 239.732C439.18 240.156 439.011 240.563 438.712 240.863C438.412 241.163 438.005 241.332 437.581 241.332Z" fill="#263238"/>
<path d="M437.581 249.328H387.978C387.554 249.328 387.147 249.159 386.847 248.859C386.547 248.559 386.379 248.152 386.379 247.728C386.379 247.304 386.547 246.897 386.847 246.597C387.147 246.297 387.554 246.129 387.978 246.129H437.581C438.005 246.129 438.412 246.297 438.712 246.597C439.011 246.897 439.18 247.304 439.18 247.728C439.18 248.152 439.011 248.559 438.712 248.859C438.412 249.159 438.005 249.328 437.581 249.328Z" fill="#263238"/>
<path d="M362.547 288.271H312.945C312.52 288.268 312.113 288.097 311.813 287.795C311.514 287.493 311.346 287.085 311.346 286.66C311.346 286.236 311.514 285.829 311.814 285.529C312.114 285.229 312.521 285.061 312.945 285.061H362.547C362.972 285.061 363.378 285.229 363.678 285.529C363.978 285.829 364.147 286.236 364.147 286.66C364.147 287.085 363.979 287.493 363.679 287.795C363.379 288.097 362.973 288.268 362.547 288.271Z" fill="#263238"/>
<path d="M362.547 296.269H312.945C312.521 296.269 312.114 296.1 311.814 295.801C311.514 295.501 311.346 295.094 311.346 294.67C311.346 294.245 311.514 293.839 311.814 293.539C312.114 293.239 312.521 293.07 312.945 293.07H362.547C362.972 293.07 363.378 293.239 363.678 293.539C363.978 293.839 364.147 294.245 364.147 294.67C364.147 295.094 363.978 295.501 363.678 295.801C363.378 296.1 362.972 296.269 362.547 296.269Z" fill="#263238"/>
<path d="M362.547 304.265H312.945C312.521 304.265 312.114 304.097 311.814 303.797C311.514 303.497 311.346 303.09 311.346 302.666C311.346 302.242 311.514 301.835 311.814 301.535C312.114 301.235 312.521 301.066 312.945 301.066H362.547C362.972 301.066 363.378 301.235 363.678 301.535C363.978 301.835 364.147 302.242 364.147 302.666C364.147 303.09 363.978 303.497 363.678 303.797C363.378 304.097 362.972 304.265 362.547 304.265Z" fill="#263238"/>
<path d="M362.547 312.261H312.945C312.521 312.261 312.114 312.093 311.814 311.793C311.514 311.493 311.346 311.086 311.346 310.662C311.346 310.238 311.514 309.831 311.814 309.531C312.114 309.231 312.521 309.063 312.945 309.062H362.547C362.972 309.062 363.378 309.231 363.678 309.531C363.978 309.831 364.147 310.238 364.147 310.662C364.147 311.086 363.978 311.493 363.678 311.793C363.378 312.093 362.972 312.261 362.547 312.261Z" fill="#263238"/>
<path d="M362.547 320.269H312.945C312.521 320.269 312.114 320.1 311.814 319.801C311.514 319.501 311.346 319.094 311.346 318.67C311.346 318.245 311.514 317.839 311.814 317.539C312.114 317.239 312.521 317.07 312.945 317.07H362.547C362.972 317.07 363.378 317.239 363.678 317.539C363.978 317.839 364.147 318.245 364.147 318.67C364.147 319.094 363.978 319.501 363.678 319.801C363.378 320.1 362.972 320.269 362.547 320.269Z" fill="#263238"/>
<path d="M437.581 288.271H387.978C387.553 288.268 387.146 288.097 386.847 287.795C386.547 287.493 386.379 287.085 386.379 286.66C386.379 286.236 386.547 285.829 386.847 285.529C387.147 285.229 387.554 285.061 387.978 285.061H437.581C438.005 285.061 438.412 285.229 438.712 285.529C439.011 285.829 439.18 286.236 439.18 286.66C439.18 287.085 439.012 287.493 438.712 287.795C438.413 288.097 438.006 288.268 437.581 288.271Z" fill="#263238"/>
<path d="M437.581 296.269H387.978C387.554 296.269 387.147 296.1 386.847 295.801C386.547 295.501 386.379 295.094 386.379 294.67C386.379 294.245 386.547 293.839 386.847 293.539C387.147 293.239 387.554 293.07 387.978 293.07H437.581C438.005 293.07 438.412 293.239 438.712 293.539C439.011 293.839 439.18 294.245 439.18 294.67C439.18 295.094 439.011 295.501 438.712 295.801C438.412 296.1 438.005 296.269 437.581 296.269Z" fill="#263238"/>
<path d="M437.581 304.265H387.978C387.554 304.265 387.147 304.097 386.847 303.797C386.547 303.497 386.379 303.09 386.379 302.666C386.379 302.242 386.547 301.835 386.847 301.535C387.147 301.235 387.554 301.066 387.978 301.066H437.581C438.005 301.066 438.412 301.235 438.712 301.535C439.011 301.835 439.18 302.242 439.18 302.666C439.18 303.09 439.011 303.497 438.712 303.797C438.412 304.097 438.005 304.265 437.581 304.265Z" fill="#263238"/>
<path d="M437.581 312.261H387.978C387.554 312.261 387.147 312.093 386.847 311.793C386.547 311.493 386.379 311.086 386.379 310.662C386.379 310.238 386.547 309.831 386.847 309.531C387.147 309.231 387.554 309.063 387.978 309.062H437.581C438.005 309.062 438.412 309.231 438.712 309.531C439.011 309.831 439.18 310.238 439.18 310.662C439.18 311.086 439.011 311.493 438.712 311.793C438.412 312.093 438.005 312.261 437.581 312.261Z" fill="#263238"/>
<path d="M437.581 320.269H387.978C387.554 320.269 387.147 320.1 386.847 319.801C386.547 319.501 386.379 319.094 386.379 318.67C386.379 318.245 386.547 317.839 386.847 317.539C387.147 317.239 387.554 317.07 387.978 317.07H437.581C438.005 317.07 438.412 317.239 438.712 317.539C439.011 317.839 439.18 318.245 439.18 318.67C439.18 319.094 439.011 319.501 438.712 319.801C438.412 320.1 438.005 320.269 437.581 320.269Z" fill="#263238"/>
<path d="M437.581 356.781H387.978C387.554 356.781 387.147 356.612 386.847 356.312C386.547 356.012 386.379 355.606 386.379 355.181C386.379 354.757 386.547 354.35 386.847 354.05C387.147 353.751 387.554 353.582 387.978 353.582H437.581C438.005 353.582 438.412 353.751 438.712 354.05C439.011 354.35 439.18 354.757 439.18 355.181C439.18 355.606 439.011 356.012 438.712 356.312C438.412 356.612 438.005 356.781 437.581 356.781Z" fill="#263238"/>
<path d="M437.581 364.777H387.978C387.554 364.777 387.147 364.608 386.847 364.308C386.547 364.008 386.379 363.602 386.379 363.177C386.379 362.753 386.547 362.347 386.847 362.047C387.147 361.747 387.554 361.578 387.978 361.578H437.581C438.005 361.578 438.412 361.747 438.712 362.047C439.011 362.347 439.18 362.753 439.18 363.177C439.18 363.602 439.011 364.008 438.712 364.308C438.412 364.608 438.005 364.777 437.581 364.777Z" fill="#263238"/>
<path d="M437.581 372.785H387.978C387.554 372.785 387.147 372.616 386.847 372.316C386.547 372.016 386.379 371.609 386.379 371.185C386.379 370.761 386.547 370.354 386.847 370.054C387.147 369.754 387.554 369.586 387.978 369.586H437.581C438.005 369.586 438.412 369.754 438.712 370.054C439.011 370.354 439.18 370.761 439.18 371.185C439.18 371.609 439.011 372.016 438.712 372.316C438.412 372.616 438.005 372.785 437.581 372.785Z" fill="#263238"/>
<path d="M437.581 377.582H387.978C387.095 377.582 386.379 378.298 386.379 379.181C386.379 380.065 387.095 380.781 387.978 380.781H437.581C438.464 380.781 439.18 380.065 439.18 379.181C439.18 378.298 438.464 377.582 437.581 377.582Z" fill="#263238"/>
<path d="M437.581 388.777H387.978C387.554 388.777 387.147 388.608 386.847 388.308C386.547 388.008 386.379 387.602 386.379 387.177C386.379 386.753 386.547 386.346 386.847 386.047C387.147 385.747 387.554 385.578 387.978 385.578H437.581C438.005 385.578 438.412 385.747 438.712 386.047C439.011 386.346 439.18 386.753 439.18 387.177C439.18 387.602 439.011 388.008 438.712 388.308C438.412 388.608 438.005 388.777 437.581 388.777Z" fill="#263238"/>
<path d="M432.782 263.732C431.27 263.733 429.807 264.269 428.653 265.246C427.498 266.222 426.727 267.576 426.476 269.067H418.822C418.542 267.606 417.762 266.288 416.615 265.34C415.468 264.392 414.027 263.874 412.539 263.874C411.051 263.874 409.61 264.392 408.463 265.34C407.316 266.288 406.536 267.606 406.256 269.067H398.602C398.322 267.606 397.541 266.288 396.395 265.34C395.248 264.392 393.807 263.874 392.319 263.874C390.831 263.874 389.39 264.392 388.243 265.34C387.096 266.288 386.316 267.606 386.036 269.067H378.279C378.012 267.596 377.236 266.265 376.088 265.306C374.94 264.348 373.491 263.823 371.996 263.823C370.5 263.823 369.052 264.348 367.904 265.306C366.755 266.265 365.98 267.596 365.713 269.067H358.047C357.78 267.596 357.004 266.265 355.856 265.306C354.708 264.348 353.26 263.823 351.764 263.823C350.268 263.823 348.82 264.348 347.672 265.306C346.524 266.265 345.748 267.596 345.481 269.067H337.815C337.548 267.596 336.773 266.265 335.625 265.306C334.476 264.348 333.028 263.823 331.532 263.823C330.037 263.823 328.588 264.348 327.44 265.306C326.292 266.265 325.517 267.596 325.249 269.067H317.584C317.316 267.486 316.464 266.063 315.197 265.08C313.929 264.097 312.339 263.626 310.74 263.761C309.142 263.895 307.653 264.625 306.567 265.806C305.481 266.986 304.879 268.532 304.879 270.136C304.879 271.739 305.481 273.285 306.567 274.465C307.653 275.646 309.142 276.376 310.74 276.51C312.339 276.645 313.929 276.174 315.197 275.191C316.464 274.208 317.316 272.785 317.584 271.204H325.249C325.517 272.675 326.292 274.006 327.44 274.965C328.588 275.923 330.037 276.448 331.532 276.448C333.028 276.448 334.476 275.923 335.625 274.965C336.773 274.006 337.548 272.675 337.815 271.204H345.481C345.748 272.675 346.524 274.006 347.672 274.965C348.82 275.923 350.268 276.448 351.764 276.448C353.26 276.448 354.708 275.923 355.856 274.965C357.004 274.006 357.78 272.675 358.047 271.204H365.713C365.98 272.675 366.755 274.006 367.904 274.965C369.052 275.923 370.5 276.448 371.996 276.448C373.491 276.448 374.94 275.923 376.088 274.965C377.236 274.006 378.012 272.675 378.279 271.204H385.944C386.224 272.665 387.005 273.983 388.151 274.931C389.298 275.879 390.74 276.397 392.227 276.397C393.715 276.397 395.157 275.879 396.303 274.931C397.45 273.983 398.231 272.665 398.511 271.204H406.165C406.444 272.665 407.225 273.983 408.372 274.931C409.518 275.879 410.96 276.397 412.448 276.397C413.935 276.397 415.377 275.879 416.524 274.931C417.67 273.983 418.451 272.665 418.731 271.204H426.385C426.589 272.406 427.133 273.524 427.953 274.428C428.772 275.331 429.832 275.981 431.008 276.302C432.185 276.623 433.429 276.6 434.593 276.238C435.757 275.876 436.794 275.188 437.58 274.256C438.367 273.324 438.87 272.187 439.032 270.978C439.194 269.77 439.007 268.54 438.493 267.434C437.979 266.328 437.16 265.392 436.132 264.737C435.104 264.081 433.91 263.732 432.691 263.732H432.782Z" fill="#263238"/>
<path d="M283.563 354.176C281.43 354.174 279.344 354.804 277.569 355.988C275.794 357.171 274.41 358.855 273.592 360.825C272.774 362.795 272.559 364.964 272.973 367.057C273.388 369.149 274.414 371.072 275.922 372.581C277.43 374.091 279.351 375.119 281.444 375.536C283.536 375.953 285.705 375.74 287.676 374.924C289.647 374.108 291.332 372.726 292.518 370.952C293.703 369.179 294.336 367.093 294.336 364.96C294.337 363.544 294.06 362.142 293.519 360.834C292.978 359.526 292.185 358.337 291.185 357.335C290.184 356.334 288.996 355.539 287.688 354.997C286.381 354.455 284.979 354.176 283.563 354.176ZM283.563 370.329C282.498 370.331 281.456 370.017 280.57 369.427C279.683 368.837 278.992 367.997 278.583 367.013C278.174 366.029 278.067 364.946 278.274 363.902C278.481 362.857 278.994 361.897 279.747 361.144C280.5 360.391 281.46 359.878 282.505 359.671C283.55 359.463 284.632 359.571 285.616 359.98C286.6 360.388 287.44 361.08 288.03 361.966C288.621 362.853 288.935 363.895 288.932 364.96C288.929 366.383 288.363 367.747 287.356 368.753C286.35 369.759 284.986 370.326 283.563 370.329Z" fill="#FFC540" stroke="#263238" stroke-width="0.987488" stroke-linecap="round" stroke-linejoin="round"/>
<path d="M286.773 369.244L291.914 371.746C293.197 370.168 294.007 368.26 294.251 366.242C294.496 364.223 294.164 362.177 293.294 360.339C292.424 358.502 291.052 356.948 289.336 355.857C287.62 354.766 285.631 354.184 283.598 354.176V359.579C284.72 359.591 285.81 359.954 286.715 360.618C287.62 361.281 288.294 362.211 288.644 363.277C288.993 364.344 288.999 365.493 288.662 366.563C288.324 367.633 287.66 368.571 286.762 369.244H286.773Z" fill="#263238" stroke="#263238" stroke-width="0.987488" stroke-linecap="round" stroke-linejoin="round"/>
<path d="M288.75 389.11H278.469C278.132 389.111 277.798 389.046 277.486 388.918C277.174 388.79 276.891 388.602 276.652 388.364C276.413 388.127 276.224 387.844 276.094 387.533C275.965 387.222 275.898 386.888 275.898 386.551C275.898 385.869 276.169 385.215 276.651 384.733C277.133 384.251 277.787 383.98 278.469 383.98H288.75C289.432 383.98 290.086 384.251 290.568 384.733C291.05 385.215 291.321 385.869 291.321 386.551C291.321 386.888 291.254 387.222 291.125 387.533C290.995 387.844 290.806 388.127 290.567 388.364C290.328 388.602 290.045 388.79 289.733 388.918C289.421 389.046 289.087 389.111 288.75 389.11Z" fill="#FFC540" stroke="#263238" stroke-width="0.987488" stroke-linecap="round" stroke-linejoin="round"/>
<path d="M315.698 354.176C313.565 354.176 311.48 354.808 309.707 355.993C307.933 357.178 306.551 358.862 305.735 360.833C304.919 362.804 304.705 364.972 305.121 367.064C305.537 369.156 306.564 371.077 308.073 372.585C309.581 374.094 311.502 375.121 313.594 375.537C315.686 375.953 317.855 375.739 319.825 374.923C321.796 374.107 323.48 372.725 324.665 370.951C325.85 369.178 326.482 367.093 326.482 364.96C326.484 363.543 326.206 362.14 325.664 360.831C325.123 359.522 324.329 358.333 323.327 357.331C322.325 356.329 321.136 355.535 319.827 354.994C318.518 354.452 317.115 354.174 315.698 354.176ZM315.698 370.329C314.634 370.329 313.593 370.013 312.708 369.422C311.823 368.83 311.133 367.989 310.726 367.005C310.319 366.021 310.213 364.939 310.422 363.895C310.63 362.85 311.144 361.892 311.898 361.14C312.651 360.388 313.611 359.876 314.656 359.67C315.7 359.464 316.782 359.572 317.765 359.981C318.748 360.39 319.588 361.081 320.178 361.967C320.767 362.854 321.081 363.895 321.079 364.96C321.079 365.666 320.94 366.365 320.669 367.017C320.399 367.669 320.002 368.262 319.502 368.761C319.002 369.259 318.409 369.655 317.756 369.924C317.104 370.193 316.404 370.331 315.698 370.329Z" fill="#FFC540" stroke="#263238" stroke-width="0.987488" stroke-linecap="round" stroke-linejoin="round"/>
<path d="M326.426 363.829C326.143 361.191 324.899 358.749 322.931 356.969C320.963 355.188 318.409 354.194 315.756 354.176V359.579C317.173 359.594 318.527 360.168 319.524 361.175C320.52 362.183 321.079 363.543 321.079 364.96C321.068 365.167 321.045 365.373 321.011 365.577L326.426 363.829Z" fill="#263238" stroke="#263238" stroke-width="0.987488" stroke-linecap="round" stroke-linejoin="round"/>
<path d="M320.84 389.11H310.559C310.222 389.111 309.888 389.046 309.576 388.918C309.264 388.79 308.981 388.602 308.742 388.364C308.503 388.127 308.313 387.844 308.184 387.533C308.055 387.222 307.988 386.888 307.988 386.551C307.988 385.869 308.259 385.215 308.741 384.733C309.223 384.251 309.877 383.98 310.559 383.98H320.84C321.522 383.98 322.176 384.251 322.658 384.733C323.14 385.215 323.41 385.869 323.41 386.551C323.411 386.888 323.344 387.222 323.215 387.533C323.085 387.844 322.896 388.127 322.657 388.364C322.418 388.602 322.135 388.79 321.823 388.918C321.511 389.046 321.177 389.111 320.84 389.11Z" fill="#FFC540" stroke="#263238" stroke-width="0.987488" stroke-linecap="round" stroke-linejoin="round"/>
<path d="M348.028 354.176C345.895 354.176 343.81 354.808 342.037 355.993C340.263 357.178 338.881 358.862 338.065 360.833C337.249 362.804 337.035 364.972 337.451 367.064C337.867 369.156 338.895 371.077 340.403 372.585C341.911 374.094 343.832 375.121 345.924 375.537C348.016 375.953 350.185 375.739 352.155 374.923C354.126 374.107 355.81 372.725 356.995 370.951C358.18 369.178 358.812 367.093 358.812 364.96C358.814 363.543 358.536 362.14 357.995 360.831C357.453 359.522 356.659 358.333 355.657 357.331C354.655 356.329 353.466 355.535 352.157 354.994C350.848 354.452 349.445 354.174 348.028 354.176ZM348.028 370.329C346.964 370.329 345.923 370.013 345.038 369.422C344.153 368.83 343.463 367.989 343.056 367.005C342.649 366.021 342.543 364.939 342.752 363.895C342.96 362.85 343.474 361.892 344.228 361.14C344.981 360.388 345.941 359.876 346.986 359.67C348.03 359.464 349.112 359.572 350.095 359.981C351.078 360.39 351.918 361.081 352.508 361.967C353.098 362.854 353.411 363.895 353.409 364.96C353.409 365.666 353.27 366.365 352.999 367.017C352.729 367.669 352.332 368.262 351.832 368.761C351.332 369.259 350.739 369.655 350.086 369.924C349.434 370.193 348.734 370.331 348.028 370.329Z" fill="#FFC540" stroke="#263238" stroke-width="0.987488" stroke-linecap="round" stroke-linejoin="round"/>
<path d="M348.085 354.176V359.579C348.991 359.581 349.881 359.811 350.674 360.248C351.467 360.685 352.137 361.315 352.622 362.08C353.107 362.844 353.39 363.719 353.447 364.623C353.504 365.527 353.332 366.43 352.946 367.249C352.561 368.069 351.975 368.778 351.243 369.311C350.511 369.843 349.656 370.183 348.758 370.297C347.86 370.412 346.947 370.298 346.105 369.966C345.262 369.634 344.517 369.095 343.939 368.398L339.666 371.734C340.81 373.145 342.293 374.244 343.976 374.928C345.659 375.612 347.488 375.86 349.292 375.647C351.096 375.435 352.818 374.77 354.296 373.713C355.774 372.657 356.961 371.244 357.746 369.606C358.532 367.968 358.89 366.158 358.789 364.344C358.687 362.53 358.128 360.771 357.163 359.232C356.199 357.692 354.862 356.421 353.274 355.537C351.687 354.653 349.902 354.185 348.085 354.176Z" fill="#263238" stroke="#263238" stroke-width="0.987488" stroke-linecap="round" stroke-linejoin="round"/>
<path d="M353.168 389.11H342.887C342.55 389.111 342.216 389.046 341.904 388.918C341.592 388.79 341.309 388.602 341.07 388.364C340.831 388.127 340.642 387.844 340.512 387.533C340.383 387.222 340.316 386.888 340.316 386.551C340.315 386.213 340.38 385.878 340.509 385.565C340.638 385.253 340.827 384.969 341.066 384.73C341.305 384.491 341.589 384.302 341.901 384.173C342.214 384.044 342.549 383.979 342.887 383.98H353.168C353.85 383.98 354.504 384.251 354.986 384.733C355.468 385.215 355.739 385.869 355.739 386.551C355.739 386.888 355.672 387.222 355.543 387.533C355.413 387.844 355.224 388.127 354.985 388.364C354.746 388.602 354.463 388.79 354.151 388.918C353.839 389.046 353.505 389.111 353.168 389.11Z" fill="#FFC540" stroke="#263238" stroke-width="0.987488" stroke-linecap="round" stroke-linejoin="round"/>
<path d="M237.307 187.958C263.957 187.958 285.562 166.354 285.562 139.704C285.562 113.053 263.957 91.4492 237.307 91.4492C210.657 91.4492 189.053 113.053 189.053 139.704C189.053 166.354 210.657 187.958 237.307 187.958Z" fill="white"/>
<path d="M251.928 408.164C251.928 408.164 258.897 418.639 257.937 422.786C256.978 426.933 250.854 425.654 247.953 421.187C245.051 416.72 237.671 410.049 239.008 407.181C240.344 404.314 249.324 405.616 251.928 408.164Z" fill="white" stroke="#263238" stroke-width="1.02307" stroke-linecap="round" stroke-linejoin="round"/>
<path d="M221.987 407.582C221.987 407.582 213.568 420.08 214.916 423.496C216.264 426.911 220.628 425.895 223.963 422.81C227.299 419.726 233.959 411.066 233.959 411.066C233.959 411.066 228.362 404.166 221.987 407.582Z" fill="white" stroke="#263238" stroke-width="1.02307" stroke-linecap="round" stroke-linejoin="round"/>
<path d="M214.916 423.495C217.199 423.809 219.522 423.355 221.519 422.204C225.357 420.262 232.052 411.5 232.052 411.5" stroke="#263238" stroke-width="0.767303" stroke-linecap="round" stroke-linejoin="round"/>
<path d="M241.352 409.273C241.352 409.273 244.996 416.128 249.097 420.012C253.198 423.896 255.209 425.004 257.905 422.788" stroke="#263238" stroke-width="0.767303" stroke-linecap="round" stroke-linejoin="round"/>
<path d="M210.163 251.623C210.163 251.623 202.795 266.657 203.126 272.803C203.457 278.949 204.805 310.045 206.816 320.292C208.827 330.539 210.803 356.06 212.174 366.262C213.545 376.463 222.33 400.362 222.33 400.362C222.33 400.362 220.982 405.834 221.987 407.536C222.992 409.238 233.628 412.048 233.959 411.02C234.29 409.992 235.97 406.919 236.244 403.846C236.518 400.773 231.56 367.975 233.571 360.801C235.581 353.627 235.97 305.395 236.244 300.426C236.518 295.456 236.164 286.717 236.164 286.717C236.761 286.901 237.4 286.903 237.998 286.721C238.597 286.54 239.127 286.185 239.523 285.7C240.859 283.987 245.292 330.425 246.64 341.358C247.988 352.29 244.96 355.363 243.955 362.195C242.95 369.026 240.608 391.223 240.608 393.964C240.608 396.706 237.592 405.571 238.928 407.285C240.265 408.998 243.11 408.713 244.275 409.033C247.771 410.004 250.501 408.484 251.837 408.141C253.174 407.799 254.305 402.852 254.305 402.852C254.305 402.852 265.066 372.442 267.077 359.796C269.087 347.149 272.435 323.685 271.772 309.336C271.109 294.988 267.077 265.926 267.077 265.926L266.072 257.381L210.163 251.623Z" fill="#263238" stroke="#263238" stroke-width="1.02307" stroke-linecap="round" stroke-linejoin="round"/>
<path d="M205.457 269.01C205.457 269.01 204.806 277.441 210.324 282.947" stroke="white" stroke-width="0.506629" stroke-linecap="round" stroke-linejoin="round"/>
<path d="M205.777 281.006C205.777 281.006 209.022 286.524 212.917 287.163" stroke="white" stroke-width="0.506629" stroke-linecap="round" stroke-linejoin="round"/>
<path d="M231.709 373.264C231.709 373.264 227.139 384.162 226.522 390.114C225.905 396.066 231.709 393.747 233.011 397.711C234.313 401.675 225.231 401.355 226.854 402.337C228.476 403.32 233.331 403.994 233.331 403.994" stroke="white" stroke-width="0.511535" stroke-linecap="round" stroke-linejoin="round"/>
<path d="M240.506 400.362C241.477 400.031 252.501 398.077 251.199 392.102C249.896 386.128 243.419 385.819 244.344 378.885C245.27 371.951 255.357 356.734 255.357 352.439C255.357 348.143 248.228 332.139 247.577 322.223" stroke="white" stroke-width="0.511535" stroke-linecap="round" stroke-linejoin="round"/>
<path d="M256.351 268.371C256.351 268.371 248.891 279.064 247.92 280.686C246.949 282.308 256.67 273.558 256.67 273.558" stroke="white" stroke-width="0.506629" stroke-linecap="round" stroke-linejoin="round"/>
<path d="M236.84 264.59C236.84 264.59 237.651 272.404 237.651 274.015V282.914" stroke="white" stroke-width="0.506629" stroke-linecap="round" stroke-linejoin="round"/>
<path d="M237.648 278.069C237.648 278.069 241.156 277.532 241.955 274.836C242.755 272.14 242.504 266.748 242.504 266.748" stroke="white" stroke-width="0.506629" stroke-linecap="round" stroke-linejoin="round"/>
<path d="M305.336 171.871C301.315 160.139 300.641 153.776 300.31 150.429C299.979 147.082 296.289 148.075 296.289 148.075C296.289 148.075 288.292 152.771 288.292 153.787C288.292 154.804 291.982 179.594 292.644 183.946C293.047 186.498 293.272 189.075 293.318 191.658C293.318 191.658 279.244 176.578 275.554 172.888C272.744 170.066 270.516 167.656 268.129 166.217C266.838 165.074 264.599 164.652 261.149 163.509C255.117 161.499 248.754 156.803 241.374 157.135C236.529 157.467 231.773 158.602 227.3 160.493C227.3 160.493 216.584 165.52 209.205 168.867C208.345 169.251 207.529 169.726 206.771 170.283C205.56 170.135 203.036 170.786 200.157 177.241C196.147 186.288 178.052 210.084 175.024 218.458C171.997 226.832 178.372 235.217 185.409 241.911C190.486 246.904 195.294 252.162 199.814 257.665L207.811 247.817C208.037 250.008 208.419 252.181 208.953 254.317C209.959 257.665 213.306 261.355 226.717 262.314C240.129 263.274 270.254 265.124 269.271 258.293C267.889 248.583 268.597 217.407 267.935 209.033C267.738 203.662 267.849 198.284 268.266 192.926C269.808 194.879 272.835 198.5 274.949 199.928C277.965 201.939 290.714 211.352 295.74 213.386C300.767 215.419 307.804 212.049 310.82 205.389C313.836 198.729 309.358 183.604 305.336 171.871ZM196.101 227.494C194.753 222.136 194.091 220.126 194.091 220.126C194.091 220.126 202.682 210.872 206.817 205.937C207.377 219.178 207.731 233.663 207.342 235.788C207.038 239.35 207.118 242.935 207.582 246.481C205.343 243.408 197.244 232.109 196.101 227.494Z" fill="#FFC540" stroke="#263238" stroke-width="1.01326" stroke-linecap="round" stroke-linejoin="round"/>
<path d="M210.965 204.499C213.086 201.314 214.932 197.955 216.483 194.457" stroke="#263238" stroke-width="0.759943" stroke-linecap="round" stroke-linejoin="round"/>
<path d="M219.395 195.43C218.619 197.046 217.514 198.482 216.15 199.645" stroke="#263238" stroke-width="0.759943" stroke-linecap="round" stroke-linejoin="round"/>
<path d="M293.273 191.648C293.318 193.579 293.745 195.482 294.53 197.246C295.314 199.011 296.44 200.603 297.843 201.93" stroke="#263238" stroke-width="1.01326" stroke-linecap="round" stroke-linejoin="round"/>
<path d="M294.598 197.051C294.325 200.1 295.008 203.158 296.551 205.801" stroke="#263238" stroke-width="1.01326" stroke-linecap="round" stroke-linejoin="round"/>
<path d="M194.092 220.128C194.092 220.128 191.624 217.786 185.535 218.803" stroke="#263238" stroke-width="0.759943" stroke-linecap="round" stroke-linejoin="round"/>
<path d="M182.164 217.455C182.164 217.455 183.855 214.747 190.264 216.769" stroke="#263238" stroke-width="0.759943" stroke-linecap="round" stroke-linejoin="round"/>
<path d="M275.395 182.656C274.047 182.988 268.301 192.789 268.301 192.789L282.158 189.076" stroke="#263238" stroke-width="0.759943" stroke-linecap="round" stroke-linejoin="round"/>
<path d="M235.605 175.976C235.605 175.976 238.198 179.54 244.035 177.93C249.873 176.319 251.815 170.15 250.89 166.254C249.964 162.359 230.418 165.603 235.605 175.976Z" fill="white" stroke="#263238" stroke-width="1.01326" stroke-linecap="round" stroke-linejoin="round"/>
<path d="M230.053 153.777C230.053 153.777 226.135 156.382 225.621 158.735C225.106 161.088 226.397 168.64 227.437 171.244C228.476 173.849 231.881 179.846 231.881 179.846C231.881 179.846 243.613 173.072 244.447 172.547C245.281 172.021 253.586 176.716 255.403 175.974C257.219 175.231 250.97 159.283 248.103 155.902C245.235 152.521 234.223 150.636 230.053 153.777Z" fill="white" stroke="#263238" stroke-width="1.01326" stroke-linecap="round" stroke-linejoin="round"/>
<path d="M227.939 145.164C227.939 145.164 228.202 149.334 228.728 155.594C229.253 161.854 231.367 166.801 234.794 169.668C238.221 172.536 243.133 174.101 244.436 172.536C245.738 170.971 247.303 164.459 246.72 160.541C246.138 156.622 245.418 148.294 245.418 148.294L227.939 145.164Z" fill="white" stroke="#263238" stroke-width="1.01326" stroke-linecap="round" stroke-linejoin="round"/>
<g style="mix-blend-mode:multiply" opacity="0.5">
<path d="M246.218 155.663C245.829 152.018 245.475 148.294 245.475 148.294L227.939 145.164C227.939 145.164 228.202 149.334 228.728 155.594C228.927 158.489 229.594 161.332 230.704 164.013L246.218 155.663Z" fill="#FFECC2"/>
</g>
<path d="M222.227 138.927C222.227 138.927 218.32 135.02 217.532 138.401C216.743 141.783 219.885 147.015 224.317 145.701V142.582L222.227 138.927Z" fill="white" stroke="#263238" stroke-width="1.01326" stroke-linecap="round" stroke-linejoin="round"/>
<path opacity="0.5" d="M222.227 138.927C222.227 138.927 218.32 135.02 217.532 138.401C216.743 141.783 219.885 147.015 224.317 145.701V142.582L222.227 138.927Z" fill="#FFECC2" stroke="#263238" stroke-width="1.01326" stroke-linecap="round" stroke-linejoin="round"/>
<path d="M218.801 131.868C218.801 131.868 225.324 149.335 231.058 152.728C236.793 156.12 248.263 159.239 251.393 147.016C254.523 134.792 246.184 117.028 243.316 111.807C240.449 106.587 229.756 105.033 222.982 110.242C216.207 115.452 214.665 120.387 218.801 131.868Z" fill="white" stroke="#263238" stroke-width="1.01326" stroke-linecap="round" stroke-linejoin="round"/>
<g style="mix-blend-mode:multiply" opacity="0.5">
<path d="M226.031 117.074C228.8 115.794 231.801 115.094 234.851 115.018L241.351 109.546C237.078 106.256 228.682 105.856 223.015 110.22C216.23 115.441 214.665 120.387 218.834 131.868C218.834 131.868 225.357 149.335 231.092 152.728C233.126 153.924 235.329 154.806 237.627 155.344C234.862 151.78 230.612 146.114 229.264 143.223C227.208 138.814 226.328 129.709 223.678 124.42C221.028 119.131 221.919 119.131 226.031 117.074Z" fill="#FFDA86"/>
</g>
<path d="M239.696 126.646C239.696 126.646 242.3 131.342 241.261 132.358C240.909 132.663 240.484 132.871 240.027 132.963C239.571 133.055 239.099 133.028 238.656 132.884" stroke="#263238" stroke-width="1.01326" stroke-linecap="round" stroke-linejoin="round"/>
<path d="M227.699 125.868C227.699 125.868 228.225 122.738 232.132 122.738" stroke="#263238" stroke-width="2.02651" stroke-linecap="round" stroke-linejoin="round"/>
<path d="M230.053 128.999C230.053 128.999 232.92 130.301 233.96 127.434" stroke="#263238" stroke-width="1.01326" stroke-linecap="round" stroke-linejoin="round"/>
<path d="M242.562 126.909C242.562 126.909 245.43 128.211 246.481 125.344" stroke="#263238" stroke-width="1.01326" stroke-linecap="round" stroke-linejoin="round"/>
<path d="M240.186 120.923C240.882 120.213 241.822 119.795 242.816 119.755C243.809 119.715 244.78 120.055 245.532 120.706" stroke="#263238" stroke-width="2.02651" stroke-linecap="round" stroke-linejoin="round"/>
<path d="M251.928 136.974C248.89 135.648 241.647 132.724 239.225 133.946C236.095 135.511 228.007 140.995 228.007 145.164C228.007 145.164 222.798 138.127 222.798 135.511C222.798 132.895 224.877 132.084 223.06 128.737C221.244 125.39 218.616 125.081 219.405 121.174C220.124 117.553 227.333 113.715 230.828 113.178C233.012 115.025 235.794 116.016 238.654 115.965C244.366 115.965 249.084 112.298 249.084 107.751C249.084 103.205 244.411 99.549 238.654 99.549C237.372 99.5431 236.097 99.7318 234.873 100.109C229.412 99.7089 228.372 103.753 224.591 105.969C220.81 108.185 218.434 114.72 218.434 114.72H218.594C215.829 118.764 215.84 123.642 218.845 131.856C218.845 131.856 225.368 149.323 231.103 152.716C236.837 156.109 248.307 159.227 251.437 147.004C252.198 143.716 252.364 140.319 251.928 136.974Z" fill="#263238" stroke="#263238" stroke-width="1.01326" stroke-linecap="round" stroke-linejoin="round"/>
<path d="M245.703 136.711C245.703 136.711 241.796 142.183 237.363 138.539" stroke="white" stroke-width="1.01326" stroke-linecap="round" stroke-linejoin="round"/>
<path d="M208.153 247.27C209.702 248.247 211.063 249.492 212.174 250.948C213.535 252.812 214.992 254.604 216.538 256.317C216.538 256.317 220.217 256.649 219.885 258.328C219.554 260.007 218.88 261.001 217.201 261.001C215.521 261.001 211.843 257.654 211.843 257.654L206.485 266.028C206.485 266.028 201.459 262.349 199.779 257.654L208.153 247.27Z" fill="white" stroke="#263238" stroke-width="1.01326" stroke-linecap="round" stroke-linejoin="round"/>
<path d="M237.307 187.958C263.957 187.958 285.562 166.354 285.562 139.704C285.562 113.053 263.957 91.4492 237.307 91.4492C210.657 91.4492 189.053 113.053 189.053 139.704C189.053 166.354 210.657 187.958 237.307 187.958Z" stroke="#263238" stroke-width="2.02651" stroke-linecap="round" stroke-linejoin="round"/>
<path d="M280.878 130.325C280.878 130.325 277.52 129.982 276.857 131.993C276.194 134.003 275.178 136.014 275.178 137.362C275.178 138.71 275.509 139.704 277.188 140.035C278.868 140.366 279.873 138.025 279.873 138.025L280.878 130.325Z" fill="white" stroke="#263238" stroke-width="1.01326" stroke-linecap="round" stroke-linejoin="round"/>
<path d="M281.539 127.972C281.539 127.972 279.871 137.02 279.871 139.704C279.944 141.769 280.646 143.761 281.882 145.416C282.493 146.109 283.316 146.579 284.224 146.753L285.903 144.742C285.903 144.742 283.892 147.427 286.565 150.774C289.239 154.121 291.261 153.79 293.603 152.785C295.944 151.779 296.618 150.443 295.613 146.753C294.608 143.063 293.945 137.031 293.271 133.353C292.597 129.674 290.255 128.326 288.919 128.326C287.582 128.326 283.915 126.967 281.539 127.972Z" fill="white" stroke="#263238" stroke-width="1.01326" stroke-linecap="round" stroke-linejoin="round"/>
<path d="M280.319 141.589C280.319 141.589 279.725 139.51 282.249 139.213C284.774 138.916 288.944 138.471 288.944 138.471" stroke="#263238" stroke-width="0.506629" stroke-linecap="round" stroke-linejoin="round"/>
<path d="M280.615 136.242C280.615 136.242 286.407 134.746 288.498 135.043" stroke="#263238" stroke-width="0.506629" stroke-linecap="round" stroke-linejoin="round"/>
<path d="M281.061 132.073C283.222 131.689 285.412 131.49 287.606 131.479" stroke="#263238" stroke-width="0.506629" stroke-linecap="round" stroke-linejoin="round"/>
<path d="M282.99 143.223C283.448 143.635 283.998 143.932 284.595 144.089C285.191 144.246 285.816 144.258 286.417 144.125" stroke="#263238" stroke-width="0.506629" stroke-linecap="round" stroke-linejoin="round"/>
</svg>
