<svg width="86" height="78" viewBox="0 0 86 78" fill="none" xmlns="http://www.w3.org/2000/svg">
<path d="M19.8987 2H66.3141C66.582 2 66.8498 2.24222 66.8498 2.48445V24.4702C66.8498 36.2494 56.1649 45.9149 43.074 45.9149C30.0522 45.9149 19.3652 36.2494 19.3652 24.4702V2.4825C19.3652 2.24027 19.6309 2 19.8987 2Z" stroke="#0E559C" stroke-width="3" stroke-miterlimit="10"/>
<path fill-rule="evenodd" clip-rule="evenodd" d="M50.4216 30.9933L43.8773 27.9128C43.6764 27.7917 43.4086 27.7331 43.0738 27.7331C42.806 27.7331 42.5403 27.7936 42.3394 27.9128L35.7951 30.9933L37.0629 24.5294C37.1299 23.9864 36.9959 23.5019 36.5294 23.1406L31.3198 18.55L38.5316 17.5831C39.132 17.5225 39.6007 17.2197 39.8664 16.7372L43.0716 10.8184L46.3438 16.7372C46.6116 17.2217 47.0782 17.5225 47.6808 17.5831L54.8925 18.55L49.6873 23.1425C49.2164 23.5039 49.0847 23.9883 49.1538 24.5314L50.4216 30.9933Z" fill="white"/>
<path fill-rule="evenodd" clip-rule="evenodd" d="M58.9038 75.3294V67.4161C58.9038 67.1153 58.6338 66.873 58.3012 66.873H27.8472C27.5793 66.873 27.3115 67.1153 27.3115 67.4161V75.3294C27.3115 75.6302 27.5793 75.8119 27.8472 75.8119H58.3012C58.6338 75.8119 58.9038 75.6302 58.9038 75.3294Z" fill="#0E559C" stroke="#0E559C" stroke-width="3" stroke-miterlimit="10"/>
<path fill-rule="evenodd" clip-rule="evenodd" d="M49.1541 24.5294C49.085 23.9864 49.2167 23.5019 49.6876 23.1406L54.895 18.55L47.6832 17.5831C47.0806 17.5225 46.6141 17.2197 46.3463 16.7372L43.0741 10.8184L39.8688 16.7372C39.601 17.2217 39.1345 17.5225 38.534 17.5831L31.3223 18.55L36.5297 23.1425C36.9962 23.5039 37.1301 23.9883 37.0632 24.5314L35.7953 30.9933L42.3397 27.9128C42.5406 27.7917 42.8084 27.7331 43.0741 27.7331C43.4088 27.7331 43.6745 27.7936 43.8775 27.9128L50.4219 30.9933L49.1541 24.5294Z" fill="#DB4C77"/>
<path d="M43.0742 45.9121V66.8723" stroke="#0E559C" stroke-width="3" stroke-miterlimit="10"/>
<path fill-rule="evenodd" clip-rule="evenodd" d="M14.4235 30.6322V9.42976V8.94531H13.89H2.53349H2V9.42976V22.6583C2 24.8931 2.93522 27.0672 4.60479 28.6378C6.34132 30.2083 8.61133 31.1147 11.0153 31.1147H13.8879H14.4214L14.4235 30.6322Z" fill="#0E559C" stroke="#0E559C" stroke-width="3" stroke-miterlimit="10"/>
<path fill-rule="evenodd" clip-rule="evenodd" d="M71.7935 30.6322V9.42976V8.94531H72.3269H83.6792H84.2127V9.42976V22.6583C84.2127 24.8931 83.2774 27.0672 81.6079 28.6378C79.8735 30.2083 77.6035 31.1147 75.1974 31.1147H72.3269H71.7935V30.6322Z" fill="#0E559C" stroke="#0E559C" stroke-width="3" stroke-miterlimit="10"/>
</svg>
