<svg width="83" height="85" viewBox="0 0 83 85" fill="none" xmlns="http://www.w3.org/2000/svg">
<path fill-rule="evenodd" clip-rule="evenodd" d="M41.534 16.2722C46.4472 16.2722 50.5299 12.6367 50.5299 8.13609C50.5299 3.69249 46.4472 0 41.534 0C36.5578 0 32.5381 3.69249 32.5381 8.13609C32.5358 12.6387 36.5578 16.2722 41.534 16.2722Z" fill="#DB4C77"/>
<path d="M10.5261 34.6797H12.3761C31.8984 34.6797 51.1011 34.6797 70.6864 34.6797H72.4735C74.1975 34.6797 74.2605 37.2201 72.4735 37.2201H70.6864H65.9015V42.8748V44.489C65.9015 46.0482 63.0319 46.1052 63.0319 44.489V42.8748V37.2201H49.6337H49.4446H33.5572H33.3659H19.9676V42.8748V44.489C19.9676 46.0482 17.1611 46.1052 17.1611 44.489V42.8748V37.2201H12.3761H10.5261C8.80434 37.2201 8.86736 34.6797 10.5261 34.6797Z" fill="#0E559C" stroke="white" stroke-width="1.19448" stroke-miterlimit="10"/>
<path fill-rule="evenodd" clip-rule="evenodd" d="M41.534 64.8585C46.4472 64.8585 50.5299 61.166 50.5299 56.7203C50.5299 52.2197 46.4472 48.5293 41.534 48.5293C36.5578 48.5293 32.5381 52.2197 32.5381 56.7203C32.5358 61.164 36.5578 64.8585 41.534 64.8585Z" fill="#DB4C77"/>
<path fill-rule="evenodd" clip-rule="evenodd" d="M70.6234 64.8585C75.5996 64.8585 79.6823 61.166 79.6823 56.7203C79.6823 52.2197 75.5996 48.5293 70.6234 48.5293C65.7101 48.5293 61.6274 52.2197 61.6274 56.7203C61.6274 61.164 65.7124 64.8585 70.6234 64.8585Z" fill="#DB4C77"/>
<path fill-rule="evenodd" clip-rule="evenodd" d="M12.3763 64.8585C17.3525 64.8585 21.3722 61.166 21.3722 56.7203C21.3722 52.2197 17.3525 48.5293 12.3763 48.5293C7.40006 48.5293 3.38037 52.2197 3.38037 56.7203C3.38037 61.164 7.40006 64.8585 12.3763 64.8585Z" fill="#DB4C77"/>
<path fill-rule="evenodd" clip-rule="evenodd" d="M18.7571 68.9531H5.93276C4.33929 68.9531 2.80658 69.5292 1.78703 70.5124C0.702209 71.4935 0 72.8777 0 74.3209V84.0732H2.80883H3.00014H21.7549H21.9462H24.7528V74.3209C24.7528 72.8777 24.0506 71.4935 22.9658 70.5124C21.8832 69.5312 20.4158 68.9531 18.7571 68.9531Z" fill="#0E559C"/>
<path fill-rule="evenodd" clip-rule="evenodd" d="M47.912 68.9531H35.09C33.4943 68.9531 31.9638 69.5292 30.879 70.5124C29.7942 71.4955 29.1572 72.8777 29.1572 74.3209V84.0732H31.9638H32.1551H50.8492H51.1035H53.847V74.3209C53.847 72.8777 53.2101 71.4935 52.123 70.5124C51.0382 69.5312 49.573 68.9531 47.912 68.9531Z" fill="#0E559C"/>
<path fill-rule="evenodd" clip-rule="evenodd" d="M77.0694 68.9531H64.2451C62.5863 68.9531 61.1166 69.5292 60.0341 70.5124C58.9493 71.4935 58.3101 72.8777 58.3101 74.3209V84.0732H61.0536H61.3079H80.002H80.2563H82.9999V74.3209C82.9999 72.8777 82.3629 71.4935 81.2781 70.5124C80.1933 69.5312 78.7281 68.9531 77.0694 68.9531Z" fill="#0E559C"/>
<path d="M29.1553 34.4505V34.0475V24.9282C29.1553 23.487 29.7922 22.1008 30.877 21.1787C31.9619 20.1976 33.4923 19.5625 35.088 19.5625H47.9101C49.5711 19.5625 51.0385 20.1976 52.1211 21.1787C53.2059 22.1008 53.8451 23.487 53.8451 24.9282V34.2755V34.4485L29.1553 34.4505Z" fill="#0E559C"/>
<path fill-rule="evenodd" clip-rule="evenodd" d="M46.5075 19.9082H36.5551C36.3638 19.9082 36.1725 20.0242 36.1072 20.1973C36.0442 20.3134 36.1072 20.4864 36.2355 20.6004L38.9138 23.0823C39.1051 23.1983 39.3594 23.1983 39.5507 23.0823L41.2095 21.5818C41.3377 21.4087 41.6551 21.4087 41.8464 21.5818L43.5051 23.0823C43.6334 23.1983 43.9508 23.1983 44.0791 23.0823L46.8226 20.6004C46.9532 20.4844 46.9532 20.3113 46.8856 20.1973C46.8271 20.0242 46.6988 19.9082 46.5075 19.9082Z" fill="white"/>
</svg>
