<svg width="76" height="74" viewBox="0 0 76 74" fill="none" xmlns="http://www.w3.org/2000/svg">
<path fill-rule="evenodd" clip-rule="evenodd" d="M4.19769 7.33203H62.5505C64.0908 7.33203 65.3496 8.47056 65.3496 9.86358V54.6248C65.3496 56.0595 64.0891 57.198 62.5505 57.198H4.19769C2.65746 57.198 1.35254 56.058 1.35254 54.6248V9.86358C1.35254 8.47056 2.65746 7.33203 4.19769 7.33203Z" fill="white"/>
<path d="M13.3403 21.2539C12.3135 21.2539 11.522 22.0131 11.522 22.8988C11.522 23.8276 12.3151 24.5868 13.3403 24.5868C14.3655 24.5868 15.2064 23.8276 15.2064 22.8988C15.2064 22.0131 14.3671 21.2539 13.3403 21.2539Z" fill="#DB4C77"/>
<path d="M20.0575 21.5078C19.4519 21.5078 18.9385 21.9722 18.9385 22.5617C18.9385 23.1512 19.4519 23.6171 20.0575 23.6171H47.5315C48.1388 23.6171 48.6982 23.1527 48.6982 22.5617C48.6982 21.9708 48.1388 21.5078 47.5315 21.5078H20.0575Z" fill="#DB4C77"/>
<path d="M13.3403 26.1895C12.3135 26.1895 11.522 26.9486 11.522 27.8775C11.522 28.8064 12.3151 29.5655 13.3403 29.5655C14.3655 29.5655 15.2064 28.8064 15.2064 27.8775C15.2064 26.9486 14.3671 26.1895 13.3403 26.1895Z" fill="#DB4C77"/>
<path d="M20.0575 26.4844C19.4519 26.4844 18.9385 26.9488 18.9385 27.4981C18.9385 28.0876 19.4519 28.552 20.0575 28.552H47.6731C48.2786 28.552 48.8381 28.0876 48.8381 27.4981C48.8381 26.9488 48.2786 26.4844 47.6731 26.4844H20.0575Z" fill="#DB4C77"/>
<path fill-rule="evenodd" clip-rule="evenodd" d="M55.6939 38.0449H69.1742C74.1652 38.0449 77.1025 43.9504 75.6116 47.1978L73.604 51.5435V71.0756C73.604 72.1724 72.5328 73.1011 71.2262 73.1011H67.8677C66.9824 73.1428 66.4212 72.8064 66.2814 72.0043L64.9748 65.3815L63.4362 59.854L61.896 65.3815L60.5433 72.3838C60.4972 72.8064 60.2175 73.0594 59.7024 73.1011H55.6906C54.384 73.1011 53.2651 72.1724 53.2651 71.0756V51.5867H35.4043C32.7928 51.5867 30.647 50.1937 30.647 47.9583C30.647 45.7229 32.7928 44.2897 35.4043 44.2897H47.7179L53.6896 38.9736C54.1092 38.4229 54.8563 38.0449 55.6939 38.0449ZM69.1759 40.1538H55.7416L55.6017 40.322L55.4619 40.4485H55.4158L49.4918 45.7214L48.7447 46.3971H47.7179H35.4043C34.6572 46.3971 34.0516 46.5653 33.632 46.9031C33.3062 47.1561 33.1186 47.4939 33.1186 47.9568C33.1186 48.3795 33.3062 48.759 33.632 49.012C34.0516 49.3081 34.6588 49.4778 35.4043 49.4778H53.27H55.7877V51.5867V70.9922H58.307L59.4721 65.0451V64.9186L61.0123 59.3495L63.4395 50.7012L65.865 59.3495L67.4053 64.9186L67.4513 65.0451L68.618 70.9922H71.1357V51.5435V51.1223L71.3217 50.7845L73.3276 46.4388C73.4675 46.1009 73.5613 45.6797 73.5613 45.2571C73.5613 44.2882 73.1877 43.233 72.5822 42.3043C72.0227 41.4188 71.2756 40.7015 70.3442 40.3636C69.9674 40.2386 69.5955 40.1538 69.1759 40.1538Z" fill="black"/>
<path fill-rule="evenodd" clip-rule="evenodd" d="M55.6939 38.0449H69.1742C74.1652 38.0449 77.1025 43.9504 75.6116 47.1978L73.604 51.5435V71.0756C73.604 72.1724 72.5328 73.1011 71.2262 73.1011H67.8677C66.9824 73.1428 66.4212 72.8064 66.2814 72.0043L64.9748 65.3815L63.4362 59.854L61.896 65.3815L60.5433 72.3838C60.4972 72.8064 60.2175 73.0594 59.7024 73.1011H55.6906C54.384 73.1011 53.2651 72.1724 53.2651 71.0756V51.5867H35.4043C32.7928 51.5867 30.647 50.1937 30.647 47.9583C30.647 45.7229 32.7928 44.2897 35.4043 44.2897H47.7179L53.6896 38.9736C54.1092 38.4229 54.8563 38.0449 55.6939 38.0449Z" fill="#0E559C"/>
<path fill-rule="evenodd" clip-rule="evenodd" d="M64.0907 21.8008C68.2885 21.8008 71.6932 24.88 71.6932 28.6781C71.6932 32.4761 68.2885 35.5554 64.0907 35.5554C59.8929 35.5554 56.4883 32.4761 56.4883 28.6781C56.4883 24.88 59.8929 21.8008 64.0907 21.8008ZM67.3094 25.7655C66.4685 25.0065 65.3512 24.5422 64.0907 24.5422C62.8302 24.5422 61.6652 25.0065 60.8259 25.7655C60.0344 26.4829 59.5194 27.5381 59.5194 28.6766C59.5194 29.8151 60.0344 30.8703 60.8259 31.5876C61.6668 32.3467 62.8319 32.811 64.0907 32.811C65.3496 32.811 66.4685 32.3467 67.3094 31.6308V31.5891C68.1486 30.8718 68.616 29.8166 68.616 28.6781C68.616 27.5395 68.1486 26.4829 67.3094 25.7655Z" fill="black"/>
<path fill-rule="evenodd" clip-rule="evenodd" d="M64.0907 21.8008C68.2885 21.8008 71.6932 24.88 71.6932 28.6781C71.6932 32.4761 68.2885 35.5554 64.0907 35.5554C59.8929 35.5554 56.4883 32.4761 56.4883 28.6781C56.4883 24.88 59.8929 21.8008 64.0907 21.8008Z" fill="#0E559C"/>
<path d="M49.2118 58.3773H41.7937L50.0971 71.3714C50.0033 72.5516 49.4455 73.1008 47.9513 72.5099L38.9008 58.3773H34.5631V72.0471C33.816 72.8909 33.0229 73.0606 32.0438 72.0471V58.3773H27.7061L18.6572 72.5099C17.1647 73.1008 16.6036 72.5516 16.5114 71.3714L24.8149 58.3773H5.13082C3.73211 58.3773 2.42554 57.8296 1.49251 56.9843C0.559488 56.1836 0 55.0019 0 53.7354V10.7899C0 9.52486 0.559488 8.34317 1.49251 7.49933C2.42554 6.69715 3.73211 6.14947 5.13082 6.14947H32.0454V0.791696C32.9785 -0.305159 33.7716 -0.221816 34.5648 0.791696V6.14947H61.4777C62.1787 6.14947 62.8304 6.27597 63.4376 6.4873C64.0432 6.74031 64.6026 7.07814 65.1177 7.541C65.5834 7.96367 65.9569 8.46968 66.2367 9.01736C66.4703 9.56653 66.6102 10.1574 66.6102 10.7884C66.5641 13.7411 66.5641 15.4288 66.5641 18.3399C66.5641 19.6897 64.0925 19.6897 64.0925 18.3399L64.1386 10.7884C64.1386 10.4506 64.0448 10.1559 63.9526 9.85972C63.8128 9.60672 63.6268 9.35371 63.3471 9.1007C63.1118 8.8477 62.786 8.67952 62.5062 8.55153C62.1804 8.4667 61.8546 8.38336 61.4794 8.38336H5.13082C4.38374 8.38336 3.73211 8.67952 3.26477 9.1007C2.79908 9.52337 2.47162 10.1127 2.47162 10.7884V53.7339C2.47162 54.3679 2.79908 55.0004 3.26477 55.4216C3.73211 55.8443 4.38374 56.0973 5.13082 56.0973H49.2118C50.6566 56.1003 50.6105 58.3773 49.2118 58.3773Z" fill="#0E559C"/>
<path d="M13.3403 31.377C12.3135 31.377 11.522 32.1361 11.522 33.065C11.522 33.9939 12.3151 34.753 13.3403 34.753C14.3655 34.753 15.2064 33.9939 15.2064 33.065C15.2064 32.1376 14.3671 31.377 13.3403 31.377Z" fill="#DB4C77"/>
<path d="M20.0575 31.6738C19.4519 31.6738 18.9385 32.1383 18.9385 32.7277C18.9385 33.277 19.4519 33.74 20.0575 33.74H47.6731C48.2786 33.74 48.8381 33.2755 48.8381 32.7277C48.8381 32.1368 48.2786 31.6738 47.6731 31.6738H20.0575Z" fill="#DB4C77"/>
</svg>
