<svg width="29" height="44" viewBox="0 0 29 44" fill="none" xmlns="http://www.w3.org/2000/svg">
<path d="M3.5 39.25H3.25V39.5V41V41.25H3.5H25.5H25.75V41V39.5V39.25H25.5H3.5ZM3.25 36.5V36.75H3.5H25.5H25.75V36.5V7.5V7.25H25.5H3.5H3.25V7.5V36.5ZM3.25 4.5V4.75H3.5H25.5H25.75V4.5V3V2.75H25.5H3.5H3.25V3V4.5ZM6.55 11.75V9.25H22.45V11.75H6.55ZM3.5 43.75C2.77064 43.75 2.13305 43.4795 1.57678 42.9232C1.0205 42.367 0.75 41.7294 0.75 41V3C0.75 2.27064 1.0205 1.63305 1.57678 1.07678C2.13305 0.520505 2.77064 0.25 3.5 0.25H25.5C26.2294 0.25 26.8669 0.520504 27.4232 1.07678C27.9795 1.63305 28.25 2.27064 28.25 3V41C28.25 41.7294 27.9795 42.367 27.4232 42.9232C26.8669 43.4795 26.2294 43.75 25.5 43.75H3.5Z" fill="#666666" stroke="white" stroke-width="0.5"/>
</svg>
