<svg width="26" height="27" viewBox="0 0 26 27" fill="none" xmlns="http://www.w3.org/2000/svg">
<g clip-path="url(#clip0_3423_2199)">
<path d="M7.24729 23.3244L7.11131 23.4613V24.2825L7.24729 24.4194H19.2938L19.4297 24.2825V23.4613L19.2938 23.3244H7.24729ZM7.11131 21.8197V21.9557H7.24729H19.2938H19.4297V21.8197V5.94087V5.8031H19.2938H7.24729H7.11131V5.93997V21.8197ZM7.11131 4.29752L7.24729 4.43439H19.2938L19.4297 4.29752V3.47629L19.2938 3.33942H7.24729L7.11131 3.47629V4.29752ZM7.24729 25.789C6.8483 25.789 6.49941 25.6405 6.19436 25.3364C5.88931 25.0304 5.7417 24.6824 5.7417 24.2825V3.47629C5.7417 3.0773 5.88931 2.72842 6.19436 2.42336C6.49941 2.1192 6.84741 1.9707 7.24729 1.9707H19.2938C19.6936 1.9707 20.0416 2.1192 20.3476 2.42336C20.6517 2.72842 20.8002 3.0773 20.8002 3.47629V24.2834C20.8002 24.6824 20.6517 25.0313 20.3476 25.3372C20.0416 25.6414 19.6945 25.7899 19.2938 25.7899L7.24729 25.789Z" fill="#676767"/>
<path d="M9.82703 7.13672C9.32875 7.13672 8.91992 7.43551 8.91992 7.8014C8.91992 8.16549 9.32875 8.46518 9.82703 8.46518H16.7153C17.2154 8.46518 17.6224 8.16639 17.6224 7.8014C17.6224 7.43551 17.2154 7.13672 16.7153 7.13672H9.82703Z" fill="#676767"/>
</g>
<defs>
<clipPath id="clip0_3423_2199">
<rect width="26" height="26" fill="white" transform="translate(0 0.675781)"/>
</clipPath>
</defs>
</svg>
