<svg width="26" height="27" viewBox="0 0 26 27" fill="none" xmlns="http://www.w3.org/2000/svg">
<path d="M19.2648 4.41992H6.69506C5.48813 4.41992 4.50977 5.35041 4.50977 6.49711V14.7866C4.50977 15.9333 5.4889 16.8638 6.69506 16.8638H19.2648C20.4717 16.8638 21.4501 15.9333 21.4501 14.7866V6.49711C21.4501 5.35041 20.4717 4.41992 19.2648 4.41992ZM7.28656 5.94577H18.6756C19.2215 5.94577 19.6648 6.36661 19.6648 6.88707V14.3974C19.6648 14.9178 19.2215 15.3387 18.6756 15.3387H7.28656C6.73908 15.3387 6.29584 14.9178 6.29584 14.3974V6.88707C6.29584 6.36661 6.73908 5.94577 7.28656 5.94577Z" fill="#676767"/>
<path d="M9.72986 8.08984C9.28199 8.08984 8.91675 8.43733 8.91675 8.86203C8.91675 9.28674 9.28199 9.63422 9.72986 9.63422C10.1762 9.63422 10.543 9.28751 10.543 8.86203C10.543 8.43656 10.1762 8.08984 9.72986 8.08984Z" fill="#676767"/>
<path d="M12.6756 8.21094C12.3968 8.21094 12.1675 8.42869 12.1675 8.69356C12.1675 8.95919 12.3968 9.17617 12.6756 9.17617H16.5358C16.8161 9.17617 17.0439 8.95996 17.0439 8.69356C17.0439 8.42869 16.8161 8.21094 16.5358 8.21094H12.6756Z" fill="#676767"/>
<path d="M9.72986 10.3691C9.28199 10.3691 8.91675 10.7182 8.91675 11.1413C8.91675 11.566 9.28199 11.9127 9.72986 11.9127C10.1762 11.9127 10.543 11.566 10.543 11.1413C10.543 10.7182 10.1762 10.3691 9.72986 10.3691Z" fill="#676767"/>
<path d="M12.6756 10.4941C12.3968 10.4941 12.1675 10.7111 12.1675 10.9768C12.1675 11.2416 12.3968 11.4594 12.6756 11.4594H16.5358C16.8161 11.4594 17.0439 11.2416 17.0439 10.9768C17.0439 10.7111 16.8161 10.4941 16.5358 10.4941H12.6756Z" fill="#676767"/>
<path d="M12.98 3.66016V4.3088" stroke="#676767" stroke-width="2.96996" stroke-linecap="round"/>
<path d="M12.98 16.0684C13.4264 16.0684 13.7963 16.3556 13.8418 16.7216L13.8449 16.7965V22.7316C13.8449 23.1339 13.4588 23.4582 12.98 23.4582C12.5337 23.4582 12.1638 23.1733 12.1206 22.8049L12.116 22.7308V16.7958C12.116 16.395 12.5036 16.0684 12.98 16.0684Z" fill="#676767"/>
<path d="M15.4904 15.9501C15.8572 15.6938 16.3576 15.7679 16.6487 16.1061L16.7043 16.1787L20.8409 22.086C21.1197 22.486 21.0309 23.0319 20.6386 23.306C20.2734 23.5608 19.7714 23.4883 19.4803 23.1493L19.4247 23.0767L15.2897 17.1694C15.0078 16.7702 15.0997 16.2235 15.4904 15.9501Z" fill="#676767"/>
<path d="M10.5799 15.8781C10.946 16.1344 11.0463 16.6348 10.827 17.0271L10.7761 17.1051L6.60316 23.0664C6.32053 23.4702 5.77614 23.5745 5.38464 23.3004C5.01785 23.0455 4.91669 22.5444 5.13908 22.1513L5.18773 22.0749L9.36142 16.1144C9.64327 15.7105 10.1892 15.6055 10.5799 15.8781Z" fill="#676767"/>
</svg>
