<svg width="32" height="40" viewBox="0 0 32 40" fill="none" xmlns="http://www.w3.org/2000/svg">
<path d="M27.6087 4.35938H4.39111C2.16108 4.35938 0.353271 6.16718 0.353271 8.39722V24.518C0.353271 26.748 2.16108 28.5558 4.39111 28.5558H27.6087C29.8387 28.5558 31.6466 26.748 31.6466 24.518V8.39722C31.6466 6.16718 29.8387 4.35938 27.6087 4.35938ZM4.39111 6.3783H27.6087C28.7237 6.3783 29.6276 7.2822 29.6276 8.39722V24.518C29.6276 25.633 28.7237 26.5369 27.6087 26.5369H4.39111C3.27609 26.5369 2.37219 25.633 2.37219 24.518V8.39722C2.37219 7.2822 3.27609 6.3783 4.39111 6.3783Z" fill="#666666"/>
<path d="M9.9949 11.4922C9.16921 11.4922 8.49365 12.1677 8.49365 12.9934C8.49365 13.8191 9.16921 14.4947 9.9949 14.4947C10.8206 14.4947 11.4962 13.8191 11.4962 12.9934C11.4962 12.1677 10.8206 11.4922 9.9949 11.4922Z" fill="#666666"/>
<path d="M15.4371 11.7305C14.921 11.7305 14.4988 12.1527 14.4988 12.6687C14.4988 13.1848 14.921 13.607 15.4371 13.607H22.568C23.084 13.607 23.5063 13.1848 23.5063 12.6687C23.5063 12.1527 23.084 11.7305 22.568 11.7305H15.4371Z" fill="#666666"/>
<path d="M9.9949 15.9297C9.16921 15.9297 8.49365 16.6052 8.49365 17.4309C8.49365 18.2566 9.16921 18.9322 9.9949 18.9322C10.8206 18.9322 11.4962 18.2566 11.4962 17.4309C11.4962 16.6052 10.8206 15.9297 9.9949 15.9297Z" fill="#666666"/>
<path d="M15.4371 16.168C14.921 16.168 14.4988 16.5902 14.4988 17.1062C14.4988 17.6223 14.921 18.0445 15.4371 18.0445H22.568C23.084 18.0445 23.5063 17.6223 23.5063 17.1062C23.5063 16.5902 23.084 16.168 22.568 16.168H15.4371Z" fill="#666666"/>
<path d="M16 1.82031V4.14042" stroke="#666666" stroke-width="2.5" stroke-linecap="round"/>
<path d="M8.95388 28.3091C9.33343 27.7247 10.1149 27.5585 10.6994 27.9381C11.2449 28.2923 11.4259 28.9967 11.1391 29.5642L11.0704 29.6836L5.45841 38.3253C5.07886 38.9097 4.29738 39.0758 3.71292 38.6963C3.16742 38.342 2.98636 37.6377 3.27323 37.0701L3.3419 36.9508L8.95388 28.3091Z" fill="#666666"/>
<path d="M23.2004 28.3091C22.8209 27.7247 22.0394 27.5585 21.4549 27.9381C20.9094 28.2923 20.7284 28.9967 21.0152 29.5642L21.0839 29.6836L26.6959 38.3253C27.0754 38.9097 27.8569 39.0758 28.4414 38.6963C28.9869 38.342 29.1679 37.6377 28.8811 37.0701L28.8124 36.9508L23.2004 28.3091Z" fill="#666666"/>
<path d="M15.9999 27.1719C16.6532 27.1719 17.1906 27.6684 17.2552 28.3047L17.2617 28.4337V38.7377C17.2617 39.4346 16.6968 39.9996 15.9999 39.9996C15.3465 39.9996 14.8092 39.503 14.7446 38.8667L14.738 38.7377V28.4337C14.738 27.7368 15.303 27.1719 15.9999 27.1719Z" fill="#666666"/>
</svg>
