<svg width="22" height="24" viewBox="0 0 22 24" fill="none" xmlns="http://www.w3.org/2000/svg">
<path d="M5.5044 18.7929H6.83714L14.5414 11.1528L13.1436 9.75506L5.5044 17.3943V18.7929ZM15.2238 10.4375L16.2973 9.36573C16.4265 9.23566 16.4924 9.08392 16.4924 8.9105C16.4924 8.73794 16.4273 8.58533 16.2973 8.45613L15.842 8.0009C15.712 7.87083 15.5594 7.8058 15.3868 7.8058C15.2143 7.8058 15.0625 7.87083 14.9324 8.0009L13.8598 9.07351L15.2238 10.4375ZM2.70884 23.7016C2.12355 23.7016 1.62496 23.4961 1.21308 23.0834C0.801207 22.6715 0.595703 22.1729 0.595703 21.5876V5.00852C0.595703 4.42322 0.801207 3.92463 1.21308 3.51362C1.62496 3.10175 2.12268 2.89624 2.70884 2.89624H8.81935C8.68928 2.22424 8.84102 1.62246 9.27458 1.09093C9.70813 0.560257 10.2822 0.294922 10.9975 0.294922C11.7129 0.294922 12.293 0.560257 12.7369 1.09093C13.1809 1.6216 13.3266 2.22424 13.1757 2.89624H19.2862C19.8724 2.89624 20.3701 3.10175 20.782 3.51362C21.1947 3.9255 21.4002 4.42322 21.4002 5.00852V21.5876C21.4002 22.1729 21.1947 22.6715 20.782 23.0834C20.3701 23.4961 19.8724 23.7016 19.2862 23.7016H2.70884ZM3.12332 21.9448H18.8726C19.0781 21.9448 19.2576 21.8677 19.4119 21.7125C19.568 21.5581 19.6452 21.3786 19.6452 21.1731V5.42386C19.6452 5.21836 19.568 5.038 19.4119 4.88452C19.2576 4.72931 19.0781 4.65127 18.8726 4.65127H3.12332C2.91781 4.65127 2.73746 4.72844 2.58311 4.88452C2.4279 5.038 2.35073 5.21836 2.35073 5.42386V21.174C2.35073 21.3795 2.4279 21.559 2.58311 21.7133C2.73746 21.8677 2.91781 21.9448 3.12332 21.9448ZM10.9984 3.48067C11.2802 3.48067 11.5134 3.38876 11.6973 3.20407C11.882 3.01937 11.973 2.78699 11.973 2.50518C11.973 2.22337 11.882 1.99012 11.6973 1.80542C11.5134 1.62246 11.2793 1.53055 10.9984 1.53055C10.7166 1.53055 10.4833 1.62246 10.3004 1.80629C10.1157 1.99012 10.0238 2.22423 10.0238 2.50604C10.0238 2.78785 10.1157 3.02024 10.3004 3.20493C10.4833 3.38876 10.7157 3.48067 10.9984 3.48067Z" fill="#676767"/>
</svg>
