<svg width="54" height="54" viewBox="0 0 54 54" fill="none" xmlns="http://www.w3.org/2000/svg">
<mask id="mask0_2858_5621" style="mask-type:alpha" maskUnits="userSpaceOnUse" x="0" y="0" width="54" height="54">
<rect width="53.877" height="53.877" fill="#D9D9D9"/>
</mask>
<g mask="url(#mask0_2858_5621)">
<path d="M17.4744 31.9333H19.7754L33.0763 18.7447L30.663 16.3315L17.4744 29.5201V31.9333ZM34.2548 17.51L36.1068 15.658C36.3313 15.4335 36.4436 15.1716 36.4436 14.8723C36.4436 14.573 36.3313 14.3111 36.1068 14.0866L35.3211 13.3009C35.0966 13.0764 34.8347 12.9641 34.5354 12.9641C34.2361 12.9641 33.9742 13.0764 33.7497 13.3009L31.8977 15.1529L34.2548 17.51ZM12.6479 40.4077C11.6377 40.4077 10.7772 40.0523 10.0663 39.3414C9.35544 38.6305 9 37.77 9 36.7598V8.13766C9 7.12747 9.35544 6.26694 10.0663 5.55606C10.7772 4.84518 11.6377 4.48975 12.6479 4.48975H23.1988C22.9743 3.3299 23.2362 2.29127 23.9845 1.37386C24.7328 0.457954 25.7243 0 26.959 0C28.1937 0 29.1949 0.457954 29.9626 1.37386C30.7289 2.29127 30.981 3.3299 30.7191 4.48975H41.2701C42.2802 4.48975 43.1408 4.84518 43.8517 5.55606C44.5625 6.26694 44.918 7.12747 44.918 8.13766V36.7598C44.918 37.77 44.5625 38.6305 43.8517 39.3414C43.1408 40.0523 42.2802 40.4077 41.2701 40.4077H12.6479ZM12.6479 38.1628H41.2701C41.6442 38.1628 41.9712 38.0222 42.2511 37.7408C42.5324 37.4609 42.6731 37.1339 42.6731 36.7598V8.13766C42.6731 7.76352 42.5324 7.43652 42.2511 7.15666C41.9712 6.8753 41.6442 6.73462 41.2701 6.73462H12.6479C12.2738 6.73462 11.9468 6.8753 11.6669 7.15666C11.3856 7.43652 11.2449 7.76352 11.2449 8.13766V36.7598C11.2449 37.1339 11.3856 37.4609 11.6669 37.7408C11.9468 38.0222 12.2738 38.1628 12.6479 38.1628ZM26.959 5.49994C27.4454 5.49994 27.848 5.34055 28.1667 5.02178C28.484 4.70451 28.6426 4.30267 28.6426 3.81628C28.6426 3.3299 28.484 2.92731 28.1667 2.60854C27.848 2.29127 27.4454 2.13263 26.959 2.13263C26.4726 2.13263 26.0708 2.29127 25.7535 2.60854C25.4347 2.92731 25.2753 3.3299 25.2753 3.81628C25.2753 4.30267 25.4347 4.70451 25.7535 5.02178C26.0708 5.34055 26.4726 5.49994 26.959 5.49994Z" fill="#666666"/>
</g>
</svg>
