<svg width="26" height="27" viewBox="0 0 26 27" fill="none" xmlns="http://www.w3.org/2000/svg">
<path d="M16.3565 3.87109H10.3479C9.05418 3.87109 8.00635 4.91968 8.00635 6.21267V9.48289H18.6974V6.21267C18.6974 4.91968 17.6488 3.87109 16.3565 3.87109ZM16.3565 5.43265L16.4463 5.43793C16.8356 5.48319 17.1358 5.81286 17.1358 6.21267V7.92209H9.56564L9.5664 6.21267C9.5664 5.78193 9.91567 5.43265 10.3472 5.43265H16.3565Z" fill="#676767"/>
<path d="M21.195 7.92383H4.80618C3.08243 7.92383 1.68457 9.32244 1.68457 11.0462V20.3024C1.68457 22.0269 3.08243 23.4247 4.80618 23.4247H21.195C22.9187 23.4247 24.3158 22.0269 24.3158 20.3024V11.0462C24.3151 9.32244 22.9187 7.92383 21.195 7.92383ZM4.80618 9.48538H21.195C22.0572 9.48538 22.755 10.1847 22.755 11.0462V20.3024C22.755 21.1646 22.0565 21.8632 21.195 21.8632H4.80618C3.94392 21.8632 3.24537 21.1639 3.24537 20.3024V11.0462C3.24537 10.1839 3.94392 9.48538 4.80618 9.48538Z" fill="#676767"/>
<path d="M22.9897 15.0391V15.8885H2.69922V15.0391H22.9897Z" fill="#676767"/>
<path d="M12.8237 18.2393C14.2786 18.2393 15.458 17.0599 15.458 15.605C15.458 14.1501 14.2786 12.9707 12.8237 12.9707C11.3689 12.9707 10.1895 14.1501 10.1895 15.605C10.1895 17.0599 11.3689 18.2393 12.8237 18.2393Z" fill="#676767"/>
</svg>
