<svg width="36" height="30" viewBox="0 0 36 30" fill="none" xmlns="http://www.w3.org/2000/svg">
<path d="M22.9499 0H13.755C11.7765 0 10.1726 1.6039 10.1726 3.58242V8.58586H26.5323V3.58242C26.5323 1.6039 24.9284 0 22.9499 0ZM22.9499 2.38828L23.0892 2.39631C23.683 2.46529 24.144 2.97002 24.144 3.58242L24.1428 6.19758H12.5597L12.5609 3.58242C12.5609 2.92291 13.0955 2.38828 13.755 2.38828H22.9499Z" fill="#666666"/>
<path d="M30.3535 6.19922H5.27656C2.63854 6.19922 0.5 8.33776 0.5 10.9758V25.1401C0.5 27.7781 2.63854 29.9167 5.27656 29.9167H30.3535C32.9915 29.9167 35.13 27.7781 35.13 25.1401V10.9758C35.13 8.33776 32.9915 6.19922 30.3535 6.19922ZM5.27656 8.5875H30.3535C31.6725 8.5875 32.7418 9.65677 32.7418 10.9758V25.1401C32.7418 26.4591 31.6725 27.5284 30.3535 27.5284H5.27656C3.95755 27.5284 2.88828 26.4591 2.88828 25.1401V10.9758C2.88828 9.65677 3.95755 8.5875 5.27656 8.5875Z" fill="#666666"/>
<path d="M33.1001 17.0898V18.3891H2.05249V17.0898H33.1001Z" fill="#666666"/>
<path d="M17.5463 21.9862C19.7722 21.9862 21.5766 20.1818 21.5766 17.956C21.5766 15.7302 19.7722 13.9258 17.5463 13.9258C15.3205 13.9258 13.5161 15.7302 13.5161 17.956C13.5161 20.1818 15.3205 21.9862 17.5463 21.9862Z" fill="#666666"/>
</svg>
