<svg width="26" height="27" viewBox="0 0 26 27" fill="none" xmlns="http://www.w3.org/2000/svg">
<g clip-path="url(#clip0_3423_2215)">
<path d="M4.97801 11.4113C4.61672 11.4113 4.32275 11.1181 4.32275 10.756C4.32275 10.3947 4.6159 10.1016 4.97801 10.1016C5.34013 10.1016 5.63328 10.3947 5.63328 10.756C5.63328 11.1181 5.33849 11.4113 4.97801 11.4113ZM4.97801 10.43C4.79819 10.43 4.65203 10.577 4.65203 10.7568C4.65203 10.9375 4.79901 11.0853 4.97801 11.0853C5.15702 11.0853 5.30482 10.9375 5.30482 10.7568C5.30482 10.577 5.15784 10.43 4.97801 10.43Z" fill="#676767"/>
<path d="M20.4563 7.35439C20.4128 7.35439 20.3725 7.33715 20.3405 7.30677L19.1359 6.10299C19.0735 6.03894 19.0735 5.93548 19.1359 5.87225C19.2 5.80821 19.3026 5.80821 19.3667 5.87225L20.5696 7.07521C20.6337 7.13926 20.6337 7.24272 20.5696 7.30677C20.5392 7.33715 20.499 7.35439 20.4563 7.35439Z" fill="#676767"/>
<path d="M19.2533 7.35439C19.2098 7.35439 19.1696 7.33715 19.1359 7.30677C19.0735 7.24272 19.0735 7.13926 19.1359 7.07521L20.3405 5.87225C20.4046 5.80821 20.5072 5.80821 20.5696 5.87225C20.6337 5.9363 20.6337 6.03894 20.5696 6.10299L19.3667 7.30677C19.3363 7.33715 19.2952 7.35439 19.2533 7.35439Z" fill="#676767"/>
<path d="M12.5283 13.2285V16.0245" stroke="#676767" stroke-width="2.52655" stroke-linecap="round"/>
<path d="M12.6177 16.418L8.82495 18.2409" stroke="#676767" stroke-width="2.52655" stroke-linecap="round"/>
<path d="M16.4129 18.3237L12.6177 16.5" stroke="#676767" stroke-width="2.52655" stroke-linecap="round"/>
<path d="M12.7507 8.60156C11.8565 8.60156 11.0822 9.1082 10.6987 9.85132C11.3179 10.1584 12.0142 10.3309 12.7507 10.3309C13.4873 10.3309 14.1836 10.1584 14.8027 9.85132C14.4193 9.1082 13.6449 8.60156 12.7507 8.60156Z" fill="#676767"/>
<path d="M12.5758 10.4348C14.6995 10.4348 16.4212 8.71321 16.4212 6.58949C16.4212 4.46576 14.6995 2.74414 12.5758 2.74414C10.4521 2.74414 8.73047 4.46576 8.73047 6.58949C8.73047 8.71321 10.4521 10.4348 12.5758 10.4348Z" stroke="#676767" stroke-width="1.92018"/>
<path d="M12.7508 7.63837C13.4265 7.63837 13.9743 7.0906 13.9743 6.41489C13.9743 5.73918 13.4265 5.19141 12.7508 5.19141C12.0751 5.19141 11.5273 5.73918 11.5273 6.41489C11.5273 7.0906 12.0751 7.63837 12.7508 7.63837Z" fill="#676767"/>
<path d="M3.94013 22.0488C3.20768 22.0488 2.57377 22.4643 2.25928 23.072C2.76673 23.324 3.33578 23.4653 3.94013 23.4653C4.54119 23.4653 5.1127 23.324 5.61687 23.072C5.3032 22.4643 4.67093 22.0488 3.94013 22.0488Z" fill="#676767"/>
<path d="M3.79565 23.5493C5.53299 23.5493 6.94139 22.1409 6.94139 20.4036C6.94139 18.6662 5.53299 17.2578 3.79565 17.2578C2.0583 17.2578 0.649902 18.6662 0.649902 20.4036C0.649902 22.1409 2.0583 23.5493 3.79565 23.5493Z" stroke="#676767" stroke-width="1.92018"/>
<path d="M3.94008 21.262C4.49244 21.262 4.94021 20.8142 4.94021 20.2619C4.94021 19.7095 4.49244 19.2617 3.94008 19.2617C3.38772 19.2617 2.93994 19.7095 2.93994 20.2619C2.93994 20.8142 3.38772 21.262 3.94008 21.262Z" fill="#676767"/>
<path d="M21.8562 22.0586C21.1229 22.0586 20.4899 22.4741 20.177 23.0817C20.6836 23.3338 21.2519 23.475 21.8562 23.475C22.4573 23.475 23.0288 23.3338 23.5338 23.0817C23.2193 22.4741 22.5854 22.0586 21.8562 22.0586Z" fill="#676767"/>
<path d="M21.7134 23.5591C23.4507 23.5591 24.8591 22.1507 24.8591 20.4133C24.8591 18.676 23.4507 17.2676 21.7134 17.2676C19.976 17.2676 18.5676 18.676 18.5676 20.4133C18.5676 22.1507 19.976 23.5591 21.7134 23.5591Z" stroke="#676767" stroke-width="1.92018"/>
<path d="M21.8561 21.2698C22.4085 21.2698 22.8562 20.822 22.8562 20.2697C22.8562 19.7173 22.4085 19.2695 21.8561 19.2695C21.3037 19.2695 20.856 19.7173 20.856 20.2697C20.856 20.822 21.3037 21.2698 21.8561 21.2698Z" fill="#676767"/>
</g>
<defs>
<clipPath id="clip0_3423_2215">
<rect width="26" height="26" fill="white" transform="translate(0 0.144531)"/>
</clipPath>
</defs>
</svg>
