<svg width="40" height="25" viewBox="0 0 40 25" fill="none" xmlns="http://www.w3.org/2000/svg">
<path d="M19.6631 16.6582V21.0711" stroke="#666666" stroke-width="1.22581" stroke-linecap="round"/>
<path d="M19.4047 21.1973L14.8345 22.4774" stroke="#666666" stroke-width="1.22581" stroke-linecap="round"/>
<path d="M24.3075 22.4785L19.7373 21.1984" stroke="#666666" stroke-width="1.22581" stroke-linecap="round"/>
<path d="M20.2147 10.1758C18.805 10.1758 17.5824 10.977 16.9775 12.1489C17.9526 12.6337 19.0518 12.9063 20.2147 12.9063C21.3776 12.9063 22.4767 12.6337 23.4518 12.1489C22.847 10.977 21.6244 10.1758 20.2147 10.1758Z" fill="#666666"/>
<path d="M19.9388 13.073C23.29 13.073 26.0066 10.3564 26.0066 7.00524C26.0066 3.65412 23.29 0.9375 19.9388 0.9375C16.5877 0.9375 13.8711 3.65412 13.8711 7.00524C13.8711 10.3564 16.5877 13.073 19.9388 13.073Z" stroke="#666666" stroke-width="1.22581"/>
<path d="M20.2148 8.66012C21.2811 8.66012 22.1455 7.79574 22.1455 6.72947C22.1455 5.66321 21.2811 4.79883 20.2148 4.79883C19.1486 4.79883 18.2842 5.66321 18.2842 6.72947C18.2842 7.79574 19.1486 8.66012 20.2148 8.66012Z" fill="#666666"/>
<path d="M6.19008 21.9785C5.03669 21.9785 4.03642 22.6341 3.5415 23.5929C4.33932 23.9895 5.23865 24.2125 6.19008 24.2125C7.14151 24.2125 8.04085 23.9895 8.83866 23.5929C8.34375 22.6341 7.34347 21.9785 6.19008 21.9785Z" fill="#666666"/>
<path d="M5.96452 24.349C8.70634 24.349 10.929 22.1263 10.929 19.3844C10.929 16.6426 8.70634 14.4199 5.96452 14.4199C3.22269 14.4199 1 16.6426 1 19.3844C1 22.1263 3.22269 24.349 5.96452 24.349Z" stroke="#666666" stroke-width="1.22581"/>
<path d="M6.19046 20.7374C7.06286 20.7374 7.77008 20.0301 7.77008 19.1577C7.77008 18.2853 7.06286 17.5781 6.19046 17.5781C5.31806 17.5781 4.61084 18.2853 4.61084 19.1577C4.61084 20.0301 5.31806 20.7374 6.19046 20.7374Z" fill="#666666"/>
<path d="M34.2609 21.9785C33.1075 21.9785 32.1072 22.6341 31.6123 23.5929C32.4101 23.9895 33.3095 24.2125 34.2609 24.2125C35.2123 24.2125 36.1117 23.9895 36.9095 23.5929C36.4146 22.6341 35.4143 21.9785 34.2609 21.9785Z" fill="#666666"/>
<path d="M34.0353 24.349C36.7771 24.349 38.9998 22.1263 38.9998 19.3844C38.9998 16.6426 36.7771 14.4199 34.0353 14.4199C31.2935 14.4199 29.0708 16.6426 29.0708 19.3844C29.0708 22.1263 31.2935 24.349 34.0353 24.349Z" stroke="#666666" stroke-width="1.22581"/>
<path d="M34.2613 20.7374C35.1337 20.7374 35.8409 20.0301 35.8409 19.1577C35.8409 18.2853 35.1337 17.5781 34.2613 17.5781C33.3889 17.5781 32.6816 18.2853 32.6816 19.1577C32.6816 20.0301 33.3889 20.7374 34.2613 20.7374Z" fill="#666666"/>
</svg>
