<svg width="19" height="19" viewBox="0 0 19 19" fill="none" xmlns="http://www.w3.org/2000/svg">
<path d="M2.17067 8.28873C2.17067 4.99471 4.84969 2.31501 8.14371 2.31501C11.4391 2.31501 14.1181 4.99403 14.1181 8.28873C14.1181 11.5834 11.4391 14.2624 8.14371 14.2624C4.84969 14.2624 2.17067 11.5828 2.17067 8.28873ZM17.8061 16.5455L14.428 13.1647C15.4769 11.818 16.1075 10.127 16.1075 8.28873C16.1075 3.8976 12.5342 0.324219 8.14371 0.324219C3.75191 0.324219 0.179199 3.8976 0.179199 8.28873C0.179199 12.6799 3.75191 16.2526 8.14371 16.2526C9.98193 16.2526 11.6723 15.6206 13.0176 14.5723L16.4011 17.9525C16.5944 18.1471 16.8487 18.244 17.1029 18.244C17.3586 18.244 17.6128 18.1471 17.8061 17.9525C18.198 17.5639 18.198 16.9333 17.8061 16.5455Z" fill="#676767"/>
</svg>
