<svg width="507" height="337" viewBox="0 0 507 337" fill="none" xmlns="http://www.w3.org/2000/svg">
<path d="M291.138 180.855L322.087 21.8365C322.217 21.1654 322.478 20.5265 322.856 19.9565C323.233 19.3864 323.719 18.8963 324.286 18.5141C324.853 18.1319 325.489 17.8652 326.159 17.7291C326.829 17.593 327.52 17.5903 328.191 17.7211L422.968 36.1713C423.638 36.3009 424.277 36.5615 424.847 36.9381C425.417 37.3148 425.907 37.8001 426.29 38.3664C426.672 38.9327 426.939 39.5688 427.075 40.2383C427.211 40.9078 427.214 41.5976 427.083 42.2682L396.134 201.287C395.871 202.641 395.081 203.835 393.937 204.607C392.794 205.378 391.391 205.664 390.037 205.402L295.253 186.952C293.899 186.689 292.705 185.899 291.934 184.756C291.162 183.612 290.876 182.21 291.138 180.855Z" fill="#263238" stroke="#263238" stroke-width="0.641772" stroke-miterlimit="10"/>
<path d="M339.322 51.9463L342.807 34.0352L335.397 32.5935L331.912 50.5047L339.322 51.9463Z" fill="white" stroke="#263238" stroke-width="0.641772" stroke-miterlimit="10"/>
<path d="M334.691 75.7178L338.176 57.8066L330.766 56.365L327.281 74.2762L334.691 75.7178Z" fill="white" stroke="#263238" stroke-width="0.641772" stroke-miterlimit="10"/>
<path d="M330.06 99.503L333.545 81.5918L326.135 80.1502L322.651 98.0613L330.06 99.503Z" fill="white" stroke="#263238" stroke-width="0.641772" stroke-miterlimit="10"/>
<path d="M325.439 123.282L328.924 105.371L321.514 103.929L318.029 121.841L325.439 123.282Z" fill="white" stroke="#263238" stroke-width="0.641772" stroke-miterlimit="10"/>
<path d="M321.381 146.669L324.848 128.787L317.45 127.353L313.983 145.235L321.381 146.669Z" fill="white" stroke="#263238" stroke-width="0.640648" stroke-miterlimit="10"/>
<path d="M316.177 170.837L319.662 152.926L312.253 151.484L308.768 169.395L316.177 170.837Z" fill="white" stroke="#263238" stroke-width="0.641772" stroke-miterlimit="10"/>
<path d="M382.009 79.5991L388.662 45.4012C388.916 44.0988 388.065 42.8375 386.763 42.5841L362.454 37.8546C361.151 37.6012 359.89 38.4516 359.637 39.754L352.983 73.9519C352.73 75.2543 353.58 76.5155 354.883 76.7689L379.192 81.4985C380.494 81.7519 381.755 80.9015 382.009 79.5991Z" fill="white" stroke="#263238" stroke-width="0.641772" stroke-miterlimit="10"/>
<path d="M396.63 132.967L413.213 47.7363L408.888 46.8949L392.306 132.126L396.63 132.967Z" fill="white" stroke="#263238" stroke-width="0.641772" stroke-miterlimit="10"/>
<path d="M204.306 27.5242L157.545 96.9805L277.799 177.94L324.559 108.484L204.306 27.5242Z" fill="#92E3A9" stroke="#263238" stroke-width="0.641772" stroke-miterlimit="10"/>
<path d="M216.961 45.8334C216.221 46.9345 215.271 47.8788 214.165 48.6124C213.059 49.3459 211.82 49.8543 210.517 50.1084C209.215 50.3626 207.875 50.3575 206.575 50.0935C205.274 49.8294 204.039 49.3117 202.939 48.5697C202.595 48.3357 202.268 48.0786 201.959 47.8004L175.104 87.7202C175.476 87.9071 175.837 88.1155 176.185 88.3444C177.286 89.0849 178.23 90.0352 178.964 91.141C179.697 92.2467 180.206 93.4862 180.46 94.7886C180.714 96.091 180.709 97.4306 180.445 98.731C180.181 100.031 179.663 101.267 178.921 102.367C178.805 102.541 178.675 102.701 178.551 102.868L264.473 160.715C264.575 160.534 264.676 160.353 264.793 160.178C265.59 158.988 266.631 157.981 267.849 157.225C269.066 156.469 270.43 155.981 271.851 155.794C273.271 155.607 274.715 155.726 276.087 156.141C277.458 156.557 278.725 157.26 279.802 158.204L306.658 118.328C306.285 118.141 305.924 117.933 305.576 117.704C304.471 116.962 303.523 116.01 302.786 114.901C302.05 113.792 301.541 112.548 301.287 111.242C301.034 109.935 301.041 108.591 301.309 107.287C301.576 105.984 302.099 104.746 302.847 103.645C303.067 103.3 303.31 102.97 303.573 102.658L217.585 44.752C217.397 45.1234 217.189 45.4844 216.961 45.8334ZM254.784 111.977C252.954 114.692 250.36 116.804 247.331 118.045C244.301 119.286 240.972 119.601 237.763 118.951C234.554 118.3 231.61 116.712 229.304 114.388C226.997 112.065 225.432 109.109 224.805 105.896C224.178 102.683 224.517 99.3554 225.781 96.3351C227.045 93.3147 229.176 90.7369 231.904 88.9275C234.633 87.118 237.837 86.1582 241.111 86.1694C244.385 86.1806 247.582 87.1623 250.298 88.9904C252.103 90.2041 253.651 91.7618 254.854 93.5744C256.056 95.387 256.89 97.4188 257.306 99.5538C257.723 101.689 257.715 103.885 257.282 106.017C256.849 108.148 256 110.174 254.784 111.977Z" fill="white" stroke="#263238" stroke-width="0.641772" stroke-miterlimit="10"/>
<path d="M215.857 17.1912L160.672 80.1621L269.697 175.708L324.882 112.737L215.857 17.1912Z" fill="#92E3A9" stroke="#263238" stroke-width="0.641772" stroke-miterlimit="10"/>
<path d="M226.092 36.9645C224.325 38.9786 221.831 40.2086 219.158 40.3842C216.485 40.5598 213.852 39.6665 211.837 37.9008C211.526 37.6316 211.231 37.3457 210.951 37.0444L179.27 73.1972C179.616 73.418 179.948 73.6604 180.264 73.923C181.262 74.7971 182.078 75.8594 182.665 77.0491C183.253 78.2388 183.6 79.5326 183.687 80.8565C183.774 82.1804 183.599 83.5084 183.172 84.7647C182.745 86.021 182.075 87.1809 181.2 88.178C181.062 88.3305 180.917 88.4756 180.765 88.6208L258.666 156.891C258.79 156.724 258.913 156.557 259.051 156.405C260.817 154.39 263.31 153.158 265.983 152.981C268.657 152.804 271.291 153.696 273.306 155.461C273.617 155.74 273.913 156.035 274.192 156.347L305.881 120.194C305.532 119.973 305.197 119.731 304.879 119.468C303.881 118.594 303.065 117.532 302.478 116.342C301.89 115.152 301.543 113.858 301.456 112.535C301.369 111.211 301.544 109.883 301.971 108.626C302.398 107.37 303.068 106.21 303.943 105.213C304.222 104.904 304.517 104.611 304.828 104.335L226.854 35.9629C226.622 36.3127 226.367 36.6472 226.092 36.9645ZM255.233 107.369C253.075 109.831 250.235 111.598 247.073 112.446C243.91 113.295 240.567 113.186 237.466 112.135C234.365 111.083 231.646 109.136 229.652 106.538C227.657 103.941 226.478 100.811 226.263 97.5439C226.048 94.2766 226.806 91.0189 228.443 88.1827C230.079 85.3464 232.519 83.0591 235.456 81.6099C238.392 80.1607 241.692 79.6147 244.938 80.0409C248.185 80.4672 251.232 81.8466 253.695 84.0046C256.995 86.8985 259.011 90.9845 259.3 95.3644C259.588 99.7443 258.126 104.06 255.233 107.361V107.369Z" fill="white" stroke="#263238" stroke-width="0.641772" stroke-miterlimit="10"/>
<path d="M237.84 9.37378L173.465 62.9141L266.162 174.371L330.538 120.831L237.84 9.37378Z" fill="#92E3A9" stroke="#263238" stroke-width="0.641772" stroke-miterlimit="10"/>
<path d="M244.846 30.5121C243.827 31.3611 242.65 32.0008 241.383 32.3946C240.116 32.7885 238.784 32.9287 237.463 32.8074C236.141 32.6861 234.857 32.3055 233.683 31.6875C232.509 31.0695 231.468 30.2261 230.62 29.2056C230.359 28.881 230.117 28.5418 229.895 28.1895L192.936 58.935C193.24 59.2214 193.529 59.5243 193.8 59.8423C195.514 61.8981 196.342 64.55 196.102 67.2159C195.863 69.8817 194.575 72.3436 192.522 74.061C192.355 74.1916 192.188 74.3078 192.021 74.4312L258.252 154.068C258.405 153.93 258.55 153.785 258.709 153.647C260.769 151.934 263.425 151.109 266.093 151.354C268.761 151.599 271.222 152.894 272.935 154.953C273.197 155.278 273.439 155.617 273.661 155.969L310.627 125.231C310.319 124.948 310.03 124.645 309.763 124.324C308.914 123.304 308.275 122.127 307.881 120.86C307.487 119.593 307.347 118.261 307.468 116.94C307.589 115.619 307.97 114.334 308.588 113.16C309.206 111.986 310.049 110.946 311.07 110.098C311.393 109.834 311.732 109.592 312.086 109.372L245.754 29.6411C245.471 29.9516 245.168 30.2425 244.846 30.5121ZM262.593 104.618C260.076 106.714 256.994 108.017 253.736 108.361C250.479 108.705 247.193 108.075 244.294 106.551C241.394 105.027 239.012 102.677 237.449 99.7985C235.886 96.9203 235.211 93.643 235.511 90.3813C235.811 87.1196 237.071 84.0201 239.133 81.475C241.195 78.9299 243.965 77.0536 247.094 76.0834C250.222 75.1133 253.568 75.0929 256.708 76.0249C259.848 76.9569 262.641 78.7993 264.734 81.3191C267.532 84.6943 268.878 89.0413 268.477 93.4074C268.076 97.7734 265.96 101.802 262.593 104.611V104.618Z" fill="white" stroke="#263238" stroke-width="0.641772" stroke-miterlimit="10"/>
<path d="M273.196 4.30457L197.889 40.9043L261.256 171.288L336.563 134.689L273.196 4.30457Z" fill="#92E3A9" stroke="#263238" stroke-width="0.641772" stroke-miterlimit="10"/>
<path d="M274.953 26.5119C272.546 27.6756 269.776 27.8378 267.25 26.963C264.724 26.0883 262.647 24.2478 261.475 21.8449C261.298 21.4669 261.143 21.0791 261.01 20.6836L217.745 41.696C217.974 42.0437 218.182 42.4049 218.369 42.7774C219.539 45.1867 219.705 47.9621 218.83 50.4937C217.955 53.0252 216.11 55.1056 213.702 56.2776C213.506 56.3719 213.317 56.4445 213.121 56.5244L258.397 149.69C258.579 149.581 258.753 149.48 258.942 149.385C260.135 148.805 261.431 148.465 262.755 148.386C264.08 148.307 265.407 148.49 266.661 148.924C267.915 149.358 269.071 150.035 270.063 150.916C271.055 151.797 271.863 152.866 272.442 154.059C272.622 154.434 272.78 154.82 272.914 155.213L316.151 134.201C315.921 133.853 315.713 133.492 315.526 133.12C314.358 130.709 314.195 127.934 315.071 125.403C315.947 122.872 317.792 120.792 320.201 119.619C320.577 119.436 320.965 119.279 321.362 119.148L276.042 25.8877C275.692 26.1171 275.328 26.3255 274.953 26.5119ZM274.467 102.723C271.522 104.153 268.219 104.678 264.975 104.231C261.731 103.784 258.693 102.386 256.244 100.212C253.796 98.0387 252.046 95.188 251.218 92.0204C250.389 88.8528 250.518 85.5106 251.589 82.4164C252.659 79.3222 254.623 76.6149 257.233 74.6369C259.842 72.6589 262.979 71.4989 266.247 71.3037C269.516 71.1084 272.768 71.8867 275.595 73.5401C278.421 75.1934 280.693 77.6476 282.124 80.5924C284.038 84.5411 284.306 89.0878 282.87 93.2342C281.435 97.3806 278.412 100.788 274.467 102.708V102.723Z" fill="white" stroke="#263238" stroke-width="0.641772" stroke-miterlimit="10"/>
<path d="M317.243 10.0341L234.477 22.6992L256.404 165.998L339.171 153.333L317.243 10.0341Z" fill="#92E3A9" stroke="#263238" stroke-width="0.641772" stroke-miterlimit="10"/>
<path d="M312.346 31.7452C311.035 31.9463 309.697 31.8871 308.409 31.571C307.121 31.2548 305.908 30.6879 304.839 29.9026C303.77 29.1174 302.866 28.1291 302.179 26.9944C301.492 25.8597 301.035 24.6007 300.835 23.2894C300.774 22.8758 300.738 22.4589 300.726 22.041L253.207 29.2992C253.325 29.6974 253.419 30.1021 253.49 30.5113C253.894 33.16 253.23 35.8608 251.643 38.0196C250.055 40.1784 247.676 41.6183 245.027 42.0227C244.824 42.0227 244.613 42.0663 244.41 42.088L260.073 144.479C260.276 144.428 260.48 144.384 260.69 144.348C263.338 143.944 266.038 144.608 268.196 146.193C270.355 147.779 271.796 150.157 272.202 152.804C272.264 153.217 272.298 153.634 272.303 154.052L319.83 146.794C319.711 146.392 319.619 145.982 319.554 145.568C319.15 142.92 319.813 140.22 321.399 138.061C322.984 135.903 325.362 134.462 328.01 134.056C328.423 133.995 328.84 133.959 329.258 133.947L313.566 31.4694C313.166 31.5885 312.759 31.6806 312.346 31.7452ZM289.324 104.378C286.087 104.872 282.776 104.396 279.81 103.01C276.844 101.623 274.356 99.3879 272.66 96.5871C270.964 93.7862 270.136 90.5454 270.282 87.2744C270.428 84.0033 271.54 80.849 273.479 78.2102C275.417 75.5714 278.095 73.5667 281.173 72.4495C284.251 71.3323 287.59 71.1528 290.77 71.9338C293.95 72.7147 296.827 74.421 299.037 76.8369C301.247 79.2528 302.691 82.2697 303.187 85.5063C303.516 87.6557 303.418 89.8489 302.9 91.9606C302.381 94.0722 301.451 96.0611 300.164 97.8135C298.877 99.5659 297.257 101.048 295.397 102.174C293.537 103.3 291.473 104.049 289.324 104.378Z" fill="white" stroke="#263238" stroke-width="0.641772" stroke-miterlimit="10"/>
<path d="M411.11 102.09H175.612C170.886 102.09 167.055 105.921 167.055 110.647V309.238C167.055 313.964 170.886 317.795 175.612 317.795H411.11C415.836 317.795 419.667 313.964 419.667 309.238V110.647C419.667 105.921 415.836 102.09 411.11 102.09Z" fill="white" stroke="#263238" stroke-width="0.641772" stroke-miterlimit="10"/>
<path d="M419.704 123.843V110.647C419.704 108.378 418.802 106.201 417.197 104.596C415.593 102.991 413.416 102.09 411.146 102.09H175.612C173.343 102.09 171.166 102.991 169.561 104.596C167.956 106.201 167.055 108.378 167.055 110.647V123.843H419.704Z" fill="#666666" stroke="#263238" stroke-width="0.641772" stroke-miterlimit="10"/>
<path d="M384.495 113.588C384.497 112.952 384.309 112.329 383.957 111.8C383.604 111.27 383.103 110.857 382.515 110.612C381.928 110.368 381.281 110.303 380.657 110.426C380.033 110.549 379.459 110.855 379.009 111.304C378.558 111.754 378.251 112.327 378.127 112.951C378.002 113.575 378.065 114.221 378.308 114.809C378.552 115.397 378.964 115.9 379.493 116.254C380.022 116.607 380.644 116.796 381.28 116.796C382.131 116.796 382.948 116.458 383.551 115.857C384.154 115.255 384.493 114.439 384.495 113.588Z" fill="white" stroke="#263238" stroke-width="0.641772" stroke-miterlimit="10"/>
<path d="M395.28 113.588C395.282 112.952 395.094 112.329 394.742 111.8C394.39 111.27 393.888 110.857 393.3 110.612C392.713 110.368 392.066 110.303 391.442 110.426C390.818 110.549 390.244 110.855 389.794 111.304C389.344 111.754 389.037 112.327 388.912 112.951C388.787 113.575 388.851 114.221 389.094 114.809C389.337 115.397 389.749 115.9 390.278 116.254C390.807 116.607 391.429 116.796 392.065 116.796C392.916 116.796 393.733 116.458 394.336 115.857C394.939 115.255 395.278 114.439 395.28 113.588Z" fill="white" stroke="#263238" stroke-width="0.641772" stroke-miterlimit="10"/>
<path d="M406.066 113.588C406.067 112.952 405.88 112.329 405.527 111.8C405.175 111.27 404.673 110.857 404.086 110.612C403.498 110.368 402.851 110.303 402.227 110.426C401.603 110.549 401.029 110.855 400.579 111.304C400.129 111.754 399.822 112.327 399.697 112.951C399.572 113.575 399.636 114.221 399.879 114.809C400.122 115.397 400.534 115.9 401.063 116.254C401.592 116.607 402.214 116.796 402.85 116.796C403.702 116.796 404.518 116.458 405.121 115.857C405.724 115.255 406.064 114.439 406.066 113.588Z" fill="#92E3A9" stroke="#263238" stroke-width="0.641772" stroke-miterlimit="10"/>
<path d="M404.947 281.795H352.688C350.813 267.223 343.49 253.902 332.191 244.51L369.063 207.639C390.177 226.777 403.041 253.362 404.947 281.795Z" fill="#92E3A9"/>
<path d="M257.622 244.503C246.328 253.899 239.01 267.223 237.14 281.795H184.881C186.778 253.352 199.64 226.756 220.758 207.609L257.622 244.503Z" fill="#92E3A9"/>
<path opacity="0.9" d="M257.622 244.503C246.328 253.899 239.01 267.223 237.14 281.795H184.881C186.778 253.352 199.64 226.756 220.758 207.609L257.622 244.503Z" fill="white"/>
<path d="M294.914 178.99V231.01C281.285 230.987 268.082 235.764 257.622 244.502L220.758 207.609C241.042 189.154 267.491 178.947 294.914 178.99Z" fill="#92E3A9"/>
<path opacity="0.6" d="M294.914 178.99V231.01C281.285 230.987 268.082 235.764 257.622 244.502L220.758 207.609C241.042 189.154 267.491 178.947 294.914 178.99Z" fill="white"/>
<path d="M369.071 207.609L332.199 244.481C321.744 235.738 308.543 230.958 294.914 230.981V178.99C322.337 178.947 348.787 189.154 369.071 207.609Z" fill="#92E3A9"/>
<path opacity="0.3" d="M369.071 207.609L332.199 244.481C321.744 235.738 308.543 230.958 294.914 230.981V178.99C322.337 178.947 348.787 189.154 369.071 207.609Z" fill="white"/>
<path d="M404.947 281.795H352.688C350.813 267.223 343.49 253.902 332.191 244.51L369.063 207.639C390.177 226.777 403.041 253.362 404.947 281.795Z" stroke="#263238" stroke-width="0.641772" stroke-miterlimit="10"/>
<path d="M257.622 244.503C246.328 253.899 239.01 267.223 237.14 281.795H184.881C186.778 253.352 199.64 226.756 220.758 207.609L257.622 244.503Z" stroke="#263238" stroke-width="0.641772" stroke-miterlimit="10"/>
<path opacity="0.9" d="M257.622 244.503C246.328 253.899 239.01 267.223 237.14 281.795H184.881C186.778 253.352 199.64 226.756 220.758 207.609L257.622 244.503Z" stroke="#263238" stroke-width="0.641772" stroke-miterlimit="10"/>
<path d="M294.914 178.99V231.01C281.285 230.987 268.082 235.764 257.622 244.502L220.758 207.609C241.042 189.154 267.491 178.947 294.914 178.99Z" stroke="#263238" stroke-width="0.641772" stroke-miterlimit="10"/>
<path opacity="0.6" d="M294.914 178.99V231.01C281.285 230.987 268.082 235.764 257.622 244.502L220.758 207.609C241.042 189.154 267.491 178.947 294.914 178.99Z" stroke="#263238" stroke-width="0.641772" stroke-miterlimit="10"/>
<path d="M369.071 207.609L332.199 244.481C321.744 235.738 308.543 230.958 294.914 230.981V178.99C322.337 178.947 348.787 189.154 369.071 207.609Z" stroke="#263238" stroke-width="0.641772" stroke-miterlimit="10"/>
<path opacity="0.3" d="M369.071 207.609L332.199 244.481C321.744 235.738 308.543 230.958 294.914 230.981V178.99C322.337 178.947 348.787 189.154 369.071 207.609Z" stroke="#263238" stroke-width="0.641772" stroke-miterlimit="10"/>
<path d="M305.186 275.509L326.662 251.354L296.447 264.796C294.461 264.541 292.444 264.886 290.656 265.789C288.869 266.691 287.393 268.109 286.419 269.858C285.445 271.608 285.018 273.609 285.192 275.604C285.367 277.599 286.136 279.495 287.399 281.049C288.662 282.602 290.362 283.742 292.279 284.32C294.196 284.898 296.242 284.888 298.154 284.292C300.065 283.696 301.754 282.54 303.002 280.974C304.251 279.409 305.001 277.505 305.157 275.509H305.186Z" fill="#263238" stroke="#263238" stroke-width="0.641772" stroke-miterlimit="10"/>
<path d="M297.964 278.085C298.635 277.543 299.129 276.814 299.385 275.99C299.641 275.166 299.646 274.285 299.4 273.458C299.155 272.631 298.669 271.896 298.004 271.345C297.34 270.795 296.527 270.454 295.669 270.366C294.811 270.279 293.946 270.448 293.184 270.852C292.422 271.257 291.797 271.878 291.389 272.639C290.981 273.399 290.808 274.263 290.892 275.121C290.975 275.98 291.312 276.794 291.86 277.461C292.589 278.35 293.64 278.914 294.783 279.031C295.926 279.148 297.07 278.808 297.964 278.085Z" fill="white" stroke="#263238" stroke-width="0.641772" stroke-miterlimit="10"/>
<path d="M353.227 259.636V251.361H356.856V252.53H354.932V254.707H356.384V255.883H354.932V258.482H356.877V259.621L353.227 259.636Z" fill="#263238"/>
<path d="M357.16 259.636L358.793 255.215L357.218 251.361H358.815L359.795 253.742L360.622 251.361H362.074L360.557 255.6L362.212 259.636H360.644L359.555 257.03L358.612 259.636H357.16Z" fill="#263238"/>
<path d="M365.056 259.751C364.549 259.777 364.045 259.656 363.605 259.403C363.259 259.174 363.003 258.833 362.879 258.438C362.725 257.97 362.651 257.479 362.661 256.986V254.061C362.653 253.569 362.727 253.078 362.879 252.609C363.003 252.218 363.26 251.882 363.605 251.659C364.047 251.412 364.55 251.293 365.056 251.318C365.539 251.295 366.019 251.397 366.45 251.615C366.782 251.8 367.038 252.096 367.176 252.45C367.322 252.854 367.393 253.282 367.386 253.713V254.402H365.753V253.626C365.764 253.447 365.764 253.267 365.753 253.089C365.739 252.938 365.678 252.796 365.579 252.682C365.516 252.623 365.442 252.579 365.36 252.551C365.279 252.524 365.193 252.514 365.107 252.522C365.019 252.515 364.93 252.525 364.846 252.554C364.762 252.583 364.686 252.629 364.621 252.689C364.514 252.807 364.446 252.953 364.425 253.11C364.395 253.302 364.38 253.497 364.381 253.691V257.451C364.38 257.653 364.4 257.855 364.439 258.053C364.465 258.205 364.539 258.345 364.65 258.452C364.78 258.552 364.943 258.601 365.107 258.59C365.191 258.599 365.277 258.589 365.357 258.562C365.437 258.534 365.511 258.489 365.572 258.43C365.673 258.313 365.734 258.165 365.746 258.01C365.757 257.823 365.757 257.637 365.746 257.451V256.638H367.379V257.327C367.388 257.762 367.319 258.195 367.176 258.605C367.041 258.971 366.785 259.281 366.45 259.483C366.02 259.701 365.537 259.794 365.056 259.751Z" fill="#263238"/>
<path d="M368.402 259.636V251.361H372.031V252.53H370.108V254.707H371.56V255.883H370.108V258.482H372.053V259.621L368.402 259.636Z" fill="#263238"/>
<path d="M372.875 259.636V251.361H374.566V258.496H376.504V259.636H372.875Z" fill="#263238"/>
<path d="M377.236 259.636V251.361H378.92V258.496H380.865V259.636H377.236Z" fill="#263238"/>
<path d="M381.598 259.636V251.361H385.227V252.53H383.303V254.707H384.755V255.883H383.303V258.482H385.249V259.621L381.598 259.636Z" fill="#263238"/>
<path d="M386.07 259.636V251.361H387.246L389.082 255.673V251.361H390.476V259.636H389.351L387.515 255.063V259.636H386.07Z" fill="#263238"/>
<path d="M392.508 259.635V252.609H391.23V251.354H395.455V252.609H394.199V259.628L392.508 259.635Z" fill="#263238"/>
<path d="M208.607 259.636V251.362H211.228C211.652 251.343 212.074 251.441 212.447 251.645C212.771 251.829 213.026 252.115 213.173 252.458C213.336 252.866 213.415 253.303 213.405 253.742C213.431 254.226 213.326 254.707 213.1 255.136C212.919 255.466 212.629 255.722 212.28 255.862C211.899 256.01 211.492 256.082 211.082 256.072H210.357V259.658L208.607 259.636ZM210.291 254.867H210.879C211.077 254.879 211.275 254.839 211.453 254.751C211.588 254.665 211.684 254.53 211.721 254.374C211.773 254.16 211.797 253.94 211.794 253.721C211.796 253.509 211.776 253.297 211.736 253.089C211.704 252.929 211.613 252.786 211.482 252.69C211.297 252.582 211.085 252.534 210.872 252.552H210.291V254.867Z" fill="#263238"/>
<path d="M216.549 259.752C216.044 259.779 215.541 259.666 215.097 259.425C214.745 259.208 214.476 258.878 214.335 258.489C214.172 258.022 214.093 257.531 214.103 257.037V253.952C214.091 253.458 214.17 252.967 214.335 252.501C214.473 252.113 214.743 251.787 215.097 251.579C215.551 251.365 216.047 251.254 216.549 251.254C217.051 251.254 217.546 251.365 218 251.579C218.353 251.786 218.623 252.109 218.762 252.493C218.927 252.959 219.006 253.451 218.995 253.945V257.03C219.004 257.524 218.925 258.015 218.762 258.481C218.621 258.871 218.353 259.2 218 259.418C217.556 259.659 217.054 259.774 216.549 259.752ZM216.549 258.532C216.723 258.544 216.896 258.492 217.035 258.387C217.14 258.277 217.211 258.138 217.238 257.988C217.27 257.811 217.287 257.631 217.289 257.451V253.539C217.288 253.361 217.271 253.184 217.238 253.009C217.213 252.86 217.142 252.723 217.035 252.617C216.899 252.505 216.724 252.451 216.549 252.464C216.466 252.458 216.383 252.469 216.305 252.495C216.226 252.521 216.154 252.562 216.091 252.617C215.985 252.723 215.914 252.86 215.888 253.009C215.852 253.183 215.835 253.361 215.837 253.539V257.451C215.836 257.631 215.851 257.81 215.881 257.988C215.905 258.139 215.976 258.279 216.084 258.387C216.215 258.493 216.381 258.545 216.549 258.532Z" fill="#263238"/>
<path d="M222.435 259.751C221.93 259.778 221.428 259.665 220.983 259.425C220.646 259.2 220.391 258.871 220.257 258.488C220.091 258.023 220.012 257.531 220.025 257.037V253.952C220.01 253.458 220.089 252.965 220.257 252.501C220.387 252.119 220.643 251.794 220.983 251.579C221.43 251.345 221.931 251.234 222.435 251.259C222.94 251.234 223.441 251.347 223.887 251.586C224.243 251.79 224.516 252.114 224.656 252.501C224.818 252.967 224.894 253.459 224.881 253.952V257.037C224.892 257.53 224.816 258.022 224.656 258.488C224.514 258.88 224.243 259.21 223.887 259.425C223.441 259.664 222.94 259.777 222.435 259.751ZM222.435 258.532C222.607 258.542 222.777 258.491 222.914 258.387C223.019 258.277 223.09 258.138 223.117 257.988C223.153 257.811 223.17 257.631 223.168 257.451V253.538C223.171 253.36 223.153 253.183 223.117 253.009C223.092 252.86 223.021 252.723 222.914 252.617C222.777 252.517 222.612 252.464 222.442 252.464C222.273 252.464 222.108 252.517 221.97 252.617C221.864 252.723 221.793 252.86 221.767 253.009C221.735 253.183 221.717 253.361 221.716 253.538V257.451C221.714 257.631 221.731 257.811 221.767 257.988C221.789 258.138 221.858 258.278 221.963 258.387C222.097 258.492 222.265 258.544 222.435 258.532Z" fill="#263238"/>
<path d="M226.006 259.635V251.361H228.183C228.674 251.349 229.164 251.413 229.635 251.549C230.012 251.658 230.339 251.898 230.557 252.224C230.792 252.623 230.904 253.083 230.876 253.545C230.88 253.85 230.851 254.154 230.789 254.453C230.738 254.7 230.634 254.933 230.484 255.135C230.324 255.343 230.111 255.503 229.867 255.599L231.014 259.635H229.287L228.336 255.89H227.741V259.635H226.006ZM227.69 254.888H228.183C228.399 254.908 228.616 254.873 228.815 254.787C228.969 254.698 229.085 254.556 229.141 254.387C229.213 254.172 229.247 253.946 229.243 253.72C229.261 253.412 229.188 253.107 229.032 252.841C228.936 252.732 228.814 252.648 228.677 252.596C228.541 252.544 228.394 252.526 228.249 252.544H227.675L227.69 254.888Z" fill="#263238"/>
<path d="M314.932 213.242C314.465 213.269 314.002 213.144 313.611 212.886C313.264 212.644 313.008 212.291 312.885 211.885C312.738 211.398 312.667 210.891 312.675 210.382V207.61C312.664 207.091 312.737 206.574 312.893 206.078C313.012 205.673 313.269 205.322 313.618 205.084C314.059 204.832 314.563 204.711 315.07 204.736C315.555 204.713 316.037 204.816 316.471 205.033C316.801 205.22 317.058 205.515 317.197 205.868C317.357 206.279 317.433 206.718 317.422 207.16V207.639H315.781V207.058C315.783 206.864 315.769 206.669 315.738 206.478C315.733 206.398 315.711 206.32 315.674 206.249C315.638 206.178 315.587 206.115 315.525 206.065C315.463 206.014 315.391 205.977 315.314 205.956C315.237 205.935 315.156 205.929 315.077 205.94C314.987 205.932 314.897 205.943 314.811 205.973C314.726 206.003 314.649 206.052 314.584 206.115C314.479 206.241 314.411 206.394 314.388 206.557C314.364 206.75 314.352 206.944 314.352 207.138V210.803C314.351 211.013 314.37 211.222 314.41 211.428C314.44 211.591 314.521 211.741 314.642 211.856C314.78 211.964 314.953 212.018 315.128 212.008C315.216 212.015 315.305 212.003 315.388 211.975C315.472 211.946 315.549 211.901 315.614 211.841C315.739 211.722 315.823 211.568 315.854 211.399C315.9 211.189 315.922 210.975 315.919 210.76V209.882H315.186V208.865H317.516V213.111H316.413L316.311 212.386C316.208 212.636 316.037 212.852 315.818 213.01C315.557 213.184 315.245 213.266 314.932 213.242Z" fill="#263238"/>
<path d="M320.992 213.226C320.487 213.259 319.983 213.145 319.54 212.899C319.187 212.686 318.918 212.358 318.778 211.97C318.615 211.504 318.536 211.012 318.546 210.519V207.434C318.535 206.94 318.614 206.448 318.778 205.982C318.918 205.598 319.187 205.275 319.54 205.068C319.986 204.831 320.488 204.721 320.992 204.748C321.496 204.725 321.997 204.838 322.443 205.075C322.783 205.288 323.039 205.611 323.169 205.989C323.335 206.455 323.413 206.947 323.402 207.441V210.511C323.411 211.005 323.332 211.497 323.169 211.963C323.039 212.346 322.783 212.673 322.443 212.892C321.999 213.135 321.497 213.25 320.992 213.226ZM320.992 212.014C321.164 212.024 321.333 211.972 321.471 211.869C321.579 211.76 321.65 211.621 321.674 211.469C321.71 211.293 321.727 211.113 321.725 210.932V207.02C321.727 206.842 321.71 206.664 321.674 206.49C321.652 206.341 321.58 206.203 321.471 206.098C321.405 206.043 321.329 206 321.247 205.974C321.164 205.948 321.078 205.938 320.992 205.946C320.909 205.94 320.826 205.95 320.748 205.976C320.669 206.002 320.597 206.044 320.535 206.098C320.425 206.203 320.354 206.341 320.331 206.49C320.295 206.664 320.278 206.842 320.281 207.02V210.932C320.28 211.112 320.294 211.292 320.324 211.469C320.346 211.62 320.415 211.759 320.52 211.869C320.654 211.974 320.822 212.026 320.992 212.014Z" fill="#263238"/>
<path d="M326.851 213.227C326.346 213.258 325.843 213.145 325.399 212.901C325.06 212.682 324.804 212.354 324.674 211.972C324.513 211.505 324.437 211.013 324.449 210.52V207.435C324.436 206.942 324.512 206.45 324.674 205.984C324.804 205.605 325.06 205.282 325.399 205.069C325.853 204.855 326.349 204.744 326.851 204.744C327.353 204.744 327.849 204.855 328.303 205.069C328.655 205.278 328.927 205.6 329.072 205.984C329.235 206.45 329.311 206.942 329.297 207.435V210.513C329.309 211.006 329.232 211.498 329.072 211.964C328.928 212.352 328.656 212.679 328.303 212.893C327.859 213.138 327.357 213.254 326.851 213.227ZM326.851 212.015C327.025 212.027 327.198 211.975 327.337 211.87C327.443 211.76 327.513 211.621 327.541 211.471C327.573 211.294 327.59 211.114 327.591 210.934V207.022C327.59 206.844 327.573 206.667 327.541 206.492C327.515 206.343 327.444 206.206 327.337 206.1C327.201 205.988 327.027 205.933 326.851 205.947C326.769 205.941 326.686 205.952 326.607 205.978C326.529 206.004 326.456 206.045 326.394 206.1C326.287 206.206 326.216 206.343 326.191 206.492C326.154 206.666 326.137 206.844 326.14 207.022V210.934C326.139 211.114 326.153 211.293 326.183 211.471C326.207 211.622 326.278 211.762 326.387 211.87C326.517 211.976 326.683 212.028 326.851 212.015Z" fill="#263238"/>
<path d="M330.428 213.118V204.844H332.453C333.01 204.819 333.567 204.913 334.086 205.119C334.463 205.281 334.762 205.583 334.921 205.961C335.094 206.425 335.178 206.918 335.167 207.413V210.425C335.182 210.939 335.098 211.452 334.921 211.935C334.767 212.318 334.474 212.63 334.1 212.806C333.591 213.018 333.04 213.115 332.489 213.089L330.428 213.118ZM332.112 211.942H332.467C332.699 211.96 332.932 211.91 333.135 211.797C333.275 211.689 333.366 211.53 333.389 211.354C333.428 211.114 333.445 210.871 333.44 210.628V207.217C333.448 206.973 333.426 206.729 333.375 206.491C333.358 206.412 333.325 206.338 333.279 206.272C333.233 206.206 333.174 206.149 333.106 206.106C332.904 206.014 332.682 205.974 332.46 205.99H332.112V211.942Z" fill="#263238"/>
<path d="M251.314 213.118V204.844H254.806V205.991H252.984V208.226H254.515V209.402H252.984V213.118H251.314Z" fill="#263238"/>
<path d="M254.943 213.118L256.54 204.844H258.413L260.002 213.118H258.442L258.144 211.304H256.838L256.526 213.118H254.943ZM256.99 210.266H257.985L257.484 206.927L256.99 210.266Z" fill="#263238"/>
<path d="M260.816 213.118V204.844H262.493V213.118H260.816Z" fill="#263238"/>
<path d="M263.756 213.119V204.845H265.933C266.424 204.835 266.913 204.898 267.385 205.034C267.757 205.145 268.08 205.381 268.299 205.701C268.537 206.102 268.65 206.564 268.626 207.03C268.63 207.334 268.601 207.638 268.539 207.937C268.484 208.184 268.378 208.416 268.227 208.619C268.067 208.827 267.854 208.987 267.61 209.084L268.757 213.119H267.029L266.078 209.374H265.491V213.119H263.756ZM265.447 208.372H265.933C266.157 208.385 266.38 208.337 266.579 208.234C266.736 208.147 266.855 208.005 266.913 207.835C266.979 207.619 267.011 207.394 267.007 207.167C267.026 206.86 266.953 206.555 266.797 206.289C266.7 206.18 266.578 206.095 266.442 206.044C266.305 205.992 266.158 205.974 266.013 205.992H265.447V208.372Z" fill="#263238"/>
<path d="M115.826 179.492C115.826 179.492 113.235 217.38 113.235 218.592C113.235 219.804 113.271 225.015 112.582 226.75C111.892 228.485 108.735 228.971 108.038 229.145C107.341 229.319 106.311 228.456 106.311 228.456C106.311 228.456 105.447 228.63 105.273 227.069C105.099 225.509 104.242 223.339 103.894 220.74C103.545 218.142 106.485 215.478 106.833 214.266C107.075 213.442 107.363 212.633 107.697 211.842L105.962 180.029L115.826 179.492Z" fill="white" stroke="#263238" stroke-width="0.641772" stroke-miterlimit="10"/>
<path d="M106.311 228.455L106.898 223.207L106.361 222.133" fill="white"/>
<path d="M106.311 228.455L106.898 223.207L106.361 222.133" stroke="#263238" stroke-width="0.641772" stroke-miterlimit="10"/>
<path d="M66.9563 300.891C66.9563 300.891 65.1418 305.529 64.3361 307.343C63.5305 309.158 61.7087 311.778 61.3095 312.99C60.9103 314.202 59.495 316.619 60.7071 317.628C61.9192 318.637 74.8169 317.628 74.8169 317.628C74.8169 317.628 76.8347 317.425 77.4371 316.009C78.0395 314.594 77.4371 309.361 77.4371 308.555C77.4371 307.75 77.2339 302.103 77.2339 302.103L66.9563 300.891Z" fill="white" stroke="#263238" stroke-width="0.641772" stroke-miterlimit="10"/>
<path d="M77.4515 316.011C77.6944 315.132 77.7852 314.219 77.72 313.311C76.6864 314.07 75.4919 314.582 74.2289 314.806H60.6053C60.2206 315.873 59.9811 316.983 60.7214 317.629C61.9263 318.638 74.8313 317.629 74.8313 317.629C74.8313 317.629 76.849 317.426 77.4515 316.011Z" fill="white" stroke="#263238" stroke-width="0.641772" stroke-miterlimit="10"/>
<path d="M104.598 300.891C104.598 300.891 106.413 305.529 107.218 307.343C108.024 309.158 109.839 311.778 110.245 312.99C110.651 314.202 112.06 316.619 110.847 317.628C109.635 318.637 96.7375 317.628 96.7375 317.628C96.7375 317.628 94.7198 317.425 94.1174 316.009C93.5149 314.594 94.1174 309.361 94.1174 308.555C94.1174 307.75 94.3133 302.103 94.3133 302.103L104.598 300.891Z" fill="white" stroke="#263238" stroke-width="0.641772" stroke-miterlimit="10"/>
<path d="M94.1171 316.011C93.8742 315.132 93.7834 314.219 93.8486 313.311C94.8822 314.07 96.0768 314.582 97.3398 314.806H110.963C111.348 315.873 111.588 316.983 110.847 317.629C109.642 318.638 96.7373 317.629 96.7373 317.629C96.7373 317.629 94.7196 317.426 94.1171 316.011Z" fill="white" stroke="#263238" stroke-width="0.641772" stroke-miterlimit="10"/>
<path d="M65.4326 188.527L66.4705 252.544C65.2327 256.873 64.9381 261.417 65.6068 265.87C66.8189 272.613 67.3342 295.454 67.3342 295.454C67.3342 295.454 65.6068 296.666 65.6068 297.878C65.6068 299.091 65.781 302.371 65.781 302.371C65.781 302.371 69.4101 304.106 71.8343 304.447C74.2585 304.788 79.4481 304.106 79.4481 304.106L80.1376 297.182L79.9707 291.303L82.5618 239.915L83.9482 212.748L86.5393 212.573L90.1684 239.915L93.0717 290.606L93.5942 303.758C95.0182 304.376 96.5435 304.727 98.0943 304.795C100.86 304.97 105.701 303.242 105.701 303.242C105.701 303.242 106.427 298.742 106.572 297.53C106.717 296.318 105.186 290.954 105.186 290.954L106.223 254.104L105.701 246.121L102.805 188.012L65.4326 188.527Z" fill="#263238" stroke="#263238" stroke-width="0.641772" stroke-miterlimit="10"/>
<path d="M81.6982 117.76L73.2207 122.115L75.2965 189.246H94.6758L95.1911 124.54C95.1911 124.54 84.9862 117.245 81.6982 117.76Z" fill="#92E3A9" stroke="#263238" stroke-width="0.641772" stroke-miterlimit="10"/>
<path d="M89.2696 120.105C89.2696 120.105 109.868 130.376 109.73 131.087C109.592 131.798 117.206 169.142 117.206 169.142L116.64 176.095L105.296 176.233L104.018 171.413L105.056 198.922L89.6107 198.196C89.6107 198.196 88.3333 164.446 90.1768 146.155C92.0204 127.864 89.2696 120.105 89.2696 120.105Z" fill="#BDBDBD" stroke="#263238" stroke-width="0.641772" stroke-miterlimit="10"/>
<path d="M118.2 173.496C118.2 173.496 117.474 181.298 116.748 181.581C116.022 181.864 107.138 182.205 106.151 181.48C105.164 180.754 104.453 174.105 104.874 173.401C105.295 172.697 116.929 172.973 116.929 172.973C116.929 172.973 118.2 172.392 118.2 173.496Z" fill="#BDBDBD" stroke="#263238" stroke-width="0.641772" stroke-miterlimit="10"/>
<path d="M104.017 171.398L101.891 143.934" stroke="#263238" stroke-width="0.641772" stroke-miterlimit="10"/>
<path d="M106.041 132.646C105.076 135.449 103.924 138.184 102.594 140.834" stroke="#263238" stroke-width="0.641772" stroke-miterlimit="10"/>
<path d="M89.2246 166.608C89.319 159.278 89.5948 151.932 90.1754 146.14C92.019 127.843 89.2682 120.105 89.2682 120.105C89.2682 120.105 91.4456 121.107 94.5303 122.537L97.4336 132.989L93.5577 135.282L96.3957 140.951L89.2246 166.608Z" fill="#BDBDBD" stroke="#263238" stroke-width="0.641772" stroke-miterlimit="10"/>
<path d="M76.9815 104.936L75.421 120.105C75.421 120.105 75.1379 133.293 83.7896 133.859C92.4414 134.425 90.0244 122.377 89.8865 119.401C89.7486 116.425 89.8865 112.731 89.8865 112.731L76.9815 104.936Z" fill="white" stroke="#263238" stroke-width="0.641772" stroke-miterlimit="10"/>
<path d="M81.5156 113.92L89.8625 122.869L90.2617 115.713L81.5156 113.92Z" fill="#263238" stroke="#263238" stroke-width="0.641772" stroke-miterlimit="10"/>
<path d="M96.6351 89.258C97.6144 87.9551 98.1876 86.3923 98.2827 84.7652C98.2955 83.4127 97.8816 82.0905 97.0998 80.9868C96.3179 79.8831 95.208 79.0541 93.9278 78.6175C91.3802 77.7175 76.2469 78.3199 73.4017 79.8224C70.5565 81.3248 69.3517 85.6652 69.9541 88.808C70.5565 91.9507 70.5493 98.9694 71.3041 100.044C72.059 101.118 74.1493 104.689 75.4994 104.094C76.8494 103.498 79.2446 102.446 79.5421 101.248C79.8397 100.051 79.8397 98.396 80.1446 97.6194C80.4494 96.8427 83.2874 94.4766 83.4398 92.8217C83.5922 91.1669 81.9373 90.1289 83.2874 89.2289C84.6374 88.3289 88.8326 89.5265 90.9302 89.8314C93.0278 90.1362 96.6351 89.258 96.6351 89.258Z" fill="#263238" stroke="#263238" stroke-width="0.641772" stroke-miterlimit="10"/>
<path d="M75.0648 102.294C75.0648 102.294 72.8147 97.6486 71.3196 98.3962C69.8244 99.1438 70.122 103.477 71.6171 105.589C72.0215 106.193 72.5589 106.696 73.188 107.059C73.8171 107.423 74.5212 107.638 75.2462 107.687C75.2462 107.687 78.5487 112.934 79.6011 113.493C80.6535 114.052 90.1327 118.334 91.7803 118.334C92.5882 118.336 93.3806 118.113 94.069 117.69C94.7573 117.267 95.3144 116.661 95.6779 115.939C96.4037 114.437 98.1384 103.949 98.1384 101.699C98.1384 99.4487 97.4126 97.0607 97.4126 96.4583C97.4126 95.8559 97.4126 92.8292 97.2602 91.6607C97.1078 90.4921 96.2078 86.8703 96.0626 86.4203C95.9174 85.9703 93.965 87.9155 92.165 87.7703C90.365 87.6251 81.8294 85.5203 81.2269 85.8178C80.6245 86.1154 77.7793 89.113 78.0842 90.0131C78.389 90.9131 81.6769 92.7131 81.6769 93.3083C81.6769 93.9034 77.0317 97.2059 77.0317 97.2059C77.0317 97.2059 78.3817 100.204 77.6342 100.835C76.8132 101.381 75.9546 101.869 75.0648 102.294Z" fill="white" stroke="#263238" stroke-width="0.641772" stroke-miterlimit="10"/>
<path d="M94.0227 94.9922L93.805 99.035L95.4816 106.097L92.1211 106.322" stroke="#263238" stroke-width="0.641772" stroke-miterlimit="10"/>
<path d="M92.68 109.69C92.68 109.69 90.5461 110.59 87.1855 107.672" stroke="#263238" stroke-width="0.641772" stroke-miterlimit="10"/>
<path d="M87.8537 99.2602C87.8537 100.066 87.4037 100.712 86.8448 100.712C86.2859 100.712 85.8359 100.066 85.8359 99.2602C85.8359 98.4546 86.2859 97.8086 86.8448 97.8086C87.4037 97.8086 87.8537 98.4546 87.8537 99.2602Z" fill="#263238"/>
<path d="M97.1643 98.3598C97.1643 99.1655 96.7142 99.8115 96.1554 99.8115C95.5965 99.8115 95.1465 99.1582 95.1465 98.3598C95.1465 97.5614 95.5965 96.9082 96.1554 96.9082C96.7142 96.9082 97.1643 97.5542 97.1643 98.3598Z" fill="#263238"/>
<path d="M83.709 96.5585C83.709 96.5585 85.0517 95.2085 88.6445 95.4335" stroke="#263238" stroke-width="0.641772" stroke-miterlimit="10"/>
<path d="M94.9219 94.7659C95.5692 94.5051 96.2923 94.5051 96.9396 94.7659" stroke="#263238" stroke-width="0.641772" stroke-miterlimit="10"/>
<path d="M51.0762 180.398C51.0762 180.398 53.6673 218.286 53.6673 219.498C53.6673 220.71 53.6673 225.922 54.3206 227.649C54.9738 229.376 58.1674 229.877 58.8569 230.051C59.5464 230.226 60.5916 229.362 60.5916 229.362C60.5916 229.362 61.4553 229.536 61.6295 227.976C61.8037 226.415 62.6602 224.245 63.0013 221.647C63.3425 219.048 60.4174 216.384 60.0981 215.172C59.8569 214.348 59.5685 213.539 59.2343 212.748L60.9618 180.914L51.0762 180.398Z" fill="white" stroke="#263238" stroke-width="0.641772" stroke-miterlimit="10"/>
<path d="M60.5899 229.361L60.002 224.113L60.5391 223.039" fill="white"/>
<path d="M60.5899 229.361L60.002 224.113L60.5391 223.039" stroke="#263238" stroke-width="0.641772" stroke-miterlimit="10"/>
<path d="M75.4196 120.105C75.4196 120.105 50.3209 131.595 50.4588 132.306C50.5968 133.018 50.1758 170.049 50.1758 170.049L50.7419 176.995L62.0864 177.133L63.3639 172.313L63.509 199.118L79.6729 198.689C79.6729 198.689 80.9504 164.939 79.1068 146.649C77.2632 128.358 75.4196 120.105 75.4196 120.105Z" fill="#BDBDBD" stroke="#263238" stroke-width="0.641772" stroke-miterlimit="10"/>
<path d="M49.1816 174.419C49.1816 174.419 49.9075 182.221 50.6333 182.504C51.3591 182.787 60.2721 183.07 61.2665 182.359C62.2608 181.648 62.9721 174.985 62.5439 174.281C62.1157 173.577 50.4881 173.852 50.4881 173.852C50.4881 173.852 49.1816 173.286 49.1816 174.419Z" fill="#BDBDBD" stroke="#263238" stroke-width="0.641772" stroke-miterlimit="10"/>
<path d="M63.365 172.291L62.7988 143.934" stroke="#263238" stroke-width="0.641772" stroke-miterlimit="10"/>
<path d="M54.1465 133.859C54.1465 133.859 60.1054 136.98 62.0869 140.813" stroke="#263238" stroke-width="0.641772" stroke-miterlimit="10"/>
<path d="M62.3691 136.414C62.3691 136.414 64.924 138.403 64.6409 143.934" stroke="#263238" stroke-width="0.641772" stroke-miterlimit="10"/>
<path d="M80.0581 167.095C79.9638 159.764 79.6879 152.419 79.1073 146.627C77.2637 128.329 75.4202 120.105 75.4202 120.105C75.4202 120.105 73.2427 121.107 70.1507 122.537L70.0273 132.851L73.8596 135.26L71.0217 140.929L80.0581 167.095Z" fill="#BDBDBD" stroke="#263238" stroke-width="0.641772" stroke-miterlimit="10"/>
<path d="M140.061 104.094C140.061 104.094 142.92 103.368 143.428 100.617C143.937 97.866 142.303 92.3426 138.624 89.6861C134.944 87.0296 125.748 84.7796 117.372 88.6627C108.996 92.5458 108.48 106.344 108.277 111.076C108.074 115.808 107.355 128.241 107.355 128.241H143.022C143.022 128.241 143.124 122.624 141.897 118.74C140.67 114.857 139.85 112.208 139.952 111.787C140.053 111.366 139.037 105.422 140.061 104.094Z" fill="#263238" stroke="#263238" stroke-width="0.641772" stroke-miterlimit="10"/>
<path d="M109.874 194.639C109.874 194.639 107.297 206.942 109.874 224.006C112.45 241.07 114.635 251.587 114.635 251.587C114.635 251.587 112.458 262.474 113.844 268.847C115.23 275.219 118.409 304.368 118.409 304.368C118.409 304.368 115.034 315.676 115.034 316.467C115.034 317.259 115.433 318.253 116.225 318.057C117.016 317.861 125.551 318.057 125.551 318.057C125.551 318.057 126.742 317.658 126.938 315.48C127.134 313.303 125.152 302.583 125.152 302.583L130.313 259.324L133.484 303.969C133.484 303.969 133.093 317.462 133.688 317.462C134.283 317.462 134.675 317.861 135.473 317.861C136.272 317.861 151.543 318.253 152.733 317.861C153.923 317.469 152.733 314.878 152.138 314.878C151.543 314.878 144.996 311.902 144.197 310.915C143.399 309.928 140.431 304.564 140.626 303.969C140.822 303.374 144.981 270.639 145.591 264.884C146.201 259.128 146.382 251.159 146.382 251.159C148.665 240.23 150.191 229.157 150.948 218.018C152.334 198.776 149.953 193.42 149.953 193.42L109.874 194.639Z" fill="white" stroke="#263238" stroke-width="0.641772" stroke-miterlimit="10"/>
<path d="M109.874 194.64C109.874 194.64 107.297 206.943 109.874 224.007C112.45 241.071 114.635 251.588 114.635 251.588C114.635 251.588 112.458 262.475 113.844 268.855C114.758 273.035 116.45 287.109 117.473 296.232H125.885L130.291 259.325L132.911 296.232H141.715C143.043 286.028 145.199 268.898 145.613 264.885C146.208 259.129 146.404 251.196 146.404 251.196C148.687 240.267 150.212 229.194 150.969 218.055C152.356 198.814 149.975 193.457 149.975 193.457L109.874 194.64Z" fill="#666666" stroke="#263238" stroke-width="0.641772" stroke-miterlimit="10"/>
<path d="M131.055 251.34C131.33 248.495 131.606 245.831 131.737 245.171C132.049 243.625 132.666 207.363 132.666 207.363" stroke="#263238" stroke-width="0.641772" stroke-miterlimit="10"/>
<path d="M130.312 259.317C130.312 259.317 130.559 256.516 130.857 253.395" stroke="#263238" stroke-width="0.641772" stroke-miterlimit="10"/>
<path d="M152.732 317.854C153.923 317.455 152.732 314.871 152.137 314.871C151.542 314.871 144.995 311.895 144.197 310.908L142.832 313.811L133.396 313.615C133.396 315.793 133.505 317.455 133.716 317.455C134.311 317.455 134.703 317.854 135.501 317.854C136.3 317.854 151.542 318.246 152.732 317.854Z" fill="white" stroke="#263238" stroke-width="0.641772" stroke-miterlimit="10"/>
<path d="M126.938 315.473C126.941 314.212 126.841 312.952 126.641 311.706L126.539 311.619H116.312C115.637 314.007 115.057 316.134 115.057 316.46C115.057 317.259 115.456 318.246 116.247 318.05C117.038 317.854 125.574 318.05 125.574 318.05C125.574 318.05 126.742 317.651 126.938 315.473Z" fill="white" stroke="#263238" stroke-width="0.641772" stroke-miterlimit="10"/>
<path d="M103.327 139.551L100.344 164.149L113.996 165.288L113.728 157.529L117.357 170.1C117.357 170.1 112.726 179.202 110.904 184.827C109.698 188.877 108.867 193.029 108.422 197.231H150.94C150.94 197.231 149.547 180.421 148.552 176.785C147.76 173.271 147.174 169.713 146.796 166.13L143.82 161.499C143.82 161.499 147.369 152.899 147.202 148.594C147.082 145.87 146.749 143.16 146.208 140.487L129.957 143.165L103.327 139.551Z" fill="#92E3A9" stroke="#263238" stroke-width="0.641772" stroke-miterlimit="10"/>
<path d="M122.626 117.609C122.626 117.609 122.104 127.321 121.45 128.896C120.797 130.471 105.482 138.498 105.482 138.498C105.482 138.498 126.321 143.202 130 143.202C133.68 143.202 149.147 137.293 149.147 137.293C149.147 137.293 138.26 131.915 135.771 130.471C134.651 129.883 133.595 129.18 132.621 128.373L132.229 123.387L122.626 117.609Z" fill="white" stroke="#263238" stroke-width="0.641772" stroke-miterlimit="10"/>
<path d="M124.934 122.08L132.598 128.337L132.286 125.658L124.934 122.08Z" fill="#263238" stroke="#263238" stroke-width="0.641772" stroke-miterlimit="10"/>
<path d="M136.99 96.3285C136.99 96.3285 140.873 100.93 141.076 102.766C141.279 104.603 140.35 106.751 140.771 109.001C141.192 111.251 141.178 115.439 139.85 117.994C138.521 120.549 136.99 124.432 135.662 124.94C134.603 125.425 133.451 125.673 132.287 125.666C130.958 125.666 126.364 122.908 124.934 122.088C123.504 121.267 121.762 120.048 121.051 118.821C120.56 117.938 120.149 117.013 119.824 116.056C118.994 115.751 118.248 115.253 117.647 114.605C116.725 113.588 116.195 110.315 116.195 110.315C116.195 110.315 120.282 109.908 122.002 106.737C123.722 103.565 124.557 98.9704 127.932 96.822C131.307 94.6736 132.94 96.2123 133.55 96.7204C134.159 97.2285 136.99 96.3285 136.99 96.3285Z" fill="white" stroke="#263238" stroke-width="0.641772" stroke-miterlimit="10"/>
<path d="M134.639 115.946L137.397 115.337L136.99 113.493C136.99 113.493 135.052 109.305 136.482 105.016C137.555 104.915 138.631 105.17 139.545 105.741" stroke="#263238" stroke-width="0.641772" stroke-miterlimit="10"/>
<path d="M134.335 118.334C133.318 118.487 132.279 118.38 131.314 118.024C130.35 117.667 129.491 117.072 128.818 116.295" fill="white"/>
<path d="M134.335 118.334C133.318 118.487 132.279 118.38 131.314 118.024C130.35 117.667 129.491 117.072 128.818 116.295" stroke="#263238" stroke-width="0.641772" stroke-miterlimit="10"/>
<path d="M130.502 109.922C130.927 109.922 131.271 109.373 131.271 108.695C131.271 108.018 130.927 107.469 130.502 107.469C130.077 107.469 129.732 108.018 129.732 108.695C129.732 109.373 130.077 109.922 130.502 109.922Z" fill="#263238"/>
<path d="M137.506 109.609C137.931 109.609 138.275 109.06 138.275 108.383C138.275 107.705 137.931 107.156 137.506 107.156C137.081 107.156 136.736 107.705 136.736 108.383C136.736 109.06 137.081 109.609 137.506 109.609Z" fill="#263238"/>
<path d="M127.49 105.937C128.82 105.383 130.238 105.071 131.678 105.016L127.49 105.937Z" fill="white"/>
<path d="M127.49 105.937C128.82 105.383 130.238 105.071 131.678 105.016" stroke="#263238" stroke-width="0.641772" stroke-miterlimit="10"/>
<path d="M103.145 164.475L104.299 175.558L129.448 198.225C129.448 198.225 131.763 202.195 133.077 202.689C134.391 203.182 137.381 205.011 138.535 204.184C139.689 203.357 139.036 203.023 138.702 202.195C138.183 201.016 137.742 199.803 137.381 198.566C137.047 197.238 135.93 194.756 134.732 193.928C133.534 193.101 131.103 192.44 130.595 192.273C130.087 192.106 113.328 171.631 113.328 171.631L112.863 165.237L103.145 164.475Z" fill="white" stroke="#263238" stroke-width="0.641772" stroke-miterlimit="10"/>
<path d="M149.54 139.332C150.144 141.089 150.871 142.802 151.717 144.456C152.878 146.634 155.999 161.615 155.999 161.615L144.278 165.244L143.871 161.513C143.871 161.513 147.58 151.257 147.253 148.608C146.927 145.959 146.259 140.501 146.259 140.501L149.54 139.332Z" fill="#92E3A9" stroke="#263238" stroke-width="0.641772" stroke-miterlimit="10"/>
<path d="M152.871 162.609L151.782 175.043C151.782 175.043 139.835 192.244 139.175 192.905C138.514 193.565 137.222 198.036 135.734 199.031C134.246 200.025 131.263 202.341 129.775 202.66C128.288 202.979 127.293 202.5 127.46 201.673C127.627 200.845 129.638 195.22 129.638 195.22C129.638 195.22 128.077 196.578 127.083 197.398C126.088 198.218 125.196 197.1 125.892 196.207C126.589 195.315 128.106 193.195 129.369 192.731C130.632 192.266 134.334 191.344 135.023 190.844C135.713 190.343 143.065 173.068 143.065 173.068L144.27 165.23L152.871 162.609Z" fill="white" stroke="#263238" stroke-width="0.641772" stroke-miterlimit="10"/>
<path d="M128.027 202.485C128.839 201.049 129.728 199.658 130.691 198.319C131.145 197.845 131.569 197.343 131.961 196.816" stroke="#263238" stroke-width="0.641772" stroke-miterlimit="10"/>
<path d="M129.775 202.69L132.657 199.249L133.927 197.631" stroke="#263238" stroke-width="0.641772" stroke-miterlimit="10"/>
<path d="M133.236 201.098L135.087 198.318" stroke="#263238" stroke-width="0.641772" stroke-miterlimit="10"/>
<path d="M106.137 135.58L101.506 139.876L130.277 144.957L152.023 140.152L148.88 135.521L129.45 141.974L106.137 135.58Z" fill="white" stroke="#263238" stroke-width="0.641772" stroke-miterlimit="10"/>
<path d="M235.507 162.068H232.72V148.714H240.37V151.034H235.507V154.475H240.033V156.794H235.507V162.068ZM252.131 151.856V162.068H249.999L249.625 160.759H249.475C249.263 161.108 248.989 161.395 248.652 161.619C248.328 161.831 247.966 161.987 247.567 162.087C247.168 162.199 246.757 162.255 246.333 162.255C245.61 162.255 244.974 162.124 244.425 161.863C243.877 161.601 243.453 161.196 243.153 160.647C242.854 160.098 242.705 159.388 242.705 158.515V151.856H245.491V157.823C245.491 158.546 245.622 159.095 245.884 159.469C246.146 159.843 246.564 160.03 247.137 160.03C247.711 160.03 248.153 159.899 248.465 159.637C248.789 159.375 249.014 158.995 249.138 158.496C249.276 157.997 249.344 157.386 249.344 156.663V151.856H252.131ZM260.851 151.669C261.948 151.669 262.827 151.969 263.488 152.567C264.149 153.153 264.479 154.101 264.479 155.41V162.068H261.692V156.102C261.692 155.366 261.562 154.818 261.3 154.456C261.038 154.082 260.62 153.895 260.047 153.895C259.199 153.895 258.619 154.188 258.307 154.774C257.995 155.348 257.84 156.177 257.84 157.262V162.068H255.053V151.856H257.185L257.559 153.166H257.709C257.933 152.817 258.207 152.536 258.532 152.324C258.856 152.1 259.217 151.938 259.616 151.838C260.015 151.726 260.427 151.669 260.851 151.669ZM270.581 162.255C269.446 162.255 268.517 161.813 267.794 160.927C267.083 160.03 266.728 158.714 266.728 156.981C266.728 155.236 267.089 153.914 267.813 153.016C268.536 152.118 269.483 151.669 270.655 151.669C271.142 151.669 271.572 151.738 271.946 151.875C272.32 152 272.638 152.174 272.9 152.399C273.174 152.623 273.405 152.879 273.592 153.166H273.685C273.648 152.966 273.604 152.679 273.554 152.305C273.505 151.919 273.48 151.526 273.48 151.127V147.854H276.266V162.068H274.134L273.592 160.74H273.48C273.305 161.015 273.081 161.27 272.806 161.507C272.544 161.732 272.233 161.913 271.871 162.05C271.51 162.187 271.079 162.255 270.581 162.255ZM271.553 160.03C272.326 160.03 272.869 159.805 273.18 159.356C273.492 158.895 273.654 158.209 273.667 157.299V157C273.667 156.002 273.511 155.242 273.199 154.718C272.9 154.194 272.339 153.933 271.516 153.933C270.905 153.933 270.425 154.201 270.076 154.737C269.727 155.26 269.552 156.021 269.552 157.019C269.552 158.016 269.727 158.77 270.076 159.282C270.425 159.78 270.917 160.03 271.553 160.03ZM281.967 151.856V162.068H279.181V151.856H281.967ZM280.583 147.854C280.995 147.854 281.35 147.954 281.649 148.153C281.949 148.34 282.098 148.696 282.098 149.219C282.098 149.731 281.949 150.086 281.649 150.285C281.35 150.485 280.995 150.585 280.583 150.585C280.159 150.585 279.798 150.485 279.499 150.285C279.212 150.086 279.068 149.731 279.068 149.219C279.068 148.696 279.212 148.34 279.499 148.153C279.798 147.954 280.159 147.854 280.583 147.854ZM290.677 151.669C291.774 151.669 292.653 151.969 293.314 152.567C293.975 153.153 294.306 154.101 294.306 155.41V162.068H291.519V156.102C291.519 155.366 291.388 154.818 291.126 154.456C290.864 154.082 290.446 153.895 289.873 153.895C289.025 153.895 288.445 154.188 288.134 154.774C287.822 155.348 287.666 156.177 287.666 157.262V162.068H284.879V151.856H287.011L287.385 153.166H287.535C287.759 152.817 288.034 152.536 288.358 152.324C288.682 152.1 289.044 151.938 289.443 151.838C289.842 151.726 290.253 151.669 290.677 151.669ZM300.482 151.669C301.105 151.669 301.666 151.794 302.165 152.044C302.664 152.293 303.088 152.667 303.437 153.166H303.512L303.736 151.856H306.093V162.087C306.093 163.06 305.899 163.876 305.513 164.537C305.139 165.198 304.572 165.697 303.811 166.033C303.05 166.383 302.109 166.557 300.987 166.557C300.264 166.557 299.59 166.513 298.967 166.426C298.356 166.339 297.757 166.183 297.171 165.959V163.733C297.595 163.907 298.019 164.051 298.443 164.163C298.88 164.288 299.322 164.375 299.771 164.425C300.232 164.487 300.694 164.518 301.155 164.518C301.878 164.518 302.414 164.325 302.764 163.939C303.125 163.552 303.306 162.972 303.306 162.199V161.994C303.306 161.782 303.312 161.563 303.325 161.339C303.35 161.115 303.368 160.915 303.381 160.74H303.306C302.957 161.277 302.539 161.663 302.053 161.9C301.567 162.137 301.018 162.255 300.407 162.255C299.197 162.255 298.25 161.794 297.564 160.871C296.891 159.936 296.554 158.639 296.554 156.981C296.554 155.859 296.71 154.905 297.022 154.12C297.333 153.322 297.782 152.717 298.368 152.305C298.967 151.881 299.671 151.669 300.482 151.669ZM301.361 153.933C300.924 153.933 300.557 154.051 300.257 154.288C299.971 154.512 299.752 154.855 299.603 155.317C299.466 155.765 299.397 156.333 299.397 157.019C299.397 158.041 299.559 158.808 299.883 159.319C300.207 159.818 300.712 160.067 301.398 160.067C301.76 160.067 302.072 160.023 302.333 159.936C302.595 159.836 302.807 159.681 302.969 159.469C303.144 159.244 303.275 158.957 303.362 158.608C303.449 158.259 303.493 157.835 303.493 157.336V157C303.493 156.264 303.418 155.672 303.269 155.223C303.119 154.774 302.888 154.45 302.577 154.25C302.265 154.039 301.86 153.933 301.361 153.933ZM321.964 158.365C321.964 159.151 321.77 159.836 321.384 160.422C320.997 161.009 320.436 161.464 319.701 161.788C318.977 162.1 318.092 162.255 317.045 162.255C316.583 162.255 316.128 162.224 315.679 162.162C315.243 162.1 314.819 162.012 314.408 161.9C314.009 161.775 313.628 161.626 313.267 161.451V158.814C313.903 159.088 314.557 159.344 315.231 159.581C315.916 159.805 316.596 159.918 317.269 159.918C317.731 159.918 318.098 159.855 318.373 159.73C318.66 159.606 318.865 159.437 318.99 159.225C319.127 159.014 319.196 158.77 319.196 158.496C319.196 158.159 319.077 157.873 318.84 157.636C318.616 157.399 318.31 157.181 317.924 156.981C317.537 156.769 317.095 156.545 316.596 156.308C316.284 156.158 315.948 155.984 315.586 155.784C315.224 155.572 314.875 155.317 314.539 155.017C314.214 154.706 313.946 154.332 313.734 153.895C313.522 153.459 313.416 152.935 313.416 152.324C313.416 151.526 313.597 150.847 313.959 150.285C314.333 149.712 314.857 149.275 315.53 148.976C316.216 148.677 317.02 148.527 317.943 148.527C318.641 148.527 319.302 148.608 319.925 148.77C320.561 148.933 321.222 149.163 321.908 149.462L320.991 151.669C320.38 151.42 319.832 151.227 319.345 151.09C318.859 150.952 318.36 150.884 317.849 150.884C317.5 150.884 317.201 150.94 316.951 151.052C316.702 151.164 316.509 151.32 316.371 151.52C316.247 151.719 316.184 151.956 316.184 152.231C316.184 152.542 316.278 152.81 316.465 153.035C316.652 153.247 316.933 153.452 317.307 153.652C317.681 153.851 318.148 154.088 318.709 154.363C319.395 154.687 319.975 155.024 320.449 155.373C320.935 155.722 321.309 156.133 321.571 156.607C321.833 157.081 321.964 157.667 321.964 158.365ZM328.319 162.255C327.309 162.255 326.448 162.075 325.738 161.713C325.027 161.339 324.485 160.765 324.11 159.992C323.736 159.219 323.549 158.228 323.549 157.019C323.549 155.772 323.761 154.755 324.185 153.97C324.609 153.184 325.195 152.605 325.943 152.231C326.704 151.856 327.577 151.669 328.562 151.669C329.26 151.669 329.865 151.738 330.376 151.875C330.9 152.012 331.355 152.174 331.741 152.361L330.918 154.512C330.482 154.338 330.071 154.194 329.684 154.082C329.31 153.97 328.936 153.914 328.562 153.914C328.076 153.914 327.67 154.032 327.346 154.269C327.022 154.494 326.779 154.837 326.617 155.298C326.467 155.747 326.392 156.314 326.392 157C326.392 157.673 326.473 158.234 326.635 158.683C326.81 159.12 327.059 159.45 327.384 159.674C327.708 159.886 328.1 159.992 328.562 159.992C329.148 159.992 329.665 159.918 330.114 159.768C330.563 159.606 330.999 159.388 331.423 159.113V161.489C330.999 161.763 330.551 161.956 330.077 162.068C329.615 162.193 329.029 162.255 328.319 162.255ZM343.051 156.944C343.051 157.792 342.932 158.546 342.695 159.207C342.471 159.868 342.14 160.429 341.704 160.89C341.28 161.339 340.763 161.682 340.152 161.919C339.541 162.143 338.849 162.255 338.076 162.255C337.365 162.255 336.704 162.143 336.093 161.919C335.495 161.682 334.977 161.339 334.541 160.89C334.104 160.429 333.761 159.868 333.512 159.207C333.275 158.546 333.157 157.792 333.157 156.944C333.157 155.809 333.356 154.855 333.755 154.082C334.154 153.297 334.728 152.698 335.476 152.287C336.224 151.875 337.109 151.669 338.132 151.669C339.092 151.669 339.94 151.875 340.675 152.287C341.411 152.698 341.991 153.297 342.415 154.082C342.839 154.855 343.051 155.809 343.051 156.944ZM335.999 156.944C335.999 157.617 336.068 158.184 336.205 158.646C336.355 159.095 336.586 159.437 336.897 159.674C337.209 159.899 337.614 160.011 338.113 160.011C338.612 160.011 339.011 159.899 339.31 159.674C339.622 159.437 339.846 159.095 339.983 158.646C340.133 158.184 340.208 157.617 340.208 156.944C340.208 156.27 340.133 155.709 339.983 155.26C339.846 154.812 339.622 154.475 339.31 154.25C338.998 154.026 338.593 153.914 338.094 153.914C337.359 153.914 336.822 154.169 336.486 154.681C336.162 155.179 335.999 155.934 335.999 156.944ZM351.058 151.669C351.195 151.669 351.357 151.676 351.544 151.688C351.731 151.701 351.881 151.719 351.993 151.744L351.788 154.363C351.7 154.338 351.569 154.319 351.395 154.307C351.233 154.282 351.089 154.269 350.965 154.269C350.603 154.269 350.254 154.319 349.917 154.419C349.581 154.506 349.275 154.649 349.001 154.849C348.739 155.048 348.527 155.317 348.365 155.653C348.215 155.977 348.14 156.383 348.14 156.869V162.068H345.354V151.856H347.467L347.879 153.577H348.009C348.209 153.228 348.458 152.91 348.758 152.623C349.057 152.337 349.4 152.106 349.786 151.931C350.185 151.757 350.609 151.669 351.058 151.669ZM357.69 151.669C358.637 151.669 359.448 151.85 360.121 152.212C360.807 152.573 361.337 153.097 361.711 153.783C362.085 154.469 362.272 155.31 362.272 156.308V157.654H355.688C355.713 158.44 355.944 159.057 356.38 159.506C356.829 159.955 357.447 160.179 358.232 160.179C358.893 160.179 359.491 160.117 360.028 159.992C360.564 159.855 361.119 159.649 361.692 159.375V161.526C361.193 161.775 360.663 161.956 360.102 162.068C359.554 162.193 358.887 162.255 358.101 162.255C357.079 162.255 356.175 162.068 355.389 161.694C354.604 161.308 353.986 160.728 353.538 159.955C353.089 159.182 352.864 158.209 352.864 157.037C352.864 155.84 353.064 154.849 353.463 154.063C353.874 153.265 354.442 152.667 355.165 152.268C355.888 151.869 356.73 151.669 357.69 151.669ZM357.708 153.652C357.172 153.652 356.723 153.827 356.362 154.176C356.013 154.525 355.807 155.067 355.745 155.803H359.653C359.653 155.391 359.579 155.024 359.429 154.699C359.292 154.375 359.08 154.12 358.793 153.933C358.506 153.745 358.145 153.652 357.708 153.652Z" fill="#212121"/>
</svg>
