<svg width="128" height="38" viewBox="0 0 128 38" fill="none" xmlns="http://www.w3.org/2000/svg">
<g clip-path="url(#clip0_1306_2254)">
<path d="M117.807 0.0001235H10.1989C9.80663 0.0001235 9.41909 0.0001235 9.02789 0.0020235C8.70041 0.0039235 8.37554 0.009443 8.04492 0.0140885C7.32666 0.0215952 6.61008 0.0777159 5.90143 0.181963C5.19377 0.28848 4.50827 0.489293 3.86813 0.777613C3.22877 1.06837 2.64457 1.44618 2.13672 1.89734C1.62621 2.34723 1.20066 2.86724 0.876427 3.43738C0.551304 4.00638 0.325862 4.61612 0.207889 5.24553C0.0887936 5.87415 0.0247074 6.51002 0.0162054 7.14743C0.00627891 7.4387 0.00523064 7.73094 0 8.02225V29.9808C0.00523064 30.2758 0.00627891 30.5615 0.0162054 30.8566C0.02471 31.494 0.0887962 32.1298 0.207889 32.7584C0.325536 33.3882 0.550991 33.9983 0.876427 34.5675C1.20051 35.1358 1.62612 35.6537 2.13672 36.1011C2.64265 36.5542 3.22722 36.9323 3.86813 37.2208C4.50827 37.5099 5.19369 37.7119 5.90143 37.8201C6.61021 37.9235 7.32671 37.9797 8.04492 37.9881C8.37554 37.9945 8.70041 37.9982 9.02789 37.9982C9.41908 38.0001 9.80665 38.0001 10.1989 38.0001H117.807C118.191 38.0001 118.582 38.0001 118.966 37.9982C119.292 37.9982 119.627 37.9945 119.953 37.9881C120.669 37.9801 121.385 37.924 122.092 37.8201C122.802 37.7112 123.49 37.5092 124.133 37.2208C124.773 36.9321 125.357 36.5541 125.863 36.1011C126.372 35.6519 126.799 35.1344 127.127 34.5675C127.45 33.9979 127.673 33.3878 127.789 32.7584C127.908 32.1297 127.975 31.494 127.987 30.8566C127.992 30.5615 127.992 30.2758 127.992 29.9808C128 29.6357 128 29.2924 128 28.9417V9.05945C128 8.71155 128 8.36643 127.992 8.02225C127.992 7.73094 127.992 7.4387 127.987 7.14739C127.975 6.50992 127.908 5.8742 127.789 5.24549C127.673 4.61644 127.449 4.00675 127.127 3.43734C126.466 2.29456 125.419 1.36435 124.133 0.777527C123.49 0.489912 122.802 0.289152 122.092 0.181877C121.385 0.0771711 120.669 0.0210309 119.953 0.0139555C119.627 0.0093195 119.292 0.0037525 118.966 0.0019C118.582 0 118.191 0 117.807 0V0.0001235Z" fill="#A6A6A6"/>
<path d="M9.03312 37.1686C8.70721 37.1686 8.38918 37.1648 8.06584 37.1584C7.39599 37.1506 6.72772 37.0988 6.06649 37.0034C5.44993 36.9091 4.85264 36.7337 4.29434 36.4829C3.74115 36.2343 3.23661 35.9082 2.80002 35.5172C2.35712 35.1308 1.98838 34.6826 1.70842 34.1905C1.42538 33.6952 1.2295 33.1642 1.1276 32.6162C1.01755 32.0273 0.958017 31.4318 0.949498 30.8349C0.942716 30.6346 0.933838 29.9675 0.933838 29.9675V8.02193C0.933838 8.02193 0.943294 7.36509 0.949551 7.17211C0.957708 6.57616 1.0169 5.98163 1.12661 5.39365C1.2287 4.84409 1.42473 4.31162 1.70793 3.81465C1.98686 3.32285 2.35355 2.87437 2.79379 2.4866C3.23353 2.09515 3.73969 1.76738 4.29381 1.51525C4.85084 1.26529 5.44699 1.0911 6.06231 0.998511C6.72571 0.902149 7.3963 0.850051 8.06847 0.842654L9.03364 0.831055H118.961L119.938 0.84312C120.604 0.850149 121.268 0.901782 121.926 0.99758C122.547 1.09133 123.15 1.26674 123.713 1.51804C124.823 2.02614 125.726 2.83001 126.296 3.81697C126.575 4.3105 126.768 4.83864 126.869 5.38344C126.98 5.97625 127.042 6.57546 127.055 7.17629C127.058 7.44533 127.058 7.73432 127.058 8.02193C127.066 8.37818 127.066 8.71726 127.066 9.05913V28.9414C127.066 29.2865 127.066 29.6233 127.058 29.9628C127.058 30.2717 127.058 30.5547 127.054 30.846C127.041 31.4361 126.98 32.0247 126.871 32.6068C126.771 33.1589 126.576 33.6939 126.293 34.1933C126.011 34.6801 125.645 35.1244 125.207 35.5098C124.77 35.9029 124.264 36.2309 123.71 36.4811C123.148 36.7338 122.547 36.9099 121.926 37.0034C121.265 37.0994 120.596 37.1511 119.926 37.1584C119.613 37.1648 119.285 37.1686 118.966 37.1686L117.807 37.1705L9.03312 37.1686Z" fill="black"/>
<path d="M26.4944 19.2857C26.5059 18.4928 26.743 17.7153 27.1837 17.0257C27.6245 16.336 28.2545 15.7566 29.0151 15.3412C28.5319 14.7283 27.8944 14.224 27.1533 13.8681C26.4122 13.5123 25.5879 13.3148 24.7459 13.2915C22.9497 13.124 21.2083 14.246 20.293 14.246C19.36 14.246 17.9507 13.3081 16.4331 13.3358C15.4515 13.364 14.4949 13.6175 13.6564 14.0716C12.8179 14.5258 12.1262 15.1651 11.6486 15.9273C9.5799 19.1083 11.123 23.7833 13.1047 26.3546C14.0961 27.6136 15.2549 29.0201 16.7711 28.9702C18.2547 28.9155 18.8089 28.1299 20.5998 28.1299C22.3741 28.1299 22.894 28.9702 24.441 28.9385C26.033 28.9155 27.0361 27.6738 27.9928 26.4028C28.7051 25.5057 29.2533 24.5141 29.617 23.4649C28.692 23.1175 27.9027 22.5359 27.3474 21.7927C26.7921 21.0495 26.4954 20.1776 26.4944 19.2857Z" fill="white"/>
<path d="M23.5726 11.6003C24.4406 10.6748 24.8683 9.4852 24.7647 8.28418C23.4385 8.40789 22.2135 8.97082 21.3337 9.86081C20.9035 10.2956 20.5741 10.8014 20.3642 11.3493C20.1543 11.8973 20.068 12.4766 20.1103 13.0541C20.7737 13.0602 21.4299 12.9325 22.0296 12.6807C22.6293 12.4288 23.1569 12.0594 23.5726 11.6003Z" fill="white"/>
<path d="M45.2493 25.7823H40.1861L38.9702 28.9709H36.8257L41.6214 17.1738H43.8495L48.6452 28.9709H46.4641L45.2493 25.7823ZM40.7105 24.3109H44.7239L42.7454 19.136H42.6901L40.7105 24.3109Z" fill="white"/>
<path d="M59.0023 24.6709C59.0023 27.3437 57.3916 29.0609 54.9608 29.0609C54.3451 29.0895 53.7327 28.9635 53.1938 28.6974C52.6549 28.4313 52.2113 28.0358 51.9137 27.5561H51.8677V31.8163H49.8799V20.3699H51.8041V21.8005H51.8406C52.1518 21.3231 52.6029 20.9296 53.1459 20.6619C53.6889 20.3941 54.3035 20.2621 54.9242 20.2799C57.3821 20.2799 59.0023 22.0055 59.0023 24.6709ZM56.9591 24.6709C56.9591 22.9295 55.9458 21.7847 54.3999 21.7847C52.881 21.7847 51.8594 22.9536 51.8594 24.6709C51.8594 26.4039 52.881 27.5645 54.3999 27.5645C55.9459 27.5645 56.9591 26.428 56.9591 24.6709Z" fill="white"/>
<path d="M69.6613 24.6709C69.6613 27.3437 68.0505 29.0609 65.6197 29.0609C65.004 29.0895 64.3916 28.9635 63.8527 28.6974C63.3138 28.4313 62.8702 28.0357 62.5727 27.5561H62.5267V31.8163H60.5388V20.3699H62.4629V21.8005H62.4995C62.8107 21.3231 63.2618 20.9296 63.8048 20.6619C64.3478 20.3941 64.9624 20.2621 65.5831 20.2799C68.0411 20.2799 69.6613 22.0055 69.6613 24.6709ZM67.618 24.6709C67.618 22.9295 66.6048 21.7847 65.0588 21.7847C63.54 21.7847 62.5183 22.9536 62.5183 24.6709C62.5183 26.4039 63.54 27.5645 65.0588 27.5645C66.6048 27.5645 67.618 26.428 67.618 24.6709H67.618Z" fill="white"/>
<path d="M76.706 25.6844C76.8533 26.8543 78.133 27.6224 79.8816 27.6224C81.5571 27.6224 82.7626 26.8542 82.7626 25.7994C82.7626 24.8837 82.0355 24.3354 80.3141 23.9597L78.5926 23.5914C76.1535 23.0681 75.0211 22.055 75.0211 20.4111C75.0211 18.3756 77.0184 16.9775 79.8544 16.9775C82.6612 16.9775 84.5854 18.3756 84.6502 20.4111H82.6435C82.5233 19.2338 81.4276 18.5232 79.8262 18.5232C78.2248 18.5232 77.1291 19.2421 77.1291 20.2886C77.1291 21.1227 77.829 21.6134 79.541 21.9891L81.0045 22.3083C83.7298 22.8807 84.8622 23.853 84.8622 25.5785C84.8622 27.7856 82.8827 29.1679 79.7343 29.1679C76.7885 29.1679 74.7996 27.8181 74.6711 25.6843L76.706 25.6844Z" fill="white"/>
<path d="M89.1524 18.335V20.3704H90.994V21.7685H89.1524V26.5102C89.1524 27.2468 89.5212 27.59 90.3307 27.59C90.5494 27.5867 90.7676 27.573 90.9846 27.5492V28.9389C90.6207 28.9993 90.2507 29.0267 89.8805 29.0206C87.9198 29.0206 87.1552 28.3665 87.1552 26.6985V21.7685H85.7471V20.3704H87.1551V18.335H89.1524Z" fill="white"/>
<path d="M92.0605 24.6714C92.0605 21.9652 93.8551 20.2646 96.6536 20.2646C99.4615 20.2646 101.248 21.9651 101.248 24.6714C101.248 27.385 99.4709 29.0781 96.6536 29.0781C93.8373 29.0781 92.0605 27.385 92.0605 24.6714ZM99.2223 24.6714C99.2223 22.815 98.2644 21.7193 96.6536 21.7193C95.0428 21.7193 94.086 22.8233 94.086 24.6714C94.086 26.5352 95.0428 27.6225 96.6536 27.6225C98.2644 27.6225 99.2222 26.5352 99.2222 24.6714H99.2223Z" fill="white"/>
<path d="M102.887 20.3708H104.783V21.8347H104.829C104.957 21.3775 105.259 20.9735 105.683 20.6905C106.107 20.4075 106.628 20.2628 107.158 20.2808C107.387 20.2801 107.616 20.3022 107.839 20.3467V21.998C107.55 21.9195 107.248 21.8835 106.946 21.8913C106.657 21.8809 106.369 21.9262 106.102 22.0239C105.835 22.1216 105.595 22.2696 105.398 22.4576C105.201 22.6456 105.052 22.8692 104.962 23.113C104.872 23.3569 104.842 23.6152 104.875 23.8702V28.9718H102.887L102.887 20.3708Z" fill="white"/>
<path d="M117.004 26.4452C116.737 28.0066 115.025 29.0781 112.834 29.0781C110.017 29.0781 108.268 27.4017 108.268 24.7122C108.268 22.0144 110.026 20.2646 112.751 20.2646C115.43 20.2646 117.115 21.8993 117.115 24.5072V25.1121H110.275V25.2187C110.243 25.5353 110.288 25.8542 110.406 26.1542C110.524 26.4543 110.712 26.7286 110.959 26.959C111.205 27.1895 111.504 27.3707 111.835 27.4907C112.166 27.6107 112.523 27.6667 112.88 27.655C113.35 27.6941 113.821 27.5974 114.224 27.3795C114.627 27.1615 114.94 26.8338 115.117 26.4452L117.004 26.4452ZM110.284 23.8782H115.126C115.144 23.5936 115.095 23.3087 114.983 23.0416C114.871 22.7744 114.698 22.5307 114.475 22.3257C114.252 22.1208 113.984 21.959 113.687 21.8504C113.39 21.7419 113.072 21.6891 112.751 21.6952C112.427 21.6935 112.106 21.7487 111.806 21.8577C111.507 21.9667 111.235 22.1274 111.005 22.3303C110.776 22.5333 110.594 22.7745 110.471 23.0402C110.347 23.3059 110.284 23.5907 110.284 23.8782V23.8782Z" fill="white"/>
<path d="M40.4612 8.29452C40.8779 8.26796 41.2961 8.32387 41.6856 8.45824C42.0751 8.5926 42.4261 8.80205 42.7134 9.0715C43.0007 9.34094 43.2171 9.66365 43.347 10.0164C43.4768 10.3691 43.5169 10.743 43.4644 11.1111C43.4644 12.9221 42.3623 13.963 40.4612 13.963H38.1558V8.29452H40.4612ZM39.1471 13.1614H40.3504C40.6482 13.1772 40.9463 13.1338 41.2228 13.0344C41.4994 12.935 41.7475 12.7821 41.9491 12.5869C42.1507 12.3916 42.3008 12.1588 42.3883 11.9055C42.4759 11.6522 42.4988 11.3848 42.4553 11.1227C42.4956 10.8616 42.4704 10.5958 42.3815 10.3444C42.2926 10.0929 42.1422 9.86208 41.941 9.66835C41.7399 9.47461 41.4929 9.32279 41.2179 9.22377C40.943 9.12474 40.6467 9.08097 40.3504 9.09557H39.1471V13.1614Z" fill="white"/>
<path d="M44.5842 11.8231C44.554 11.542 44.5902 11.2583 44.6905 10.9903C44.7909 10.7224 44.9532 10.476 45.1671 10.267C45.381 10.058 45.6417 9.89106 45.9325 9.7768C46.2233 9.66254 46.5377 9.60352 46.8557 9.60352C47.1737 9.60352 47.4881 9.66254 47.7789 9.7768C48.0697 9.89106 48.3304 10.058 48.5443 10.267C48.7581 10.476 48.9205 10.7224 49.0209 10.9903C49.1212 11.2583 49.1574 11.542 49.1272 11.8231C49.158 12.1045 49.1222 12.3885 49.0221 12.6569C48.922 12.9253 48.7598 13.1721 48.5459 13.3815C48.3319 13.5909 48.071 13.7583 47.78 13.8728C47.4889 13.9873 47.1741 14.0464 46.8557 14.0464C46.5373 14.0464 46.2225 13.9873 45.9314 13.8728C45.6403 13.7583 45.3795 13.5909 45.1655 13.3815C44.9516 13.1721 44.7894 12.9253 44.6893 12.6569C44.5892 12.3885 44.5534 12.1045 44.5842 11.8231ZM48.1494 11.8231C48.1494 10.8958 47.6804 10.3535 46.8573 10.3535C46.031 10.3535 45.5662 10.8958 45.5662 11.8231C45.5662 12.7578 46.031 13.2959 46.8573 13.2959C47.6804 13.2959 48.1494 12.7541 48.1494 11.8231H48.1494Z" fill="white"/>
<path d="M55.166 13.9633H54.1799L53.1844 10.8127H53.1092L52.1178 13.9633H51.1412L49.8135 9.68555H50.7776L51.6405 12.9497H51.7115L52.7018 9.68555H53.6137L54.604 12.9497H54.6792L55.5378 9.68555H56.4884L55.166 13.9633Z" fill="white"/>
<path d="M57.605 9.68542H58.52V10.365H58.5911C58.7116 10.1209 58.9148 9.9163 59.1725 9.77969C59.4301 9.64307 59.7293 9.58125 60.0284 9.60284C60.2628 9.58719 60.4981 9.61858 60.717 9.69467C60.9358 9.77076 61.1326 9.88961 61.2927 10.0424C61.4528 10.1952 61.5722 10.3781 61.6419 10.5774C61.7116 10.7767 61.73 10.9874 61.6956 11.1939V13.9632H60.745V11.4059C60.745 10.7185 60.4087 10.3766 59.7057 10.3766C59.5465 10.37 59.3877 10.3941 59.24 10.4471C59.0923 10.5001 58.9593 10.5809 58.8501 10.6839C58.7409 10.7868 58.658 10.9096 58.6071 11.0436C58.5563 11.1777 58.5387 11.32 58.5556 11.4606V13.9632H57.605L57.605 9.68542Z" fill="white"/>
<path d="M63.2102 8.01562H64.1608V13.9633H63.2102V8.01562Z" fill="white"/>
<path d="M65.4822 11.8222C65.4519 11.541 65.4881 11.2574 65.5885 10.9894C65.6889 10.7214 65.8513 10.475 66.0652 10.2661C66.2791 10.0571 66.5398 9.89009 66.8306 9.77583C67.1214 9.66156 67.4359 9.60254 67.7539 9.60254C68.0719 9.60254 68.3864 9.66156 68.6772 9.77583C68.968 9.89009 69.2287 10.0571 69.4426 10.2661C69.6565 10.475 69.8188 10.7214 69.9192 10.9894C70.0196 11.2574 70.0559 11.541 70.0256 11.8222C70.0564 12.1036 70.0206 12.3876 69.9205 12.656C69.8203 12.9244 69.6581 13.1713 69.4441 13.3806C69.2302 13.59 68.9693 13.7573 68.6782 13.8719C68.3871 13.9864 68.0722 14.0455 67.7539 14.0455C67.4355 14.0455 67.1207 13.9864 66.8296 13.8719C66.5385 13.7573 66.2776 13.59 66.0636 13.3806C65.8497 13.1713 65.6874 12.9244 65.5873 12.656C65.4872 12.3876 65.4513 12.1036 65.4822 11.8222ZM69.0473 11.8222C69.0473 10.8949 68.5783 10.3527 67.7552 10.3527C66.9289 10.3527 66.4641 10.8949 66.4641 11.8222C66.4641 12.7569 66.9289 13.295 67.7552 13.295C68.5783 13.295 69.0473 12.7532 69.0473 11.8222H69.0473Z" fill="white"/>
<path d="M71.0264 12.7531C71.0264 11.9831 71.6719 11.5392 72.8178 11.4761L74.1225 11.4093V11.0401C74.1225 10.5883 73.7862 10.3331 73.1364 10.3331C72.6058 10.3331 72.2381 10.5062 72.1326 10.8086H71.2123C71.3095 10.0738 72.0877 9.60254 73.1803 9.60254C74.3879 9.60254 75.0689 10.1364 75.0689 11.0401V13.9629H74.1539V13.3617H74.0787C73.926 13.5774 73.7116 13.7532 73.4575 13.8712C73.2033 13.9892 72.9184 14.0451 72.6319 14.0334C72.4297 14.052 72.2253 14.0329 72.032 13.9771C71.8386 13.9214 71.6606 13.8302 71.5093 13.7096C71.358 13.589 71.2369 13.4416 71.1537 13.2768C71.0706 13.1121 71.0272 12.9337 71.0264 12.7531ZM74.1225 12.3876V12.03L72.9463 12.0967C72.283 12.1362 71.9822 12.3366 71.9822 12.7137C71.9822 13.0987 72.3582 13.3227 72.8753 13.3227C73.0268 13.3364 73.1799 13.3228 73.3254 13.2828C73.4708 13.2428 73.6058 13.1772 73.7221 13.09C73.8385 13.0027 73.9339 12.8956 74.0027 12.7749C74.0715 12.6543 74.1122 12.5225 74.1225 12.3876Z" fill="white"/>
<path d="M76.3184 11.8226C76.3184 10.4709 77.1008 9.61459 78.3177 9.61459C78.6187 9.60227 78.9175 9.6663 79.179 9.7992C79.4406 9.9321 79.6542 10.1284 79.7948 10.3651H79.8658V8.01562H80.8164V13.9633H79.9055V13.2875H79.8303C79.6788 13.5226 79.4578 13.7164 79.1912 13.848C78.9246 13.9795 78.6225 14.0438 78.3177 14.0338C77.0924 14.0339 76.3184 13.1776 76.3184 11.8226ZM77.3003 11.8226C77.3003 12.7299 77.7819 13.2759 78.5873 13.2759C79.3884 13.2759 79.8836 12.722 79.8836 11.8263C79.8836 10.9348 79.3832 10.373 78.5873 10.373C77.7871 10.373 77.3003 10.9227 77.3003 11.8226H77.3003Z" fill="white"/>
<path d="M84.7493 11.8231C84.719 11.542 84.7552 11.2583 84.8556 10.9903C84.956 10.7224 85.1183 10.476 85.3322 10.267C85.546 10.058 85.8067 9.89106 86.0975 9.7768C86.3883 9.66254 86.7028 9.60352 87.0207 9.60352C87.3387 9.60352 87.6532 9.66254 87.944 9.7768C88.2348 9.89106 88.4954 10.058 88.7093 10.267C88.9232 10.476 89.0855 10.7224 89.1859 10.9903C89.2863 11.2583 89.3225 11.542 89.2922 11.8231C89.3231 12.1045 89.2873 12.3885 89.1872 12.6569C89.087 12.9253 88.9248 13.1721 88.7109 13.3815C88.497 13.5909 88.2361 13.7583 87.945 13.8728C87.6539 13.9873 87.3391 14.0464 87.0207 14.0464C86.7024 14.0464 86.3875 13.9873 86.0965 13.8728C85.8054 13.7583 85.5445 13.5909 85.3306 13.3815C85.1166 13.1721 84.9544 12.9253 84.8543 12.6569C84.7542 12.3885 84.7184 12.1045 84.7493 11.8231ZM88.3145 11.8231C88.3145 10.8958 87.8454 10.3535 87.0223 10.3535C86.196 10.3535 85.7312 10.8958 85.7312 11.8231C85.7312 12.7578 86.1961 13.2959 87.0223 13.2959C87.8454 13.2959 88.3145 12.7541 88.3145 11.8231Z" fill="white"/>
<path d="M90.5676 9.68542H91.4827V10.365H91.5537C91.6742 10.1209 91.8775 9.9163 92.1351 9.77969C92.3928 9.64307 92.692 9.58125 92.9911 9.60284C93.2254 9.58719 93.4608 9.61858 93.6796 9.69467C93.8985 9.77076 94.0952 9.88961 94.2554 10.0424C94.4155 10.1952 94.5348 10.3781 94.6046 10.5774C94.6743 10.7767 94.6926 10.9874 94.6582 11.1939V13.9632H93.7077V11.4059C93.7077 10.7185 93.3713 10.3766 92.6683 10.3766C92.5092 10.37 92.3503 10.3941 92.2027 10.4471C92.055 10.5001 91.922 10.5809 91.8127 10.6839C91.7035 10.7868 91.6206 10.9096 91.5698 11.0436C91.5189 11.1777 91.5014 11.32 91.5182 11.4606V13.9632H90.5676V9.68542Z" fill="white"/>
<path d="M100.029 8.62012V9.70464H101.073V10.4157H100.029V12.6154C100.029 13.0635 100.237 13.2597 100.711 13.2597C100.832 13.2594 100.953 13.2529 101.073 13.2402V13.9435C100.902 13.9706 100.729 13.985 100.556 13.9866C99.4988 13.9866 99.0779 13.6563 99.0779 12.8316V10.4157H98.3132V9.7046H99.0779V8.62012H100.029Z" fill="white"/>
<path d="M102.372 8.01562H103.314V10.373H103.389C103.515 10.1266 103.724 9.92089 103.987 9.78376C104.25 9.64663 104.554 9.5848 104.858 9.60669C105.091 9.59543 105.324 9.63 105.54 9.70794C105.757 9.78588 105.951 9.90527 106.109 10.0576C106.268 10.2099 106.386 10.3914 106.457 10.5891C106.527 10.7869 106.548 10.9959 106.516 11.2015V13.9633H105.565V11.4097C105.565 10.7265 105.207 10.3804 104.535 10.3804C104.372 10.3685 104.207 10.3885 104.053 10.4389C103.9 10.4893 103.76 10.5689 103.645 10.6722C103.529 10.7755 103.44 10.9 103.385 11.0369C103.329 11.1738 103.308 11.3199 103.322 11.4649V13.9633H102.372L102.372 8.01562Z" fill="white"/>
<path d="M112.059 12.8079C111.93 13.1989 111.65 13.5371 111.268 13.7633C110.887 13.9896 110.428 14.0895 109.972 14.0455C109.655 14.053 109.339 13.999 109.048 13.8873C108.756 13.7757 108.496 13.609 108.284 13.3989C108.072 13.1889 107.914 12.9404 107.822 12.6708C107.729 12.4011 107.703 12.1168 107.747 11.8375C107.705 11.5574 107.731 11.2724 107.823 11.002C107.916 10.7316 108.072 10.4819 108.283 10.27C108.494 10.0581 108.753 9.88884 109.044 9.77369C109.334 9.65854 109.649 9.6002 109.968 9.60261C111.308 9.60261 112.116 10.4158 112.116 11.7591V12.0537H108.715V12.101C108.7 12.258 108.723 12.416 108.78 12.5649C108.838 12.7138 108.931 12.8504 109.051 12.9657C109.172 13.0811 109.319 13.1728 109.482 13.2349C109.645 13.2971 109.821 13.3283 109.998 13.3265C110.225 13.3507 110.456 13.3144 110.66 13.222C110.864 13.1297 111.032 12.9855 111.144 12.8079L112.059 12.8079ZM108.715 11.4293H111.148C111.16 11.2857 111.138 11.1415 111.084 11.006C111.029 10.8704 110.943 10.7464 110.832 10.6421C110.72 10.5377 110.585 10.4552 110.435 10.4C110.286 10.3447 110.124 10.3178 109.962 10.3211C109.798 10.3193 109.635 10.3467 109.483 10.4018C109.33 10.4568 109.192 10.5384 109.076 10.6417C108.959 10.7449 108.868 10.8678 108.806 11.0031C108.744 11.1384 108.713 11.2833 108.715 11.4293H108.715Z" fill="white"/>
</g>
<defs>
<clipPath id="clip0_1306_2254">
<rect width="128" height="38" fill="white"/>
</clipPath>
</defs>
</svg>
