<svg width="456" height="419" viewBox="0 0 456 419" fill="none" xmlns="http://www.w3.org/2000/svg">
<path d="M404.538 328.947L213.188 382.803C211.123 383.311 208.95 383.148 206.983 382.338C205.017 381.527 203.36 380.111 202.252 378.295L57.1459 117.142C56.6538 116.366 56.3573 115.482 56.2819 114.566C56.2064 113.65 56.3543 112.73 56.7127 111.884C57.0712 111.038 57.6296 110.291 58.3399 109.708C59.0503 109.126 59.8915 108.724 60.7913 108.537L252.141 54.6811C254.203 54.1707 256.375 54.3314 258.339 55.1399C260.304 55.9484 261.959 57.3625 263.064 59.1766L408.145 320.33C408.637 321.104 408.934 321.986 409.012 322.9C409.089 323.814 408.945 324.733 408.591 325.58C408.237 326.426 407.683 327.174 406.978 327.76C406.272 328.347 405.435 328.754 404.538 328.947Z" fill="#263238" stroke="black" stroke-width="0.669053" stroke-miterlimit="10"/>
<path d="M210.496 371.352C210.496 371.352 321.068 345.049 395.496 319.273L210.496 371.352Z" fill="#884849"/>
<path d="M395.496 319.273L210.496 371.352L67.3994 113.831L252.399 61.7656L395.496 319.273Z" fill="white" stroke="#263238" stroke-width="0.669053" stroke-miterlimit="10"/>
<path d="M197.603 116.304L211.965 112.26" stroke="#263238" stroke-width="0.669053" stroke-miterlimit="10"/>
<path d="M97.9795 144.346L186.486 119.434" stroke="#263238" stroke-width="0.669053" stroke-miterlimit="10"/>
<path d="M181.849 132.303L217.529 122.256" stroke="#263238" stroke-width="0.669053" stroke-miterlimit="10"/>
<path d="M127.168 147.696L172.11 135.047" stroke="#263238" stroke-width="0.669053" stroke-miterlimit="10"/>
<path d="M103.531 154.341L118.821 150.039" stroke="#263238" stroke-width="0.669053" stroke-miterlimit="10"/>
<path d="M153.574 151.83L223.094 132.264" stroke="#263238" stroke-width="0.669053" stroke-miterlimit="10"/>
<path d="M109.096 164.351L138.284 156.133" stroke="#263238" stroke-width="0.669053" stroke-miterlimit="10"/>
<path d="M262.021 108.768C260.191 105.777 257.459 103.444 254.218 102.106C250.977 100.768 247.395 100.494 243.988 101.323C237.328 103.204 234.636 109.567 237.959 115.557C239.785 118.552 242.517 120.888 245.759 122.227C249.001 123.566 252.586 123.837 255.993 123.002C262.588 121.134 265.345 114.758 262.021 108.768Z" fill="white" stroke="#263238" stroke-width="0.669053" stroke-miterlimit="10"/>
<path d="M137.125 184.896L122.763 188.941" stroke="#263238" stroke-width="0.669053" stroke-miterlimit="10"/>
<path d="M236.748 156.854L148.242 181.766" stroke="#263238" stroke-width="0.669053" stroke-miterlimit="10"/>
<path d="M163.995 188.902L128.314 198.95" stroke="#263238" stroke-width="0.669053" stroke-miterlimit="10"/>
<path d="M218.676 173.51L173.733 186.159" stroke="#263238" stroke-width="0.669053" stroke-miterlimit="10"/>
<path d="M242.313 166.863L227.023 171.166" stroke="#263238" stroke-width="0.669053" stroke-miterlimit="10"/>
<path d="M203.386 189.379L133.879 208.945" stroke="#263238" stroke-width="0.669053" stroke-miterlimit="10"/>
<path d="M247.877 176.857L218.676 185.076" stroke="#263238" stroke-width="0.669053" stroke-miterlimit="10"/>
<path d="M286.804 153.375C284.979 150.38 282.247 148.043 279.005 146.705C275.762 145.366 272.178 145.095 268.771 145.93C262.111 147.798 259.419 154.174 262.742 160.099C264.566 163.096 267.298 165.434 270.541 166.773C273.784 168.112 277.369 168.382 280.776 167.545C287.423 165.728 290.128 159.352 286.804 153.375Z" fill="white" stroke="#263238" stroke-width="0.669053" stroke-miterlimit="10"/>
<path d="M247.169 205.494L261.531 201.449" stroke="#263238" stroke-width="0.669053" stroke-miterlimit="10"/>
<path d="M147.546 233.535L236.052 208.623" stroke="#263238" stroke-width="0.669053" stroke-miterlimit="10"/>
<path d="M231.416 221.504L267.096 211.457" stroke="#263238" stroke-width="0.669053" stroke-miterlimit="10"/>
<path d="M176.735 236.897L221.677 224.234" stroke="#263238" stroke-width="0.669053" stroke-miterlimit="10"/>
<path d="M153.098 243.544L168.388 239.242" stroke="#263238" stroke-width="0.669053" stroke-miterlimit="10"/>
<path d="M203.141 241.018L272.648 221.465" stroke="#263238" stroke-width="0.669053" stroke-miterlimit="10"/>
<path d="M158.663 253.552L187.851 245.334" stroke="#263238" stroke-width="0.669053" stroke-miterlimit="10"/>
<path d="M312.386 206.406C314.593 200.792 310.623 193.976 303.519 191.184C296.415 188.391 288.866 190.679 286.659 196.293C284.452 201.908 288.422 208.723 295.526 211.516C302.631 214.308 310.179 212.021 312.386 206.406Z" fill="white" stroke="#263238" stroke-width="0.669053" stroke-miterlimit="10"/>
<path d="M186.692 274.098L172.33 278.142" stroke="#263238" stroke-width="0.669053" stroke-miterlimit="10"/>
<path d="M286.315 246.057L197.809 270.969" stroke="#263238" stroke-width="0.669053" stroke-miterlimit="10"/>
<path d="M213.562 278.104L177.881 288.138" stroke="#263238" stroke-width="0.669053" stroke-miterlimit="10"/>
<path d="M268.243 262.711L223.3 275.36" stroke="#263238" stroke-width="0.669053" stroke-miterlimit="10"/>
<path d="M291.88 256.051L276.59 260.353" stroke="#263238" stroke-width="0.669053" stroke-miterlimit="10"/>
<path d="M252.953 278.58L183.446 298.147" stroke="#263238" stroke-width="0.669053" stroke-miterlimit="10"/>
<path d="M297.431 266.061L268.243 274.279" stroke="#263238" stroke-width="0.669053" stroke-miterlimit="10"/>
<path d="M336.358 242.565C334.531 239.571 331.799 237.236 328.557 235.897C325.315 234.559 321.731 234.286 318.324 235.12C311.665 237 308.973 243.364 312.296 249.353C314.122 252.349 316.853 254.685 320.096 256.024C323.338 257.363 326.923 257.634 330.33 256.799C336.989 254.969 339.694 248.529 336.358 242.565Z" fill="white" stroke="#263238" stroke-width="0.669053" stroke-miterlimit="10"/>
<path d="M296.736 294.695L311.098 290.65" stroke="#263238" stroke-width="0.669053" stroke-miterlimit="10"/>
<path d="M197.113 322.738L285.619 297.826" stroke="#263238" stroke-width="0.669053" stroke-miterlimit="10"/>
<path d="M280.982 310.695L316.663 300.66" stroke="#263238" stroke-width="0.669053" stroke-miterlimit="10"/>
<path d="M226.302 326.087L271.244 313.438" stroke="#263238" stroke-width="0.669053" stroke-miterlimit="10"/>
<path d="M202.665 332.747L217.955 328.432" stroke="#263238" stroke-width="0.669053" stroke-miterlimit="10"/>
<path d="M252.708 330.221L322.215 310.654" stroke="#263238" stroke-width="0.669053" stroke-miterlimit="10"/>
<path d="M208.229 342.742L237.418 334.523" stroke="#263238" stroke-width="0.669053" stroke-miterlimit="10"/>
<path d="M361.949 295.6C364.156 289.985 360.186 283.17 353.082 280.377C345.978 277.584 338.429 279.872 336.222 285.486C334.015 291.101 337.985 297.916 345.089 300.709C352.194 303.502 359.742 301.214 361.949 295.6Z" fill="white" stroke="#263238" stroke-width="0.669053" stroke-miterlimit="10"/>
<path d="M189.77 66.1317L165.451 72.9716C163.609 73.0489 161.586 72.9072 161.02 71.9669C159.731 69.5452 161.38 67.2781 161.895 65.1398C162.492 62.6752 162.108 60.0754 160.826 57.8877C158.949 54.8103 156.14 52.4109 152.807 51.0374C149.474 49.664 145.791 49.3879 142.29 50.2492C135.463 52.1814 132.707 58.7121 136.107 64.8436C137.776 67.6757 140.277 69.9247 143.269 71.2841C143.269 71.2841 148.203 73.4868 149.195 75.2644C149.723 76.2048 148.344 77.3125 146.94 78.1498L120.727 85.5307C119.739 85.7385 118.815 86.1824 118.036 86.8243C117.256 87.4663 116.643 88.2874 116.25 89.2176C115.856 90.1477 115.694 91.1593 115.776 92.1659C115.858 93.1725 116.182 94.1443 116.721 94.9984L120.263 101.362L205.369 77.4156L201.827 71.0394C200.603 69.0434 198.773 67.4907 196.604 66.6079C194.435 65.7251 192.041 65.5582 189.77 66.1317ZM146.451 57.8104C147.572 57.5327 148.753 57.6202 149.821 58.0605C150.889 58.5007 151.789 59.2706 152.389 60.2579C152.656 60.679 152.816 61.1585 152.857 61.6553C152.897 62.1521 152.816 62.6513 152.621 63.11C152.426 63.5686 152.122 63.973 151.736 64.2885C151.35 64.6039 150.894 64.8209 150.405 64.9209C149.287 65.1989 148.109 65.1128 147.044 64.6749C145.978 64.237 145.08 63.4702 144.48 62.4863C144.214 62.065 144.053 61.5856 144.012 61.0889C143.971 60.5922 144.051 60.093 144.244 59.6337C144.438 59.1745 144.74 58.7688 145.124 58.4514C145.508 58.1339 145.963 57.914 146.451 57.8104Z" fill="#92E3A9" stroke="#263238" stroke-width="0.669053" stroke-miterlimit="10"/>
<path d="M242.249 109.516L252.747 116.845L263.567 92.5898" stroke="#92E3A9" stroke-width="4.01432" stroke-linecap="round" stroke-linejoin="round"/>
<path d="M266.646 153.428L277.144 160.744L287.964 136.502" stroke="#92E3A9" stroke-width="4.01432" stroke-linecap="round" stroke-linejoin="round"/>
</svg>
