<svg width="128" height="38" viewBox="0 0 128 38" fill="none" xmlns="http://www.w3.org/2000/svg">
<g clip-path="url(#clip0_1306_2240)">
<path d="M123.259 0H4.74074C2.12251 0 0 2.12665 0 4.75V33.25C0 35.8733 2.12251 38 4.74074 38H123.259C125.877 38 128 35.8733 128 33.25V4.75C128 2.12665 125.877 0 123.259 0Z" fill="black"/>
<path d="M123.259 0.76C124.315 0.76 125.328 1.18037 126.075 1.92864C126.822 2.67691 127.241 3.69179 127.241 4.75V33.25C127.241 34.3082 126.822 35.3231 126.075 36.0713C125.328 36.8196 124.315 37.24 123.259 37.24H4.74074C3.68459 37.24 2.67169 36.8196 1.92488 36.0713C1.17807 35.3231 0.758519 34.3082 0.758519 33.25V4.75C0.758519 3.69179 1.17807 2.67691 1.92488 1.92864C2.67169 1.18037 3.68459 0.76 4.74074 0.76H123.259ZM123.259 0H4.74074C3.48342 0 2.27759 0.500445 1.38853 1.39125C0.499469 2.28204 0 3.49022 0 4.75V33.25C0 34.5098 0.499469 35.718 1.38853 36.6087C2.27759 37.4995 3.48342 38 4.74074 38H123.259C124.517 38 125.723 37.4995 126.612 36.6087C127.5 35.718 128 34.5098 128 33.25V4.75C128 3.49022 127.5 2.28204 126.612 1.39125C125.723 0.500445 124.517 0 123.259 0Z" fill="#A6A6A6"/>
<path d="M44.9613 9.72839C44.9774 10.0768 44.9227 10.4249 44.8005 10.7515C44.6781 11.0782 44.491 11.3765 44.2501 11.6284C43.9813 11.9083 43.6565 12.1282 43.2972 12.2739C42.9377 12.4196 42.5517 12.4878 42.1642 12.4739C41.5764 12.4692 41.0029 12.2909 40.5158 11.9613C40.0286 11.6315 39.6495 11.1651 39.4257 10.6203C39.2019 10.0756 39.1436 9.4769 39.2581 8.89913C39.3725 8.32135 39.6545 7.79026 40.0688 7.37239C40.3411 7.09384 40.6676 6.87423 41.0281 6.72717C41.3885 6.5801 41.7752 6.50871 42.1642 6.51739C42.5651 6.51605 42.962 6.59688 43.3304 6.75489C43.6736 6.89355 43.979 7.11167 44.2217 7.39139L43.7192 7.89489C43.5299 7.66936 43.291 7.49101 43.0211 7.37395C42.7512 7.25689 42.4579 7.20432 42.1642 7.22039C41.8681 7.21894 41.5747 7.27742 41.3016 7.39233C41.0285 7.50724 40.7814 7.67622 40.5752 7.88913C40.3689 8.10205 40.2076 8.3545 40.1011 8.63138C39.9945 8.90825 39.9448 9.20383 39.955 9.50039C39.9489 9.94319 40.0737 10.378 40.3137 10.7498C40.5539 11.1217 40.8985 11.4139 41.3042 11.5897C41.7099 11.7655 42.1584 11.817 42.5934 11.7376C43.0282 11.6583 43.4298 11.4517 43.7476 11.1439C44.0394 10.8271 44.2077 10.4157 44.2217 9.98489H42.1642V9.30089H44.9233C44.9487 9.44198 44.9614 9.58503 44.9613 9.72839ZM49.3038 7.35339H46.7438V9.15839H49.0762V9.84239H46.7438V11.6474H49.3038V12.3504H45.9853V6.65039H49.3038V7.35339ZM52.4137 12.3504H51.6836V7.35339H50.0907V6.65039H54.0445V7.35339H52.4137V12.3504ZM56.8321 12.3504V6.65039H57.5621V12.3504H56.8321ZM60.8048 12.3504H60.0747V7.35339H58.4819V6.65039H62.3882V7.35339H60.8048V12.3504ZM69.7933 11.6094C69.239 12.1616 68.4891 12.4717 67.7073 12.4717C66.9257 12.4717 66.1757 12.1616 65.6214 11.6094C65.0827 11.038 64.7825 10.2817 64.7825 9.49564C64.7825 8.70957 65.0827 7.9533 65.6214 7.38189C65.8947 7.10615 66.2196 6.8873 66.5776 6.73795C66.9356 6.58861 67.3195 6.51172 67.7073 6.51172C68.0951 6.51172 68.4791 6.58861 68.8371 6.73795C69.1951 6.8873 69.5201 7.10615 69.7933 7.38189C70.3342 7.9522 70.6358 8.7089 70.6358 9.49564C70.6358 10.2824 70.3342 11.0391 69.7933 11.6094ZM66.1619 11.1344C66.5723 11.5439 67.128 11.7739 67.7073 11.7739C68.2867 11.7739 68.8424 11.5439 69.2528 11.1344C69.658 10.6869 69.8823 10.1045 69.8823 9.50039C69.8823 8.89629 69.658 8.31382 69.2528 7.86639C68.8424 7.45683 68.2867 7.22688 67.7073 7.22688C67.128 7.22688 66.5723 7.45683 66.1619 7.86639C65.7568 8.31382 65.5324 8.89629 65.5324 9.50039C65.5324 10.1045 65.7568 10.6869 66.1619 11.1344ZM71.6611 12.3504V6.65039H72.5524L75.321 11.0869V6.65039H76.051V12.3504H75.2925L72.4007 7.70489V12.3504H71.6611Z" fill="white" stroke="white" stroke-width="0.2" stroke-miterlimit="10"/>
<path d="M64.6068 20.6628C63.8107 20.6665 63.0335 20.9065 62.3733 21.3525C61.7131 21.7983 61.1996 22.4302 60.8975 23.1683C60.5954 23.9063 60.5183 24.7175 60.6759 25.4995C60.8336 26.2814 61.2188 26.9991 61.7831 27.5618C62.3474 28.1246 63.0654 28.5073 63.8466 28.6615C64.6278 28.8158 65.437 28.7347 66.1722 28.4285C66.9074 28.1224 67.5356 27.6049 67.9776 26.9414C68.4195 26.2778 68.6554 25.498 68.6554 24.7003C68.6632 24.1663 68.5635 23.6363 68.3626 23.1416C68.1616 22.647 67.8634 22.198 67.4857 21.8213C67.1078 21.4446 66.6583 21.1478 66.1638 20.9488C65.6692 20.7498 65.1397 20.6525 64.6068 20.6628ZM64.6068 27.1513C64.1172 27.1856 63.6285 27.0715 63.2045 26.8239C62.7804 26.5762 62.4405 26.2065 62.2289 25.7627C62.0173 25.319 61.9438 24.8218 62.0181 24.3356C62.0923 23.8494 62.3108 23.397 62.6451 23.0368C62.9794 22.6768 63.414 22.4258 63.8927 22.3165C64.3712 22.2073 64.8715 22.2447 65.3285 22.4242C65.7856 22.6035 66.1782 22.9165 66.4552 23.3225C66.7324 23.7284 66.8811 24.2084 66.8824 24.7003C66.8976 25.0119 66.8505 25.3234 66.7437 25.6164C66.6369 25.9095 66.4726 26.1782 66.2605 26.4066C66.0485 26.635 65.7929 26.8187 65.5089 26.9465C65.2248 27.0744 64.9181 27.144 64.6068 27.1513ZM55.7796 20.6628C54.983 20.6647 54.2049 20.903 53.5434 21.3478C52.882 21.7926 52.367 22.4238 52.0635 23.1617C51.7599 23.8997 51.6815 24.7112 51.838 25.4937C51.9946 26.2763 52.3791 26.9948 52.943 27.5585C53.5069 28.1223 54.225 28.5059 55.0063 28.6609C55.7878 28.8158 56.5975 28.7354 57.3333 28.4295C58.0691 28.1237 58.6979 27.6061 59.1402 26.9424C59.5826 26.2786 59.8187 25.4984 59.8187 24.7003C59.8264 24.1663 59.7268 23.6363 59.5259 23.1416C59.3249 22.647 59.0267 22.198 58.6489 21.8213C58.2711 21.4446 57.8216 21.1478 57.327 20.9488C56.8325 20.7498 56.3029 20.6525 55.7701 20.6628H55.7796ZM55.7796 27.1513C55.2897 27.1875 54.8002 27.0752 54.375 26.8288C53.9497 26.5824 53.6084 26.2135 53.3953 25.7701C53.1822 25.3266 53.1074 24.8291 53.1804 24.3424C53.2535 23.8557 53.471 23.4024 53.8048 23.0413C54.1387 22.6802 54.5732 22.4282 55.052 22.318C55.5308 22.2079 56.0316 22.2448 56.4892 22.4238C56.9467 22.6028 57.3399 22.9157 57.6175 23.3217C57.8952 23.7277 58.0443 24.2081 58.0456 24.7003C58.0609 25.0119 58.0138 25.3234 57.9069 25.6164C57.8002 25.9095 57.6358 26.1782 57.4237 26.4066C57.2117 26.635 56.9561 26.8187 56.6721 26.9465C56.3881 27.0744 56.0814 27.144 55.7701 27.1513H55.7796ZM45.2646 21.9073V23.6173H49.3606C49.2964 24.4227 48.9623 25.1827 48.4124 25.7738C48.0027 26.1919 47.51 26.5196 46.9662 26.7356C46.4225 26.9516 45.8396 27.0511 45.2551 27.0278C44.0481 27.0278 42.8905 26.5473 42.037 25.6922C41.1835 24.837 40.704 23.6771 40.704 22.4678C40.704 21.2584 41.1835 20.0986 42.037 19.2434C42.8905 18.3882 44.0481 17.9078 45.2551 17.9078C46.4098 17.8889 47.5248 18.3296 48.3556 19.1333L49.5597 17.9268C48.9989 17.3577 48.3298 16.9073 47.5919 16.6022C46.8542 16.2969 46.0627 16.1433 45.2646 16.1503C44.4217 16.1174 43.5809 16.2553 42.7924 16.5559C42.004 16.8564 41.2843 17.3133 40.6763 17.8992C40.0684 18.4851 39.5846 19.188 39.2543 19.9656C38.9239 20.7433 38.7537 21.5798 38.7537 22.425C38.7537 23.2702 38.9239 24.1067 39.2543 24.8844C39.5846 25.662 40.0684 26.3648 40.6763 26.9508C41.2843 27.5367 42.004 27.9936 42.7924 28.2941C43.5809 28.5947 44.4217 28.7326 45.2646 28.6998C46.0762 28.7365 46.8862 28.5987 47.6401 28.2955C48.3941 27.9924 49.0744 27.5309 49.6356 26.9423C50.6289 25.8487 51.1593 24.4113 51.1147 22.9333C51.1177 22.5732 51.0859 22.2136 51.0199 21.8598L45.2646 21.9073ZM88.2252 23.2373C87.9779 22.5083 87.5155 21.8719 86.8992 21.4121C86.2829 20.9524 85.5417 20.6911 84.7739 20.6628C84.2553 20.6617 83.742 20.7674 83.2656 20.9729C82.7894 21.1786 82.3602 21.4799 82.0048 21.8583C81.6493 22.2368 81.3751 22.6842 81.199 23.173C81.0231 23.6618 80.9489 24.1817 80.9813 24.7003C80.9699 25.2312 81.0653 25.759 81.2619 26.2523C81.4585 26.7454 81.7524 27.1939 82.1259 27.5708C82.4993 27.9476 82.9448 28.2452 83.4356 28.4457C83.9264 28.6462 84.4525 28.7455 84.9825 28.7378C85.6457 28.7414 86.2995 28.5801 86.8853 28.2684C87.471 27.9567 87.9705 27.5043 88.339 26.9518L86.9642 26.0018C86.759 26.3445 86.4685 26.628 86.1212 26.8245C85.7738 27.021 85.3814 27.1238 84.9825 27.1228C84.5718 27.1384 84.1659 27.0299 83.8175 26.8113C83.4693 26.5928 83.1946 26.2743 83.0293 25.8973L88.4243 23.6648L88.2252 23.2373ZM82.7259 24.5863C82.7067 24.2924 82.7462 23.9976 82.8421 23.7193C82.938 23.4409 83.0883 23.1845 83.2844 22.9652C83.4804 22.7457 83.7182 22.5678 83.9836 22.4415C84.2492 22.3154 84.5373 22.2436 84.8308 22.2303C85.1367 22.21 85.4417 22.2803 85.708 22.4323C85.9744 22.5843 86.1903 22.8114 86.3289 23.0853L82.7259 24.5863ZM78.3455 28.5003H80.1185V16.6253H78.3455V28.5003ZM75.4442 21.5653H75.3778C75.1106 21.2659 74.7832 21.0265 74.4172 20.8628C74.0512 20.699 73.6548 20.6147 73.2539 20.6153C72.2178 20.6656 71.2407 21.1134 70.5252 21.866C69.8096 22.6185 69.4104 23.6181 69.4104 24.6575C69.4104 25.6969 69.8096 26.6965 70.5252 27.449C71.2407 28.2016 72.2178 28.6494 73.2539 28.6998C73.6558 28.7065 74.0541 28.625 74.4211 28.4608C74.788 28.2967 75.1146 28.0539 75.3778 27.7498H75.4347V28.3293C75.4347 29.8778 74.6098 30.7043 73.2824 30.7043C72.8403 30.6939 72.4112 30.552 72.0499 30.2965C71.6886 30.0411 71.4113 29.6836 71.2533 29.2698L69.7079 29.9158C69.9987 30.6248 70.4944 31.2306 71.1313 31.6554C71.7683 32.0803 72.5173 32.3048 73.2824 32.3003C75.3588 32.3003 77.075 31.0748 77.075 28.0918V20.9003H75.4442V21.5653ZM73.4151 27.1513C72.8036 27.0972 72.2343 26.8156 71.8197 26.362C71.405 25.9083 71.175 25.3154 71.175 24.7003C71.175 24.085 71.405 23.4922 71.8197 23.0385C72.2343 22.5849 72.8036 22.3032 73.4151 22.2493C73.7183 22.2648 74.0154 22.3411 74.2888 22.4735C74.5622 22.6059 74.8063 22.7918 75.007 23.0202C75.2075 23.2486 75.3604 23.5149 75.4567 23.8035C75.5529 24.092 75.5905 24.3969 75.5674 24.7003C75.5933 25.0049 75.5572 25.3117 75.4614 25.6019C75.3656 25.8922 75.2119 26.16 75.0099 26.3892C74.8078 26.6183 74.5614 26.8039 74.2857 26.9349C74.01 27.0659 73.7106 27.1395 73.4056 27.1513H73.4151ZM96.531 16.6253H92.2927V28.5003H94.0658V23.9973H96.5404C97.0458 24.0336 97.5531 23.9653 98.0309 23.7965C98.5088 23.6278 98.9468 23.3622 99.3176 23.0164C99.6883 22.6706 99.9841 22.2518 100.186 21.7864C100.389 21.321 100.493 20.8188 100.493 20.3113C100.493 19.8037 100.389 19.3015 100.186 18.8361C99.9841 18.3707 99.6883 17.9519 99.3176 17.6061C98.9468 17.2603 98.5088 16.9947 98.0309 16.826C97.5531 16.6572 97.0458 16.5889 96.5404 16.6253H96.531ZM96.531 22.3253H94.0563V18.2783H96.5689C97.1084 18.2783 97.6251 18.493 98.0072 18.8751C98.3884 19.2572 98.6027 19.7756 98.6027 20.316C98.6027 20.8565 98.3884 21.3748 98.0072 21.7569C97.6251 22.1391 97.1084 22.3538 96.5689 22.3538L96.531 22.3253ZM107.463 20.6153C106.817 20.5766 106.175 20.7277 105.614 21.0501C105.053 21.3724 104.599 21.852 104.306 22.4298L105.88 23.0853C106.035 22.7986 106.27 22.5635 106.556 22.4083C106.842 22.2532 107.167 22.1847 107.492 22.2113C107.716 22.1849 107.945 22.2038 108.163 22.2666C108.38 22.3295 108.583 22.4353 108.76 22.5777C108.937 22.7201 109.083 22.8962 109.191 23.0959C109.299 23.2956 109.365 23.5148 109.388 23.7408V23.8643C108.818 23.5622 108.184 23.4055 107.539 23.4083C105.842 23.4083 104.126 24.3583 104.126 26.0778C104.143 26.4444 104.233 26.8039 104.39 27.1351C104.548 27.4664 104.77 27.7625 105.044 28.0061C105.318 28.2496 105.639 28.4357 105.986 28.5532C106.333 28.6707 106.7 28.7173 107.065 28.6903C107.511 28.7224 107.958 28.6334 108.359 28.4329C108.759 28.2324 109.099 27.9274 109.34 27.5503H109.397V28.5003H111.104V23.9308C111.104 21.8503 109.53 20.6438 107.511 20.6438L107.463 20.6153ZM107.245 27.1228C106.667 27.1228 105.861 26.8283 105.861 26.1158C105.861 25.1658 106.866 24.8523 107.757 24.8523C108.32 24.8383 108.877 24.9761 109.369 25.2513C109.309 25.7656 109.066 26.2412 108.685 26.5903C108.304 26.9394 107.809 27.1386 107.292 27.1513L107.245 27.1228ZM117.324 20.9003L115.295 26.0493H115.238L113.133 20.9003H111.237L114.394 28.1013L112.593 32.1008H114.441L119.296 20.9003H117.324ZM101.385 28.5003H103.159V16.6253H101.385V28.5003Z" fill="white"/>
<path d="M9.89878 7.16318C9.58978 7.53473 9.43376 8.01039 9.46262 8.49318V29.5072C9.43376 29.99 9.58978 30.4656 9.89878 30.8372L9.96515 30.9037L21.7127 19.1427V18.8672L9.96515 7.09668L9.89878 7.16318Z" fill="url(#paint0_linear_1306_2240)"/>
<path d="M25.6001 23.0656L21.7126 19.1421V18.8666L25.6001 14.9336L25.6854 14.9811L30.3408 17.6316C31.6682 18.3821 31.6682 19.6171 30.3408 20.3771L25.7044 23.0181L25.6001 23.0656Z" fill="url(#paint1_linear_1306_2240)"/>
<path d="M25.7138 23.009L21.7126 19L9.89868 30.837C10.1693 31.0754 10.5144 31.2114 10.8745 31.2218C11.2346 31.2322 11.587 31.1163 11.8708 30.894L25.7233 23.009" fill="url(#paint2_linear_1306_2240)"/>
<path d="M25.7138 14.9908L11.8613 7.10582C11.5774 6.88354 11.2251 6.76758 10.865 6.77799C10.5049 6.7884 10.1598 6.92452 9.88916 7.16282L21.7126 18.9998L25.7138 14.9908Z" fill="url(#paint3_linear_1306_2240)"/>
<path opacity="0.2" d="M25.6 22.9238L11.8613 30.7613C11.5876 30.9664 11.255 31.0772 10.9132 31.0772C10.5714 31.0772 10.2388 30.9664 9.96505 30.7613L9.89868 30.8278L9.96505 30.8943C10.2382 31.1009 10.571 31.2126 10.9132 31.2126C11.2554 31.2126 11.5882 31.1009 11.8613 30.8943L25.7138 23.0093L25.6 22.9238Z" fill="black"/>
<path opacity="0.12" d="M9.89878 30.704C9.58978 30.3325 9.43376 29.8568 9.46262 29.374V29.5165C9.43376 29.9993 9.58978 30.475 9.89878 30.8465L9.96515 30.78L9.89878 30.704ZM30.3409 20.235L25.6001 22.9235L25.6854 23.009L30.3409 20.368C30.605 20.2436 30.8317 20.0517 30.9982 19.8116C31.1647 19.5713 31.265 19.2915 31.289 19C31.2357 19.2648 31.1225 19.5138 30.9581 19.7279C30.7938 19.9419 30.5825 20.1155 30.3409 20.235Z" fill="black"/>
<path opacity="0.25" d="M11.8614 7.23931L30.3408 17.7653C30.5826 17.8848 30.7938 18.0584 30.9581 18.2724C31.1225 18.4865 31.2357 18.7355 31.289 19.0003C31.265 18.7088 31.1647 18.429 30.9982 18.1887C30.8318 17.9486 30.605 17.7567 30.3408 17.6323L11.8614 7.10631C10.534 6.35581 9.45312 6.98281 9.45312 8.50281V8.64531C9.48157 7.11581 10.5435 6.48881 11.8614 7.23931Z" fill="white"/>
</g>
<defs>
<linearGradient id="paint0_linear_1306_2240" x1="20.6697" y1="8.27468" x2="4.72877" y2="24.1846" gradientUnits="userSpaceOnUse">
<stop stop-color="#00A0FF"/>
<stop offset="0.01" stop-color="#00A1FF"/>
<stop offset="0.26" stop-color="#00BEFF"/>
<stop offset="0.51" stop-color="#00D2FF"/>
<stop offset="0.76" stop-color="#00DFFF"/>
<stop offset="1" stop-color="#00E3FF"/>
</linearGradient>
<linearGradient id="paint1_linear_1306_2240" x1="32.0759" y1="18.9996" x2="9.1402" y2="18.9996" gradientUnits="userSpaceOnUse">
<stop stop-color="#FFE000"/>
<stop offset="0.41" stop-color="#FFBD00"/>
<stop offset="0.78" stop-color="#FFA500"/>
<stop offset="1" stop-color="#FF9C00"/>
</linearGradient>
<linearGradient id="paint2_linear_1306_2240" x1="23.5425" y1="21.185" x2="1.92059" y2="42.7553" gradientUnits="userSpaceOnUse">
<stop stop-color="#FF3A44"/>
<stop offset="1" stop-color="#C31162"/>
</linearGradient>
<linearGradient id="paint3_linear_1306_2240" x1="6.92145" y1="0.170827" x2="16.5734" y2="9.80399" gradientUnits="userSpaceOnUse">
<stop stop-color="#32A071"/>
<stop offset="0.07" stop-color="#2DA771"/>
<stop offset="0.48" stop-color="#15CF74"/>
<stop offset="0.8" stop-color="#06E775"/>
<stop offset="1" stop-color="#00F076"/>
</linearGradient>
<clipPath id="clip0_1306_2240">
<rect width="128" height="38" fill="white"/>
</clipPath>
</defs>
</svg>
